<svg width="147" height="31" viewBox="0 0 147 31" fill="none" xmlns="http://www.w3.org/2000/svg">
<g clip-path="url(#clip0_1_1901)">
<path d="M7.56132 29.0731C5.25855 27.844 3.34033 26.005 2.01781 23.7584C0.695252 21.4235 0.000244141 18.7872 0.000244141 16.1054C0.000244141 13.4235 0.695252 10.7872 2.01781 8.45237C3.35694 6.20682 5.28578 4.36906 7.59588 3.13771C10.0376 1.83922 12.7709 1.1835 15.5374 1.23254C17.7683 1.20204 19.9822 1.62439 22.0444 2.47392C23.8031 3.19733 25.3834 4.29296 26.6762 5.68514C26.7229 5.73551 26.7591 5.79456 26.7828 5.8589C26.8065 5.92325 26.8173 5.99163 26.8145 6.06013C26.8121 6.12866 26.7959 6.19599 26.767 6.25818C26.7381 6.32037 26.6969 6.37614 26.646 6.42219L23.9023 9.00839C23.8053 9.0997 23.6771 9.15059 23.5437 9.15064C23.4105 9.14973 23.2825 9.09896 23.1851 9.00839C22.2227 8.02868 21.0697 7.25563 19.7969 6.73676C18.5241 6.21788 17.1584 5.96415 15.7837 5.99115C13.9146 5.94847 12.0662 6.38795 10.4173 7.26702C8.87285 8.10689 7.59471 9.36106 6.72741 10.8877C5.85683 12.5021 5.40115 14.3067 5.40115 16.1399C5.40115 17.9731 5.85683 19.7776 6.72741 21.392C7.59599 22.9177 8.87381 24.1715 10.4173 25.0127C12.06 25.8934 13.9018 26.3387 15.7664 26.3058C17.1502 26.3273 18.5235 26.064 19.8007 25.5322C21.0779 25.0005 22.2315 24.2118 23.1894 23.2153C23.2373 23.1669 23.2947 23.1288 23.3579 23.1032C23.4194 23.0772 23.4856 23.064 23.5523 23.0644C23.6191 23.0644 23.6852 23.0776 23.7468 23.1032C23.8081 23.1298 23.8639 23.1679 23.911 23.2153L26.6546 25.8015C26.7543 25.8957 26.8133 26.0249 26.8189 26.1617C26.8246 26.2986 26.7765 26.4323 26.6849 26.5343C25.3817 27.9283 23.7932 29.0264 22.0271 29.7541C19.956 30.5993 17.736 31.0214 15.4985 30.9955C12.732 31.0335 10.001 30.3706 7.56132 29.0688V29.0731Z" fill="black"/>
<path d="M42.4815 8.65967V13.5821C42.0857 13.505 41.6836 13.4646 41.2803 13.4614C39.264 13.4614 37.6884 14.0462 36.5535 15.2157C35.4185 16.3853 34.8525 18.0749 34.8554 20.2847V31.0002H29.6705V8.90968H34.6135V12.1338C36.1027 9.81771 38.7253 8.65967 42.4815 8.65967Z" fill="black"/>
<path d="M67.7837 21.3103H50.41C50.6622 22.8662 51.5192 24.2601 52.795 25.1897C54.1916 26.1744 55.8732 26.6755 57.5824 26.6164C59.6539 26.6201 61.6489 25.8355 63.1605 24.4224C63.2102 24.3752 63.269 24.3386 63.3333 24.3146C63.3984 24.2917 63.4674 24.2815 63.5364 24.2845C63.6053 24.2853 63.6733 24.3015 63.7351 24.3319C63.7968 24.3617 63.8525 24.4026 63.8993 24.4526L66.0208 26.8879C66.1047 26.985 66.1509 27.1089 66.1509 27.2371C66.1509 27.3652 66.1047 27.4892 66.0208 27.5862C65.0825 28.6642 63.9149 29.5198 62.6031 30.0905C60.7354 30.7726 58.75 31.0763 56.7632 30.9838C54.7764 30.8913 52.8281 30.4044 51.0322 29.5517C49.2408 28.6478 47.7494 27.2468 46.7374 25.5172C45.7133 23.7395 45.1907 21.7182 45.2251 19.6681C45.1997 17.6333 45.7123 15.6277 46.7114 13.8535C47.6673 12.1588 49.0804 10.7655 50.7902 9.83189C52.5964 8.854 54.6246 8.35668 56.6794 8.38791C58.6994 8.35359 60.6935 8.84534 62.4648 9.81463C64.1448 10.7502 65.5246 12.1416 66.4442 13.8276C67.4284 15.6633 67.9238 17.7203 67.883 19.8017C67.883 20.1422 67.8398 20.6509 67.7837 21.3103ZM52.4623 13.9828C51.3006 14.9805 50.5535 16.3744 50.3668 17.8922H62.9315C62.7642 16.3723 62.0247 14.9724 60.8625 13.9755C59.7004 12.9786 58.2022 12.4589 56.6707 12.5215C55.1373 12.4724 53.6393 12.9879 52.4623 13.9698V13.9828Z" fill="black"/>
<path d="M94.2395 0.517247V30.1767C94.2399 30.2447 94.2267 30.3122 94.2008 30.3751C94.1748 30.438 94.1366 30.4951 94.0883 30.5431C93.9905 30.6396 93.8585 30.6938 93.721 30.6939H89.7805C89.6433 30.6928 89.5121 30.638 89.4151 30.5412C89.3181 30.4445 89.2631 30.3136 89.262 30.1767V27.8534C88.4198 28.8933 87.3293 29.7055 86.0906 30.2155C84.7683 30.7506 83.3523 31.0173 81.9254 31C79.9207 31.0248 77.9433 30.535 76.1831 29.5776C74.4958 28.6507 73.1069 27.2651 72.1778 25.5819C71.2267 23.7512 70.7302 21.7193 70.7302 19.6573C70.7302 17.5953 71.2267 15.5635 72.1778 13.7328C73.1091 12.0578 74.4981 10.6811 76.1831 9.76291C77.9441 8.80889 79.9217 8.32349 81.9254 8.35345C83.3023 8.33657 84.6691 8.58993 85.948 9.09913C87.149 9.58462 88.2158 10.3503 89.0589 11.3319V0.517247C89.0585 0.449226 89.0717 0.381794 89.0978 0.318961C89.1234 0.255885 89.1616 0.198676 89.2101 0.150852C89.2577 0.101955 89.3151 0.0637431 89.3787 0.0387784C89.4419 0.0134607 89.5093 0.000313008 89.5774 0H93.721C93.8585 0 93.9904 0.0544814 94.0876 0.151483C94.1849 0.248485 94.2395 0.380066 94.2395 0.517247ZM85.9048 25.6983C86.9064 25.1319 87.726 24.2933 88.2682 23.2802C88.8421 22.1522 89.1412 20.905 89.1412 19.6401C89.1412 18.3751 88.8421 17.128 88.2682 16C87.7263 14.9855 86.9067 14.1455 85.9048 13.5776C84.8732 13.0204 83.7185 12.7286 82.5454 12.7286C81.3723 12.7286 80.2177 13.0204 79.186 13.5776C78.1871 14.1492 77.3684 14.9883 76.8226 16C76.2517 17.1289 75.9544 18.3757 75.9544 19.6401C75.9544 20.9045 76.2517 22.1513 76.8226 23.2802C77.371 24.2888 78.1892 25.1258 79.186 25.6983C80.2177 26.2555 81.3723 26.5473 82.5454 26.5473C83.7185 26.5473 84.8732 26.2555 85.9048 25.6983Z" fill="black"/>
<path d="M101.922 7.37087C102.624 7.37087 103.311 7.16307 103.895 6.77375C104.479 6.38443 104.934 5.83107 105.203 5.18365C105.472 4.53624 105.542 3.82385 105.405 3.13656C105.268 2.44926 104.93 1.81793 104.433 1.32242C103.937 0.826906 103.304 0.48946 102.615 0.352748C101.926 0.216037 101.212 0.286206 100.563 0.554375C99.9137 0.822544 99.3591 1.27666 98.9688 1.85932C98.5785 2.44198 98.3702 3.12702 98.3702 3.82778C98.3702 4.29307 98.4621 4.75379 98.6406 5.18365C98.8191 5.61352 99.0807 6.00411 99.4105 6.33311C99.7403 6.66212 100.132 6.92313 100.563 7.10118C100.994 7.27924 101.455 7.37087 101.922 7.37087Z" fill="#1BC5AC"/>
<path d="M101.922 9.95224C101.112 9.9505 100.324 9.69243 99.6707 9.21519C99.6393 9.19094 99.6017 9.17597 99.5622 9.17201C99.5227 9.16805 99.4829 9.17524 99.4473 9.19277C99.4118 9.2103 99.3818 9.23746 99.361 9.27114C99.3401 9.30483 99.3291 9.34367 99.3293 9.38327V30.504C99.3305 30.6408 99.3855 30.7717 99.4825 30.8685C99.5795 30.9652 99.7107 31.0201 99.8478 31.0212H103.996C104.133 31.0211 104.265 30.9669 104.363 30.8704C104.411 30.8223 104.45 30.7652 104.476 30.7023C104.501 30.6394 104.515 30.572 104.514 30.504V9.38758C104.515 9.34762 104.505 9.3082 104.484 9.27388C104.464 9.23955 104.434 9.21175 104.398 9.19369C104.362 9.17563 104.322 9.16805 104.282 9.17186C104.243 9.17566 104.205 9.1907 104.173 9.21519C103.52 9.69351 102.732 9.95169 101.922 9.95224Z" fill="black"/>
<path d="M124.848 29.151C124.893 29.2575 124.9 29.3761 124.869 29.4873C124.837 29.5986 124.769 29.6959 124.675 29.7631C124.095 30.1564 123.452 30.4479 122.774 30.6252C121.877 30.8791 120.949 31.0054 120.017 31.0002C117.589 31.0002 115.716 30.3651 114.4 29.095C113.084 27.8249 112.412 25.9844 112.387 23.5735V12.9355H109.258C109.121 12.9344 108.99 12.8795 108.893 12.7828C108.796 12.686 108.741 12.5551 108.74 12.4183V9.31482C108.741 9.17799 108.796 9.04708 108.893 8.95032C108.99 8.85356 109.121 8.7987 109.258 8.79758H112.387V4.25017C112.386 4.18168 112.401 4.11391 112.43 4.05188C112.453 3.98776 112.492 3.93016 112.542 3.8838C112.589 3.83639 112.645 3.79835 112.706 3.77173C112.77 3.74641 112.837 3.73323 112.905 3.73292H117.053C117.121 3.73246 117.189 3.74567 117.252 3.77173C117.315 3.79772 117.372 3.83583 117.42 3.8839C117.468 3.93198 117.506 3.98906 117.533 4.05188C117.558 4.11485 117.571 4.18219 117.571 4.25017V8.78035H120.937C121.075 8.78139 121.206 8.83545 121.305 8.9312C121.352 8.97891 121.389 9.03546 121.414 9.0976C121.439 9.15973 121.452 9.22625 121.451 9.29328V12.4398C121.452 12.5069 121.439 12.5733 121.414 12.6355C121.389 12.6976 121.352 12.7542 121.305 12.8019C121.206 12.8977 121.075 12.9517 120.937 12.9528H117.571V23.4614C117.51 24.3517 117.791 25.2318 118.358 25.9226C118.655 26.2195 119.012 26.45 119.405 26.5986C119.799 26.7472 120.219 26.8107 120.639 26.7847C121.479 26.7953 122.308 26.5858 123.041 26.1769C123.109 26.1438 123.182 26.1247 123.258 26.1209C123.332 26.1165 123.406 26.1298 123.474 26.1597C123.542 26.1865 123.604 26.2276 123.655 26.2803C123.707 26.3332 123.746 26.3964 123.772 26.4657L124.848 29.151Z" fill="black"/>
<path d="M144.408 10.6852C146.136 12.2456 147 14.5976 147 17.7412V30.1723C147 30.3095 146.945 30.441 146.848 30.538C146.751 30.635 146.619 30.6895 146.482 30.6895H142.632C142.494 30.6895 142.362 30.635 142.265 30.538C142.168 30.441 142.113 30.3095 142.113 30.1723V28.0171C141.448 29.0073 140.502 29.7772 139.396 30.2283C136.619 31.2834 133.545 31.2495 130.793 30.1335C129.629 29.6344 128.63 28.8171 127.911 27.7757C127.233 26.7672 126.878 25.5764 126.896 24.3619C126.866 23.4485 127.051 22.5408 127.436 21.7115C127.82 20.8821 128.395 20.1543 129.112 19.5861C130.59 18.3878 132.919 17.7872 136.099 17.7844H141.824V17.4568C141.824 15.9094 141.362 14.7197 140.433 13.8964C139.504 13.0731 138.13 12.6594 136.306 12.655C135.06 12.656 133.823 12.8524 132.638 13.2369C131.715 13.5192 130.841 13.9408 130.046 14.4869C129.986 14.53 129.918 14.5608 129.847 14.5775C129.775 14.5904 129.702 14.5904 129.631 14.5775C129.559 14.5616 129.491 14.5307 129.432 14.4869C129.371 14.4443 129.321 14.3883 129.285 14.3231L127.751 11.4697C127.689 11.3581 127.671 11.2277 127.699 11.1033C127.726 10.9781 127.798 10.8673 127.902 10.793C129.072 10.004 130.362 9.41003 131.722 9.03434C133.409 8.55996 135.154 8.32346 136.907 8.33175C140.176 8.34612 142.676 9.13061 144.408 10.6852ZM139.542 26.4007C140.549 25.8102 141.05 24.9094 141.387 23.78C141.549 23.1275 141.667 22.4652 141.742 21.7973C141.757 21.7263 141.757 21.6528 141.742 21.5818C141.721 21.5096 141.684 21.4431 141.634 21.3878C141.585 21.334 141.526 21.2901 141.461 21.2585C141.393 21.2294 141.319 21.2147 141.245 21.2154H136.492C133.551 21.2154 132.058 22.1665 132.011 24.0688C131.987 24.7968 132.249 25.5055 132.742 26.043C133.498 26.8231 134.664 27.2154 136.241 27.2111C137.402 27.2591 138.553 26.9781 139.56 26.4007H139.542Z" fill="black"/>
</g>
<defs>
<clipPath id="clip0_1_1901">
<rect width="147" height="31" fill="white"/>
</clipPath>
</defs>
</svg>
