<svg width="100" height="100" viewBox="0 0 100 100" fill="none" xmlns="http://www.w3.org/2000/svg">
<circle cx="50" cy="50" r="49.5" fill="#F0FCFA" stroke="url(#paint0_linear_1_4182)"/>
<path d="M61.167 63.6254V64.8417C61.1714 65.9324 60.9544 67.0127 60.5291 68.0172C60.1911 68.0074 59.854 67.977 59.5197 67.9261C58.9764 67.849 57.4903 67.0989 57.4903 67.0989L56.4143 66.5346L51.0797 63.7306L42.5906 58.5958C40.1722 56.5979 38.8262 55.0137 38.8262 52.1501V35.4068C38.822 34.4103 39.0064 33.4221 39.3695 32.4941C40.4894 32.5964 41.5746 32.937 42.552 33.4931L43.4703 34.0083C43.2781 34.4567 43.1803 34.9399 43.1829 35.4278V50.8883C43.1829 52.9107 44.1223 54.0428 45.8187 55.4448C45.8514 55.4736 45.8866 55.4994 45.9238 55.5219L51.8823 59.132L51.9279 59.1601L56.3161 61.7363L56.7858 61.9851C57.4377 62.3356 58.5839 62.935 59.0045 63.1347C59.6814 63.4525 60.4192 63.6199 61.167 63.6254Z" fill="#1BC5AC"/>
<path d="M64.8752 60.5483V60.5974V64.0673C64.8807 65.3391 64.5852 66.5942 64.0129 67.73C65.5507 67.1497 66.8745 66.1133 67.8066 64.7595C68.7388 63.4057 69.2348 61.7994 69.2283 60.1557V55.8236C69.2277 55.7393 69.205 55.6567 69.1626 55.5839C69.1202 55.5111 69.0596 55.4507 68.9866 55.4085C68.9137 55.3664 68.831 55.344 68.7467 55.3437C68.6625 55.3433 68.5796 55.365 68.5063 55.4065L65.3518 57.2221C65.207 57.3044 65.0866 57.4237 65.0028 57.5678C64.9191 57.7119 64.875 57.8756 64.8752 58.0422V60.5483ZM45.3348 30.8015L61.3071 39.7812C62.3896 40.3914 63.2905 41.2783 63.9175 42.3512C64.5444 43.424 64.875 44.6443 64.8752 45.8869V52.5114C64.875 52.5962 64.8974 52.6796 64.9399 52.753C64.9825 52.8265 65.0438 52.8873 65.1175 52.9293C65.1913 52.9714 65.2748 52.9931 65.3597 52.9923C65.4446 52.9916 65.5277 52.9683 65.6007 52.9249L68.7552 51.0673C68.9 50.9825 69.0199 50.8611 69.1029 50.7153C69.186 50.5695 69.2292 50.4044 69.2283 50.2366V44.2781C69.2283 42.7563 68.8234 41.262 68.0554 39.9482C67.2873 38.6344 66.1837 37.5486 64.8576 36.802L50.6519 28.8071C49.2217 27.998 47.5744 27.6562 45.9403 27.8297C44.3063 28.0031 42.7674 28.6831 41.5389 29.7745C42.8816 29.7841 44.1993 30.1376 45.3664 30.8015" fill="#1BC5AC"/>
<path d="M60.6903 55.8165C60.8346 55.732 60.9542 55.6111 61.0372 55.466C61.1202 55.3208 61.1638 55.1565 61.1635 54.9893V48.9747C61.1612 47.4548 60.7553 45.9627 59.9874 44.6511C59.2195 43.3394 58.117 42.2551 56.7928 41.5091L42.566 33.5037C41.3622 32.8254 40.0016 32.4742 38.6198 32.4851C37.2381 32.4961 35.8833 32.8687 34.6903 33.5661C33.4973 34.2634 32.5079 35.2611 31.8204 36.4597C31.1328 37.6584 30.7713 39.0162 30.7717 40.398V57.1414C30.7717 59.9909 32.1036 61.5752 34.508 63.5625C34.5256 63.5796 34.5457 63.5938 34.5676 63.6046L42.9796 68.7078H43.0041L49.4007 72.0761C49.4007 72.0761 50.8869 72.8227 51.4301 72.9033C56.5474 73.6499 61.146 69.9766 61.146 64.8418V60.4536C61.1464 60.3689 61.1244 60.2857 61.0822 60.2122C61.0401 60.1388 60.9793 60.0779 60.906 60.0355C60.8327 59.9932 60.7495 59.971 60.6648 59.9711C60.5802 59.9713 60.4971 59.9938 60.4239 60.0365L57.2694 61.8486C57.1246 61.9309 57.0042 62.0502 56.9204 62.1943C56.8367 62.3384 56.7927 62.5021 56.7928 62.6687V65.1888C56.7964 65.2191 56.7964 65.2497 56.7928 65.2799C56.0918 68.9917 52.8602 69.0163 50.9534 68.112C50.3541 67.8281 48.2616 66.71 48.2616 66.71L43.8769 64.1338L43.8313 64.1093L37.8728 60.4991L37.7642 60.4185C36.0713 59.0165 35.1319 57.8879 35.1319 55.862V40.4085C35.1305 39.7807 35.294 39.1634 35.606 38.6186C35.918 38.0737 36.3676 37.6203 36.9098 37.3038C37.4521 36.9872 38.0679 36.8186 38.6958 36.8148C39.3237 36.811 39.9415 36.9721 40.4876 37.2821L53.2527 44.4673C54.3347 45.0772 55.2353 45.9635 55.8622 47.0357C56.4892 48.1079 56.82 49.3275 56.8208 50.5695V56.8785C56.8215 57.0012 56.8545 57.1215 56.9163 57.2275C56.9781 57.3335 57.0667 57.4214 57.1731 57.4824C57.2796 57.5434 57.4002 57.5755 57.5228 57.5753C57.6455 57.5751 57.766 57.5427 57.8723 57.4813L60.6903 55.8165Z" fill="#040C22"/>
<defs>
<linearGradient id="paint0_linear_1_4182" x1="50" y1="66.6667" x2="50" y2="-34.375" gradientUnits="userSpaceOnUse">
<stop stop-color="#C0F3EB"/>
<stop offset="1" stop-color="#FBFFFE"/>
</linearGradient>
</defs>
</svg>
