<svg width="20" height="20" viewBox="0 0 20 20" fill="none" xmlns="http://www.w3.org/2000/svg">
<g clip-path="url(#clip0_131_12430)">
<path d="M10 2.88083C9.655 2.88083 9.375 2.60083 9.375 2.25583V0.625C9.375 0.28 9.655 0 10 0C10.345 0 10.625 0.28 10.625 0.625V2.25583C10.625 2.60083 10.345 2.88083 10 2.88083Z" fill="#1BC5AC"/>
<path d="M15.4763 5.15005C15.3163 5.15005 15.1564 5.08921 15.0347 4.96671C14.7905 4.72255 14.7905 4.32672 15.0347 4.08255L16.188 2.92922C16.4322 2.68505 16.828 2.68505 17.0722 2.92922C17.3163 3.17338 17.3163 3.56922 17.0722 3.81338L15.9188 4.96671C15.7963 5.08838 15.6363 5.15005 15.4763 5.15005V5.15005Z" fill="#1BC5AC"/>
<path d="M19.375 10.625H17.7441C17.3991 10.625 17.1191 10.345 17.1191 10C17.1191 9.655 17.3991 9.375 17.7441 9.375H19.375C19.72 9.375 20 9.655 20 10C20 10.345 19.72 10.625 19.375 10.625Z" fill="#1BC5AC"/>
<path d="M16.6297 17.2536C16.4697 17.2536 16.3097 17.1927 16.188 17.0702L15.0347 15.9169C14.7905 15.6727 14.7905 15.2769 15.0347 15.0327C15.2789 14.7886 15.6747 14.7886 15.9188 15.0327L17.0722 16.1861C17.3163 16.4302 17.3163 16.8261 17.0722 17.0702C16.9497 17.1927 16.7897 17.2536 16.6297 17.2536Z" fill="#1BC5AC"/>
<path d="M3.37088 17.2536C3.21088 17.2536 3.05088 17.1927 2.92922 17.0702C2.68505 16.8261 2.68505 16.4302 2.92922 16.1861L4.08255 15.0327C4.32671 14.7886 4.72254 14.7886 4.96671 15.0327C5.21087 15.2769 5.21087 15.6727 4.96671 15.9169L3.81338 17.0702C3.69088 17.1927 3.53088 17.2536 3.37088 17.2536V17.2536Z" fill="#1BC5AC"/>
<path d="M2.25583 10.625H0.625C0.28 10.625 0 10.345 0 10C0 9.655 0.28 9.375 0.625 9.375H2.25583C2.60083 9.375 2.88083 9.655 2.88083 10C2.88083 10.345 2.60083 10.625 2.25583 10.625Z" fill="#1BC5AC"/>
<path d="M4.52421 5.15005C4.36421 5.15005 4.20421 5.08921 4.08255 4.96671L2.92922 3.81338C2.68505 3.56922 2.68505 3.17338 2.92922 2.92922C3.17338 2.68505 3.56922 2.68505 3.81338 2.92922L4.96671 4.08255C5.21087 4.32672 5.21087 4.72255 4.96671 4.96671C4.84338 5.08838 4.68421 5.15005 4.52421 5.15005V5.15005Z" fill="#1BC5AC"/>
<path d="M12.5 17.5V18.5417C12.5 19.3417 11.8417 20 11.0417 20H8.95833C8.25833 20 7.5 19.4667 7.5 18.3V17.5H12.5Z" fill="#1BC5AC"/>
<path d="M13.6754 5.46683C12.3088 4.35849 10.5088 3.92516 8.75042 4.30016C6.54209 4.75849 4.75042 6.55849 4.29209 8.76683C3.82542 11.0335 4.67542 13.2835 6.49209 14.6585C6.98375 15.0252 7.32542 15.5918 7.44209 16.2502V16.2585C7.45875 16.2502 7.48375 16.2502 7.50042 16.2502H12.5004C12.5171 16.2502 12.5254 16.2502 12.5421 16.2585V16.2502C12.6588 15.6168 13.0338 15.0335 13.6088 14.5835C15.0171 13.4668 15.8338 11.8002 15.8338 10.0002C15.8338 8.23349 15.0504 6.58349 13.6754 5.46683ZM13.1254 10.4168C12.7838 10.4168 12.5004 10.1335 12.5004 9.79183C12.5004 8.52516 11.4754 7.50016 10.2088 7.50016C9.86709 7.50016 9.58375 7.21683 9.58375 6.87516C9.58375 6.53349 9.86709 6.25016 10.2088 6.25016C12.1588 6.25016 13.7504 7.84183 13.7504 9.79183C13.7504 10.1335 13.4671 10.4168 13.1254 10.4168Z" fill="#1BC5AC"/>
<path d="M7.44141 16.25H7.49973C7.48307 16.25 7.45807 16.25 7.44141 16.2583V16.25Z" fill="#1BC5AC"/>
<path d="M12.5417 16.25V16.2583C12.525 16.25 12.5167 16.25 12.5 16.25H12.5417Z" fill="#1BC5AC"/>
</g>
<defs>
<clipPath id="clip0_131_12430">
<rect width="20" height="20" fill="white"/>
</clipPath>
</defs>
</svg>
