<svg width="31" height="30" viewBox="0 0 31 30" fill="none" xmlns="http://www.w3.org/2000/svg">
<path d="M4.20186 3.72966C1.46497 6.46396 1.20833 10.3874 1.20833 15.0135C1.20833 19.6406 1.46497 23.565 4.20282 26.3003C6.94013 29.0361 10.869 29.2917 15.5 29.2917C20.131 29.2917 24.0594 29.0361 26.7967 26.3003C29.5345 23.5645 29.7917 19.6406 29.7917 15.0135C29.7917 10.3812 29.5315 6.45369 26.7874 3.71891L26.7873 3.71887C24.0497 0.991578 20.1277 0.708333 15.5 0.708333C10.8662 0.708333 6.93853 0.995066 4.20186 3.72966ZM4.20186 3.72966L4.408 3.936M4.20186 3.72966L4.408 3.936M4.408 3.936C7.0485 1.2975 10.8525 1 15.5 1C20.1415 1 23.94 1.294 26.5815 3.9255C29.2285 6.5635 29.5 10.3655 29.5 15.0135C29.5 19.6565 29.2315 23.455 26.5905 26.094C23.95 28.733 20.147 29 15.5 29C10.853 29 7.0495 28.733 4.409 26.094C1.768 23.4555 1.5 19.6565 1.5 15.0135C1.5 10.3715 1.768 6.5735 4.408 3.936Z" fill="#D3F6F1" stroke="url(#paint0_linear_84_17197)" stroke-width="0.583333"/>
<rect x="7.33333" y="7.41732" width="16.4502" height="14.6885" rx="3.5" fill="white" stroke="#040C22" stroke-width="1.16667"/>
<mask id="path-3-inside-1_84_17197" fill="white">
<path fill-rule="evenodd" clip-rule="evenodd" d="M24.3673 11.6699V17.1086H21.8209C20.319 17.1086 19.1016 15.8911 19.1016 14.3892C19.1016 12.8874 20.319 11.6699 21.8209 11.6699H24.3673Z"/>
</mask>
<path fill-rule="evenodd" clip-rule="evenodd" d="M24.3673 11.6699V17.1086H21.8209C20.319 17.1086 19.1016 15.8911 19.1016 14.3892C19.1016 12.8874 20.319 11.6699 21.8209 11.6699H24.3673Z" fill="white"/>
<path d="M24.3673 11.6699H25.2423V10.7949H24.3673V11.6699ZM24.3673 17.1086V17.9836H25.2423V17.1086H24.3673ZM23.4923 11.6699V17.1086H25.2423V11.6699H23.4923ZM24.3673 16.2336H21.8209V17.9836H24.3673V16.2336ZM21.8209 16.2336C20.8023 16.2336 19.9766 15.4078 19.9766 14.3892H18.2266C18.2266 16.3743 19.8358 17.9836 21.8209 17.9836V16.2336ZM19.9766 14.3892C19.9766 13.3707 20.8023 12.5449 21.8209 12.5449V10.7949C19.8358 10.7949 18.2266 12.4042 18.2266 14.3892H19.9766ZM21.8209 12.5449H24.3673V10.7949H21.8209V12.5449Z" fill="black" mask="url(#path-3-inside-1_84_17197)"/>
<rect x="21.1738" y="13.7422" width="1.38172" height="1.38172" rx="0.583333" fill="#1BC5AC"/>
<path d="M16.8715 14.0083C17.0083 14.0412 17.0523 14.214 16.9479 14.3083L12.235 18.5653C12.0928 18.6938 11.8772 18.5329 11.9598 18.36L13.2546 15.6501C13.3026 15.5497 13.2459 15.4305 13.1376 15.4045L10.3455 14.7333C10.2087 14.7004 10.1647 14.5276 10.2691 14.4333L14.9819 10.1763C15.1242 10.0478 15.3398 10.2087 15.2571 10.3817L13.9623 13.0915C13.9143 13.1919 13.9711 13.3111 14.0793 13.3371L16.8715 14.0083Z" fill="#1BC5AC"/>
<defs>
<linearGradient id="paint0_linear_84_17197" x1="15.5" y1="31.3333" x2="28.8881" y2="-3.47573" gradientUnits="userSpaceOnUse">
<stop stop-color="#C0F3EB"/>
<stop offset="1" stop-color="#FBFFFE"/>
</linearGradient>
</defs>
</svg>
