<svg width="24" height="24" viewBox="0 0 24 24" fill="none" xmlns="http://www.w3.org/2000/svg">
<g clip-path="url(#clip0_51_22343)">
<path d="M9.72302 17.6519C8.89459 19.0867 7.05982 19.5784 5.62494 18.7499C4.19006 17.9215 3.69844 16.0867 4.52686 14.6519L9.72302 17.6519Z" stroke="#1BC5AC" stroke-width="1.5"/>
<path d="M16.0813 21.3424L3.79391 14.2482C3.01353 13.7977 3.04054 12.9098 3.58352 12.2222C3.66856 12.1145 3.77897 12.0305 3.89695 11.9604L7.06843 10.0766L9.70926 6.40514C9.70926 6.40514 12.0921 3.69275 15.2673 4.06403L15.4891 3.67994C16.1104 2.60378 17.4865 2.23506 18.5626 2.85638C19.6388 3.4777 20.0075 4.85378 19.3862 5.92994L19.1644 6.31403C21.0736 8.8782 19.916 12.298 19.916 12.298L17.666 16.1951L17.9854 20.0368C18.0007 20.2214 17.9872 20.4096 17.9129 20.5793C17.5748 21.3511 16.8398 21.7803 16.0813 21.3424Z" fill="#1BC5AC"/>
<path d="M17.9129 20.5793L17.2259 20.2783L17.2259 20.2783L17.9129 20.5793ZM3.58352 12.2222L4.17212 12.687L4.17212 12.687L3.58352 12.2222ZM19.1644 6.31403L18.5149 5.93903L18.2683 6.36625L18.5629 6.76193L19.1644 6.31403ZM19.916 12.298L20.5655 12.673L20.6026 12.6087L20.6264 12.5385L19.916 12.298ZM9.70926 6.40514L9.14581 5.91015L9.12172 5.93757L9.10041 5.9672L9.70926 6.40514ZM15.2673 4.06403L15.1802 4.80895L15.6702 4.86624L15.9168 4.43903L15.2673 4.06403ZM17.9854 20.0368L17.238 20.0989L17.238 20.0989L17.9854 20.0368ZM17.666 16.1951L17.0165 15.8201L16.8991 16.0234L16.9186 16.2573L17.666 16.1951ZM3.89695 11.9604L4.27996 12.6052L4.27996 12.6052L3.89695 11.9604ZM7.06843 10.0766L7.45145 10.7214L7.58594 10.6415L7.67729 10.5146L7.06843 10.0766ZM3.41891 14.8978L15.7063 21.9919L16.4563 20.6929L4.16891 13.5987L3.41891 14.8978ZM15.7063 21.9919C16.2903 22.3291 16.9213 22.3499 17.4707 22.0947C17.9935 21.8518 18.3752 21.3929 18.5999 20.8802L17.2259 20.2783C17.1124 20.5375 16.9576 20.6791 16.8388 20.7343C16.7466 20.7771 16.6308 20.7936 16.4563 20.6929L15.7063 21.9919ZM2.99491 11.7574C2.63667 12.2111 2.40686 12.7821 2.44394 13.3712C2.48302 13.9922 2.81647 14.5499 3.41891 14.8978L4.16891 13.5987C3.99098 13.496 3.94775 13.3846 3.94098 13.277C3.93221 13.1377 3.98739 12.9209 4.17212 12.687L2.99491 11.7574ZM16.1386 4.05494C16.5528 3.3375 17.4702 3.09169 18.1876 3.5059L18.9376 2.20686C17.5027 1.37844 15.668 1.87006 14.8396 3.30494L16.1386 4.05494ZM18.1876 3.5059C18.9051 3.92011 19.1509 4.8375 18.7367 5.55494L20.0357 6.30494C20.8641 4.87006 20.3725 3.03529 18.9376 2.20686L18.1876 3.5059ZM18.5629 6.76193C19.3756 7.85351 19.5535 9.15338 19.5068 10.2352C19.4837 10.7709 19.406 11.2349 19.3343 11.5637C19.2985 11.7275 19.2646 11.8562 19.2404 11.9415C19.2283 11.9841 19.2187 12.0158 19.2126 12.0355C19.2095 12.0454 19.2073 12.0522 19.2061 12.0559C19.2055 12.0578 19.2051 12.0589 19.205 12.0591C19.205 12.0593 19.205 12.0592 19.2051 12.0589C19.2052 12.0588 19.2052 12.0586 19.2053 12.0584C19.2053 12.0583 19.2054 12.0581 19.2054 12.058C19.2055 12.0578 19.2056 12.0575 19.916 12.298C20.6264 12.5385 20.6265 12.5382 20.6266 12.5379C20.6266 12.5378 20.6267 12.5375 20.6268 12.5373C20.6269 12.5369 20.6271 12.5364 20.6273 12.5358C20.6277 12.5347 20.6281 12.5334 20.6286 12.5319C20.6296 12.5288 20.6309 12.525 20.6324 12.5203C20.6355 12.5109 20.6395 12.4982 20.6445 12.4824C20.6543 12.4508 20.6677 12.4065 20.6836 12.3506C20.7152 12.2389 20.7568 12.0803 20.7998 11.8835C20.8854 11.4909 20.9778 10.9398 21.0054 10.2999C21.0602 9.03084 20.8624 7.33872 19.766 5.86614L18.5629 6.76193ZM19.8139 6.68903L20.0357 6.30494L18.7367 5.55494L18.5149 5.93903L19.8139 6.68903ZM9.70926 6.40514C10.2727 6.90014 10.2725 6.90033 10.2724 6.90051C10.2724 6.90056 10.2722 6.90073 10.2721 6.90082C10.272 6.901 10.2718 6.90115 10.2717 6.90126C10.2715 6.90147 10.2715 6.90152 10.2716 6.90141C10.2718 6.9012 10.2725 6.90035 10.2738 6.8989C10.2765 6.896 10.2813 6.89067 10.2883 6.88308C10.3023 6.8679 10.3249 6.84374 10.3558 6.81196C10.4176 6.74835 10.512 6.65465 10.636 6.54178C10.8849 6.31526 11.248 6.01594 11.7003 5.72809C12.6138 5.14672 13.8285 4.6509 15.1802 4.80895L15.3544 3.3191C13.5309 3.10588 11.9666 3.78061 10.8949 4.46262C10.3546 4.80647 9.92349 5.16204 9.62636 5.43248C9.47736 5.5681 9.36085 5.68341 9.27994 5.76668C9.23946 5.80835 9.20779 5.84209 9.18533 5.86646C9.17409 5.87865 9.16515 5.88851 9.15855 5.89585C9.15525 5.89952 9.15253 5.90256 9.15041 5.90495C9.14935 5.90614 9.14843 5.90718 9.14766 5.90804C9.14728 5.90848 9.14693 5.90887 9.14663 5.90922C9.14647 5.9094 9.14627 5.90963 9.14619 5.90972C9.146 5.90994 9.14581 5.91015 9.70926 6.40514ZM15.9168 4.43903L16.1386 4.05494L14.8396 3.30494L14.6178 3.68903L15.9168 4.43903ZM18.7328 19.9747L18.4134 16.133L16.9186 16.2573L17.238 20.0989L18.7328 19.9747ZM18.3155 16.5701L20.5655 12.673L19.2665 11.923L17.0165 15.8201L18.3155 16.5701ZM4.27996 12.6052L7.45145 10.7214L6.68542 9.43179L3.51394 11.3156L4.27996 12.6052ZM7.67729 10.5146L10.3181 6.84309L9.10041 5.9672L6.45958 9.63867L7.67729 10.5146ZM18.5999 20.8802C18.742 20.5556 18.754 20.2297 18.7328 19.9747L17.238 20.0989C17.2475 20.213 17.2323 20.2637 17.2259 20.2783L18.5999 20.8802ZM4.17212 12.687C4.18038 12.6766 4.20771 12.6481 4.27996 12.6052L3.51394 11.3156C3.35024 11.4128 3.15674 11.5525 2.99491 11.7574L4.17212 12.687Z" fill="#1BC5AC"/>
</g>
<defs>
<clipPath id="clip0_51_22343">
<rect width="24" height="24" fill="white"/>
</clipPath>
</defs>
</svg>
