<svg width="40" height="40" viewBox="0 0 40 40" fill="none" xmlns="http://www.w3.org/2000/svg">
<path d="M4.50767 4.54801L4.50771 4.54797C8.11498 0.943426 13.3372 0.5 20 0.5C26.6544 0.5 31.869 0.938432 35.4778 4.53344C39.0927 8.1361 39.5 13.3523 39.5 20.0193C39.5 26.6793 39.097 31.8908 35.4902 35.4949L35.4901 35.4949C31.8839 39.0991 26.6661 39.5 20 39.5C13.3339 39.5 8.11535 39.0991 4.50917 35.4949L4.5091 35.4949C0.902337 31.8915 0.5 26.6794 0.5 20.0193C0.5 13.3606 0.90234 8.14992 4.50767 4.54801Z" fill="#F0FCFA" stroke="url(#paint0_linear_131_12996)"/>
<ellipse cx="20.2559" cy="19.7452" rx="4.59574" ry="4.59575" fill="white"/>
<path d="M20 26.75C21.335 26.75 22.6401 26.3541 23.7501 25.6124C24.8601 24.8707 25.7253 23.8165 26.2362 22.5831C26.7471 21.3497 26.8808 19.9925 26.6203 18.6831C26.3599 17.3738 25.717 16.171 24.773 15.227C23.829 14.283 22.6262 13.6402 21.3169 13.3797C20.0075 13.1193 18.6503 13.2529 17.4169 13.7638C16.1835 14.2747 15.1293 15.1399 14.3876 16.2499C13.6459 17.3599 13.25 18.665 13.25 20C13.2527 21.7894 13.9647 23.5047 15.23 24.77C16.4953 26.0353 18.2106 26.7473 20 26.75ZM19.25 17.75C19.25 17.5511 19.329 17.3603 19.4697 17.2197C19.6103 17.079 19.8011 17 20 17C20.1989 17 20.3897 17.079 20.5303 17.2197C20.671 17.3603 20.75 17.5511 20.75 17.75V19.685L22.1225 21.0575C22.2628 21.1989 22.3413 21.3902 22.3409 21.5894C22.3405 21.7886 22.2612 21.9795 22.1203 22.1203C21.9795 22.2612 21.7886 22.3405 21.5894 22.3409C21.3902 22.3413 21.1989 22.2628 21.0575 22.1225L19.4675 20.5325C19.3299 20.3891 19.2521 20.1987 19.25 20V17.75Z" fill="#1BC5AC"/>
<path d="M20.0001 9.50002C19.8012 9.50002 19.6104 9.57903 19.4698 9.71969C19.3291 9.86034 19.2501 10.0511 19.2501 10.25C19.2501 10.4489 19.3291 10.6397 19.4698 10.7803C19.6104 10.921 19.8012 11 20.0001 11C22.0997 10.9913 24.1368 11.714 25.7615 13.0438C27.3863 14.3736 28.4974 16.2276 28.9039 18.2875C29.3105 20.3473 28.9871 22.4845 27.9894 24.3319C26.9917 26.1793 25.382 27.6217 23.4365 28.4114C21.4911 29.201 19.3314 29.2887 17.3284 28.6594C15.3253 28.03 13.6039 26.7228 12.4598 24.9624C11.3156 23.2019 10.8201 21.098 11.0583 19.012C11.2965 16.926 12.2536 14.988 13.7653 13.5308L13.7144 13.9187C13.6886 14.116 13.7421 14.3154 13.8633 14.4732C13.9845 14.631 14.1634 14.7341 14.3607 14.76C14.558 14.7859 14.7574 14.7323 14.9152 14.6111C15.0729 14.4899 15.1761 14.311 15.202 14.1137L15.4939 11.8828C15.5117 11.6869 15.455 11.4916 15.3352 11.3357C15.2153 11.1798 15.041 11.0749 14.8471 11.0419L12.6162 10.7503C12.5172 10.7345 12.416 10.7388 12.3187 10.7628C12.2214 10.7868 12.1298 10.8301 12.0495 10.8901C11.9692 10.9501 11.9017 11.0256 11.8511 11.1121C11.8005 11.1987 11.7677 11.2945 11.7547 11.3939C11.7417 11.4933 11.7488 11.5943 11.7755 11.6909C11.8023 11.7875 11.8481 11.8778 11.9103 11.9564C11.9725 12.035 12.0499 12.1004 12.1378 12.1486C12.2257 12.1968 12.3224 12.2269 12.4221 12.2371L12.8891 12.2983C11.0987 13.9597 9.94466 16.1943 9.62646 18.616C9.30825 21.0377 9.84582 23.4946 11.1463 25.5621C12.4468 27.6297 14.4285 29.1781 16.7492 29.94C19.0699 30.7019 21.5838 30.6294 23.8567 29.735C26.1296 28.8405 28.0188 27.1804 29.1979 25.0413C30.377 22.9022 30.772 20.4185 30.3147 18.0191C29.8574 15.6198 28.5765 13.4554 26.6933 11.9C24.81 10.3446 22.4426 9.4957 20.0001 9.50002Z" fill="#040C22"/>
<defs>
<linearGradient id="paint0_linear_131_12996" x1="20" y1="26.6667" x2="20" y2="-13.75" gradientUnits="userSpaceOnUse">
<stop stop-color="#C0F3EB"/>
<stop offset="1" stop-color="#FBFFFE"/>
</linearGradient>
</defs>
</svg>
