<svg width="47" height="46" viewBox="0 0 47 46" fill="none" xmlns="http://www.w3.org/2000/svg">
<path d="M41.2667 5.24306L41.2667 5.24299C36.9509 0.943562 30.7701 0.5 23.5 0.5C16.2203 0.5 10.0305 0.949041 5.71633 5.25999C1.40166 9.57058 1 15.7539 1 23.0212C1 30.29 1.40166 36.4749 5.71783 40.7871C10.0331 45.0999 16.2251 45.5 23.5 45.5C30.7749 45.5 36.9661 45.0999 41.2814 40.7871C45.5975 36.4742 46 30.2902 46 23.0212C46 15.7442 45.5928 9.5544 41.2667 5.24306Z" fill="#D3F6F1" stroke="url(#paint0_linear_1_1382)"/>
<path d="M26.3876 33.1752H31.3719C33.0238 33.1752 34.3626 31.3901 34.3626 29.1877V25.2002" stroke="#040C22" stroke-width="1.5" stroke-miterlimit="10" stroke-linecap="square"/>
<path d="M37.0208 25.5293C37.0208 26.0816 36.573 26.5293 36.0208 26.5293H34.3624V21.2126H35.9574C36.5447 21.2126 37.0208 21.8928 37.0208 22.7317V25.5293Z" fill="#040C22" stroke="#040C22" stroke-width="1.5" stroke-miterlimit="10" stroke-linecap="square"/>
<path d="M10.4374 25.9722C10.4374 26.5245 10.8851 26.9722 11.4374 26.9722H12.0957C12.648 26.9722 13.0957 26.5245 13.0957 25.9722V21.6555H11.5007C10.9135 21.6555 10.4374 22.3357 10.4374 23.1745V25.9722Z" fill="#040C22" stroke="#040C22" stroke-width="1.5" stroke-miterlimit="10" stroke-linecap="square"/>
<path d="M34.3624 20.7694V19.7222C34.3624 13.9384 29.6018 9.25 23.729 9.25C17.8562 9.25 13.0957 13.9384 13.0957 19.7222V20.7694" stroke="#040C22" stroke-width="1.5" stroke-miterlimit="10" stroke-linecap="square"/>
<path d="M16.7632 26.9723H22.9685V25.0989H19.5711V25.0379L20.5739 23.9768C22.3913 22.1597 22.8661 21.2348 22.8661 20.1314C22.8661 18.3989 21.6341 17.2251 19.7307 17.2251C17.8765 17.2251 16.6363 18.4505 16.6404 20.4084H18.5601C18.5601 19.5398 19.0267 19.0374 19.7226 19.0374C20.4061 19.0374 20.9014 19.521 20.9014 20.3145C20.9014 21.0329 20.5085 21.5212 19.8208 22.2302L16.7632 25.3008V26.9723Z" fill="#1BC5AC"/>
<path d="M23.8311 25.376H27.8793V26.9723H29.8153V25.376H30.8182V23.5448H29.8153V17.3566H27.2653L23.8311 23.5636V25.376ZM27.9202 23.5448H25.8449V23.4697L27.8547 19.8168H27.9202V23.5448Z" fill="#1BC5AC"/>
<rect x="22.4001" y="30.5166" width="5.31667" height="5.31667" rx="2.65833" fill="#040C22"/>
<defs>
<linearGradient id="paint0_linear_1_1382" x1="23.5" y1="48.6667" x2="44.5384" y2="-6.03329" gradientUnits="userSpaceOnUse">
<stop stop-color="#C0F3EB"/>
<stop offset="1" stop-color="#FBFFFE"/>
</linearGradient>
</defs>
</svg>
