<svg width="12" height="12" viewBox="0 0 12 12" fill="none" xmlns="http://www.w3.org/2000/svg">
<rect width="12" height="12" fill="white"/>
<circle cx="6" cy="6" r="4.875" stroke="#040C22" stroke-width="0.75" stroke-linecap="round" stroke-linejoin="round"/>
<path d="M5.8916 9.375H6.3873L6.38994 8.78174C7.50527 8.7 8.14336 8.06191 8.14336 7.20762C8.14336 6.23467 7.27588 5.85762 6.59033 5.68887L6.39785 5.63877L6.40312 3.946C6.89619 4.01191 7.23369 4.28613 7.28379 4.71855H8.06953C8.04844 3.91436 7.38398 3.31318 6.40576 3.23408L6.4084 2.625H5.9127L5.91006 3.23936C4.96348 3.33428 4.27002 3.9249 4.27002 4.77656C4.27002 5.52803 4.80791 5.96836 5.67539 6.20303L5.90215 6.26367L5.89687 8.05928C5.38271 7.996 4.98457 7.7165 4.94238 7.20762H4.125C4.1751 8.11729 4.83164 8.70264 5.89424 8.78174L5.8916 9.375ZM6.39258 8.05928L6.39785 6.40078C6.93311 6.54844 7.33652 6.74355 7.33652 7.19971C7.33652 7.66113 6.95156 7.98545 6.39258 8.05928ZM5.90478 5.50693C5.51191 5.39092 5.07949 5.18262 5.08213 4.7291C5.08213 4.33359 5.3959 4.0251 5.90742 3.94863L5.90478 5.50693Z" fill="#040C22"/>
</svg>
