<svg width="40" height="40" viewBox="0 0 40 40" fill="none" xmlns="http://www.w3.org/2000/svg">
<path d="M4.50767 4.54801L4.50771 4.54797C8.11498 0.943426 13.3372 0.5 20 0.5C26.6544 0.5 31.869 0.938432 35.4778 4.53344C39.0927 8.1361 39.5 13.3523 39.5 20.0193C39.5 26.6793 39.097 31.8908 35.4902 35.4949L35.4901 35.4949C31.8839 39.0991 26.6661 39.5 20 39.5C13.3339 39.5 8.11535 39.0991 4.50917 35.4949L4.5091 35.4949C0.902337 31.8915 0.5 26.6794 0.5 20.0193C0.5 13.3606 0.90234 8.14992 4.50767 4.54801Z" fill="#F0FCFA" stroke="url(#paint0_linear_131_13029)"/>
<path d="M24.5 26.7504C25.7428 26.7504 26.75 27.7577 26.75 29.0004C26.75 30.2432 27.7572 31.2504 29 31.2504C30.2428 31.2504 31.25 30.2432 31.25 29.0004V11.7744C31.25 10.1176 29.9069 8.77441 28.25 8.77441H17.75C16.0931 8.77441 14.75 10.1176 14.75 11.7744V26.7504" fill="white"/>
<path d="M24.5 26.7504C25.7427 26.7504 26.75 27.7577 26.75 29.0004C26.75 30.2432 27.7573 31.2504 29 31.2504C30.2427 31.2504 31.25 30.2432 31.25 29.0004V11.7744C31.25 10.1176 29.9069 8.77441 28.25 8.77441H17.75C16.0931 8.77441 14.75 10.1176 14.75 11.7744V26.7504" stroke="#040C22" stroke-width="1.5" stroke-miterlimit="10"/>
<path d="M22.25 29C22.25 27.7573 23.2572 26.75 24.5 26.75H11C9.75725 26.75 8.75 27.7573 8.75 29V30.25C8.75 30.8023 9.19772 31.25 9.75 31.25H21.25C21.8023 31.25 22.25 30.8023 22.25 30.25V29Z" fill="white" stroke="#040C22" stroke-width="1.5" stroke-miterlimit="10"/>
<path d="M19.25 13.25H26.75" stroke="#1BC5AC" stroke-width="1.5" stroke-miterlimit="10" stroke-linecap="round"/>
<path d="M19.25 17.75H26.75" stroke="#1BC5AC" stroke-width="1.5" stroke-miterlimit="10" stroke-linecap="round"/>
<path d="M19.25 22.25H26.75" stroke="#1BC5AC" stroke-width="1.5" stroke-miterlimit="10" stroke-linecap="round"/>
<defs>
<linearGradient id="paint0_linear_131_13029" x1="20" y1="26.6667" x2="20" y2="-13.75" gradientUnits="userSpaceOnUse">
<stop stop-color="#C0F3EB"/>
<stop offset="1" stop-color="#FBFFFE"/>
</linearGradient>
</defs>
</svg>
