<svg width="50" height="50" viewBox="0 0 50 50" fill="none" xmlns="http://www.w3.org/2000/svg">
<path d="M44.3498 5.66099L44.3497 5.66092C39.6566 0.985562 32.9331 0.5 25 0.5C17.0564 0.5 10.3232 0.991574 5.63172 5.67946C0.939943 10.3668 0.5 17.0927 0.5 25.0231C0.5 32.9553 0.939943 39.6829 5.6334 44.3719C10.3259 49.0618 17.0612 49.5 25 49.5C32.9388 49.5 39.6732 49.0618 44.3657 44.372C49.0592 39.6821 49.5 32.9554 49.5 25.0231C49.5 17.0821 49.054 10.3492 44.3498 5.66099Z" fill="white" stroke="url(#paint0_linear_131_12445)"/>
<circle cx="25.1508" cy="13.6" r="6.85" fill="#006253" stroke="#1BC5AC" stroke-width="1.5"/>
<path d="M23.6663 16.3327C23.6663 17.066 24.2663 17.666 24.9996 17.666C25.7329 17.666 26.3329 17.066 26.3329 16.3327V13.9993H27.7325C27.9912 13.9993 28.1286 13.6938 27.957 13.5003L25.224 10.4191C25.1047 10.2845 24.8945 10.2845 24.7752 10.4191L22.0423 13.5003C21.8706 13.6938 22.008 13.9993 22.2667 13.9993H23.6663V16.3327Z" fill="white"/>
<rect x="10" y="19.4004" width="30.3" height="17" rx="4" fill="white" stroke="black" stroke-width="2"/>
<rect x="22" y="24" width="15" height="2" rx="1" fill="#1BC5AC"/>
<rect x="13.75" y="39" width="22.8" height="1.5" rx="0.75" fill="#040C22"/>
<rect x="16.5996" y="41.8008" width="17.1" height="1.5" rx="0.75" fill="#040C22"/>
<rect x="22" y="29" width="9" height="2" rx="1" fill="#1BC5AC"/>
<rect x="32" y="29" width="4.75" height="1.9" rx="0.95" fill="#1BC5AC"/>
<path d="M15.6083 31C16.6465 31 17.1866 30.5171 17.4336 30.0849H17.509V30.9156H19.2673V25.3743H20V24.5268H19.2673V24H17.488V24.5268H15.8218V25.3743H17.488V26.6001C17.2494 26.178 16.68 25.6614 15.6041 25.6614C14.1932 25.6614 13 26.5461 13 28.329C13 30.0646 14.1429 31 15.6083 31ZM16.1734 29.8553C15.2984 29.8553 14.8212 29.2272 14.8212 28.3222C14.8212 27.424 15.2901 26.8061 16.1734 26.8061C17.0401 26.8061 17.5257 27.397 17.5257 28.3222C17.5257 29.2475 17.0317 29.8553 16.1734 29.8553Z" fill="#1BC5AC"/>
<defs>
<linearGradient id="paint0_linear_131_12445" x1="25" y1="53" x2="47.951" y2="-6.67268" gradientUnits="userSpaceOnUse">
<stop stop-color="#C0F3EB"/>
<stop offset="1" stop-color="#FBFFFE"/>
</linearGradient>
</defs>
</svg>
