<svg width="88" height="88" viewBox="0 0 88 88" fill="none" xmlns="http://www.w3.org/2000/svg">
<g filter="url(#filter0_d_131_13820)">
<circle cx="44" cy="44" r="32" fill="url(#paint0_linear_131_13820)"/>
<circle cx="44" cy="44" r="31.5" stroke="#6CE2D1"/>
</g>
<path fill-rule="evenodd" clip-rule="evenodd" d="M50.6566 32.23C50.4279 26.9099 46.0425 22.667 40.666 22.667C35.1432 22.667 30.666 27.1441 30.666 32.667C30.666 34.5315 31.1763 36.2769 32.0649 37.771L30.666 42.667L35.562 41.2681C36.9388 42.0869 38.5289 42.5845 40.2291 42.6576C41.1285 46.4846 44.5646 49.3337 48.666 49.3337C50.4451 49.3337 52.099 48.7976 53.475 47.8781L57.7933 48.9066L56.5911 44.6177L56.1301 45.074C56.8942 43.7828 57.3327 42.2761 57.3327 40.667C57.3327 36.5655 54.4836 33.1295 50.6566 32.23Z" fill="white"/>
<path d="M58.6673 41.1846C58.6673 36.909 55.7864 33.1734 51.7238 32.0477C51.4685 26.0963 46.5477 21.333 40.5345 21.333C34.3584 21.333 29.334 26.3574 29.334 32.5335C29.334 34.5463 29.8698 36.5061 30.8871 38.2267L29.3752 43.6926L34.8414 42.1809C36.4229 43.1161 38.207 43.643 40.0484 43.7224C41.1739 47.7852 44.9097 50.6663 49.1855 50.6663C50.8922 50.6663 52.5519 50.2118 54.0101 49.3482L58.6259 50.6249L57.3492 46.0092C58.2128 44.5509 58.6673 42.8912 58.6673 41.1846ZM35.1126 40.3225L31.8403 41.2278L32.7455 37.9554L32.5392 37.6327C31.5668 36.1113 31.0527 34.3481 31.0527 32.5335C31.0527 27.3052 35.3062 23.0518 40.5345 23.0518C45.7628 23.0518 50.0163 27.3052 50.0163 32.5335C50.0163 37.7618 45.7628 42.0153 40.5345 42.0153C38.72 42.0153 36.9569 41.5012 35.4353 40.5288L35.1126 40.3225ZM56.161 48.1601L53.7328 47.4882L53.4086 47.6993C52.1515 48.5159 50.691 48.9476 49.1855 48.9476C45.825 48.9476 42.8721 46.7748 41.8258 43.6591C46.9718 43.0658 51.0668 38.9708 51.6603 33.8246C54.7757 34.8711 56.9486 37.8241 56.9486 41.1846C56.9486 42.69 56.5169 44.1505 55.7002 45.4076L55.4892 45.7319L56.161 48.1601Z" fill="#040C22"/>
<path d="M39.6758 37.7188C39.6758 37.2441 40.0605 36.8594 40.5352 36.8594C41.0098 36.8594 41.3945 37.2441 41.3945 37.7188C41.3945 38.1934 41.0098 38.5781 40.5352 38.5781C40.0605 38.5781 39.6758 38.1934 39.6758 37.7188Z" fill="#1BC5AC" stroke="#1BC5AC" stroke-width="0.7"/>
<path d="M42.2539 29.9268C42.2539 30.4149 42.0552 30.8654 41.6944 31.1955L39.6758 33.0431V35.1403H41.3945V33.8L42.8548 32.4635C43.5651 31.8134 43.9727 30.8889 43.9727 29.9268C43.9727 28.0312 42.4307 26.4893 40.5352 26.4893C38.6396 26.4893 37.0977 28.0312 37.0977 29.9268H38.8164C38.8164 28.979 39.5874 28.208 40.5352 28.208C41.4829 28.208 42.2539 28.979 42.2539 29.9268Z" fill="#1BC5AC" stroke="#1BC5AC" stroke-width="0.7"/>
<path d="M28.7891 63H30.2383V59.6016H33.9453V63H35.3984V55H33.9453V58.3867H30.2383V55H28.7891V63ZM39.5293 63.1172C41.2871 63.1172 42.4043 61.8789 42.4043 60.0234C42.4043 58.1641 41.2871 56.9219 39.5293 56.9219C37.7715 56.9219 36.6543 58.1641 36.6543 60.0234C36.6543 61.8789 37.7715 63.1172 39.5293 63.1172ZM39.5371 61.9844C38.5645 61.9844 38.0879 61.1172 38.0879 60.0195C38.0879 58.9219 38.5645 58.043 39.5371 58.043C40.4941 58.043 40.9707 58.9219 40.9707 60.0195C40.9707 61.1172 40.4941 61.9844 39.5371 61.9844ZM39.9434 55.1875H39.0996L37.498 56.4258H38.5996L39.5215 55.707L40.4551 56.4258H41.541L39.9434 55.1875ZM40.4121 53.8437C40.4121 54.0352 40.2598 54.2422 40.0801 54.2422C39.6895 54.2422 39.3496 53.9023 38.9395 53.9023C38.4668 53.9023 38.1543 54.332 38.1582 54.7422L38.6738 54.8828C38.6699 54.6914 38.8262 54.5039 39.0137 54.5039C39.416 54.5039 39.6465 54.8633 40.1543 54.8633C40.623 54.8633 40.9434 54.4414 40.9434 54.0195L40.4121 53.8437ZM49.3291 57H48.1455V55.5625H46.7314V57H45.8799V58.0937H46.7314V61.4297C46.7236 62.5586 47.5439 63.1133 48.6064 63.082C49.0088 63.0703 49.2861 62.9922 49.4385 62.9414L49.2002 61.8359C49.1221 61.8555 48.9619 61.8906 48.7861 61.8906C48.4307 61.8906 48.1455 61.7656 48.1455 61.1953V58.0937H49.3291V57ZM50.5117 63H51.9258V59.4727C51.9258 58.7109 52.5 58.1719 53.2773 58.1719C53.5156 58.1719 53.8125 58.2148 53.9336 58.2539V56.9531C53.8047 56.9297 53.582 56.9141 53.4258 56.9141C52.7383 56.9141 52.1641 57.3047 51.9453 58H51.8828V57H50.5117V63ZM59.7822 56.6172C59.7822 57.1953 59.708 57.6289 59.3994 57.8438C58.8994 57.2578 58.1572 56.9219 57.2432 56.9219C55.4854 56.9219 54.3682 58.1641 54.3682 60.0234C54.3682 61.8789 55.4854 63.1172 57.2432 63.1172C59.001 63.1172 60.1182 61.8789 60.1182 60.0234C60.1182 59.4375 60.0088 58.9141 59.8018 58.4727C60.4502 58.1719 60.7275 57.5234 60.7275 56.6172H59.7822ZM57.251 61.9844C56.2783 61.9844 55.8018 61.1172 55.8018 60.0195C55.8018 58.9219 56.2783 58.043 57.251 58.043C58.208 58.043 58.6846 58.9219 58.6846 60.0195C58.6846 61.1172 58.208 61.9844 57.251 61.9844ZM57.2471 65.1563C57.6963 65.1563 58.0635 64.8125 58.0635 64.3906C58.0635 63.9648 57.6963 63.6211 57.2471 63.6211C56.7939 63.6211 56.4268 63.9648 56.4268 64.3906C56.4268 64.8125 56.7939 65.1563 57.2471 65.1563Z" fill="#040C22"/>
<defs>
<filter id="filter0_d_131_13820" x="0" y="0" width="88" height="88" filterUnits="userSpaceOnUse" color-interpolation-filters="sRGB">
<feFlood flood-opacity="0" result="BackgroundImageFix"/>
<feColorMatrix in="SourceAlpha" type="matrix" values="0 0 0 0 0 0 0 0 0 0 0 0 0 0 0 0 0 0 127 0" result="hardAlpha"/>
<feMorphology radius="3" operator="dilate" in="SourceAlpha" result="effect1_dropShadow_131_13820"/>
<feOffset/>
<feGaussianBlur stdDeviation="4.5"/>
<feComposite in2="hardAlpha" operator="out"/>
<feColorMatrix type="matrix" values="0 0 0 0 0.105882 0 0 0 0 0.772549 0 0 0 0 0.67451 0 0 0 0.15 0"/>
<feBlend mode="normal" in2="BackgroundImageFix" result="effect1_dropShadow_131_13820"/>
<feBlend mode="normal" in="SourceGraphic" in2="effect1_dropShadow_131_13820" result="shape"/>
</filter>
<linearGradient id="paint0_linear_131_13820" x1="12" y1="76" x2="89.1959" y2="41.6907" gradientUnits="userSpaceOnUse">
<stop stop-color="#AFFFF2"/>
<stop offset="1" stop-color="#FBFFFE"/>
</linearGradient>
</defs>
</svg>
