<svg width="26" height="26" viewBox="0 0 26 26" fill="none" xmlns="http://www.w3.org/2000/svg">
<path d="M18.8896 5.77591L18.889 5.77577C16.9901 5.3402 14.6739 4.50708 13 2.91262C11.3255 4.50768 9.00923 5.34023 7.11085 5.77524L7.1101 5.77542C6.311 5.95766 5.5018 6.09161 4.68682 6.17653L18.8896 5.77591ZM18.8896 5.77591C19.8471 5.99466 20.7001 6.11314 21.3133 6.17711L21.314 6.17718M18.8896 5.77591L21.314 6.17718M21.314 6.17718C21.6253 6.20936 21.9374 6.23281 22.25 6.2475M21.314 6.17718L22.25 6.2475M22.25 6.2475V11.6595C22.25 16.6795 19.6252 21.6922 13 23.7867C9.68804 22.7393 7.37754 20.9644 5.89396 18.8085C4.40849 16.6476 3.75 14.1021 3.75 11.5195V6.24774L3.76278 6.24726L3.76278 6.24731L3.7714 6.24688C4.07705 6.23181 4.38223 6.20835 4.68662 6.17656L22.25 6.2475ZM22.2976 6.19929L22.3055 6.19162M22.2976 6.19929L22.2973 6.19948L22.3055 6.19162M22.2976 6.19929L22.3055 6.19162M22.2976 6.19929L22.3055 6.19162M12.9594 2.87367L12.9595 2.87375L12.9594 2.87367ZM13.0182 23.7924L13.0182 23.7924L13.0182 23.7924Z" fill="white" stroke="#040C22" stroke-width="1.5"/>
<path d="M12.2419 14.7934C11.8512 15.1849 11.217 15.1849 10.8263 14.7934L9.77608 13.7411C9.41217 13.3765 8.82139 13.3765 8.45748 13.7411C8.09459 14.1048 8.09459 14.6935 8.45748 15.0571L10.8263 17.4306C11.217 17.8221 11.8512 17.8221 12.2419 17.4306L18.3441 11.3164C18.707 10.9528 18.707 10.3641 18.3441 10.0004C17.9802 9.63581 17.3894 9.63581 17.0255 10.0004L12.2419 14.7934Z" fill="#1BC5AC"/>
</svg>
