<svg width="24" height="24" viewBox="0 0 24 24" fill="none" xmlns="http://www.w3.org/2000/svg">
<g clip-path="url(#clip0_51_25938)">
<path d="M9.7235 17.6524C8.89508 19.0872 7.06031 19.5789 5.62543 18.7504C4.19055 17.922 3.69892 16.0872 4.52735 14.6524L9.7235 17.6524Z" stroke="#1BC5AC" stroke-width="1.5"/>
<path d="M9.70877 6.40563L9.14532 5.91064L9.12123 5.93806L9.09992 5.96769L9.70877 6.40563ZM19.9155 12.2985L20.565 12.6735L20.6021 12.6092L20.6259 12.539L19.9155 12.2985ZM19.1639 6.31452L18.5144 5.93952L18.2678 6.36674L18.5624 6.76242L19.1639 6.31452ZM15.2668 4.06452L15.1797 4.80944L15.6697 4.86673L15.9163 4.43952L15.2668 4.06452ZM17.6655 16.1956L17.016 15.8206L16.8986 16.0239L16.9181 16.2577L17.6655 16.1956ZM7.06794 10.0771L7.45096 10.7219L7.58546 10.642L7.6768 10.515L7.06794 10.0771ZM17.9124 20.5798L18.5994 20.8807L17.9124 20.5798ZM17.9849 20.0373L17.2375 20.0994L17.9849 20.0373ZM3.89646 11.9609L3.51345 11.3161L3.89646 11.9609ZM3.41843 14.8983L15.7059 21.9924L16.4559 20.6934L4.16843 13.5992L3.41843 14.8983ZM15.7059 21.9924C16.2899 22.3296 16.9208 22.3504 17.4703 22.0952C17.993 21.8523 18.3748 21.3934 18.5994 20.8807L17.2254 20.2788C17.1119 20.5379 16.9571 20.6796 16.8383 20.7348C16.7461 20.7776 16.6303 20.7941 16.4559 20.6934L15.7059 21.9924ZM2.99443 11.7579C2.63618 12.2116 2.40637 12.7826 2.44345 13.3717C2.48253 13.9926 2.81598 14.5504 3.41843 14.8983L4.16843 13.5992C3.99049 13.4965 3.94726 13.385 3.94049 13.2775C3.93172 13.1381 3.98691 12.9214 4.17163 12.6875L2.99443 11.7579ZM16.1381 4.05543C16.5523 3.33799 17.4697 3.09218 18.1871 3.50639L18.9371 2.20735C17.5023 1.37892 15.6675 1.87055 14.8391 3.30543L16.1381 4.05543ZM18.1871 3.50639C18.9046 3.9206 19.1504 4.83799 18.7362 5.55543L20.0352 6.30543C20.8636 4.87055 20.372 3.03578 18.9371 2.20735L18.1871 3.50639ZM18.5624 6.76242C19.3751 7.854 19.5531 9.15387 19.5063 10.2357C19.4832 10.7713 19.4055 11.2354 19.3338 11.5642C19.298 11.728 19.2641 11.8567 19.2399 11.942C19.2279 11.9846 19.2182 12.0163 19.2121 12.036C19.209 12.0459 19.2068 12.0527 19.2056 12.0564C19.205 12.0583 19.2046 12.0594 19.2046 12.0596C19.2045 12.0598 19.2045 12.0597 19.2046 12.0594C19.2047 12.0593 19.2047 12.0591 19.2048 12.0589C19.2048 12.0588 19.2049 12.0585 19.2049 12.0585C19.205 12.0583 19.2051 12.058 19.9155 12.2985C20.6259 12.539 20.626 12.5387 20.6261 12.5384C20.6261 12.5383 20.6262 12.538 20.6263 12.5378C20.6265 12.5373 20.6266 12.5368 20.6268 12.5363C20.6272 12.5352 20.6276 12.5339 20.6281 12.5324C20.6291 12.5293 20.6304 12.5255 20.6319 12.5208C20.635 12.5114 20.639 12.4987 20.644 12.4829C20.6539 12.4513 20.6672 12.407 20.6831 12.3511C20.7148 12.2394 20.7564 12.0808 20.7993 11.884C20.885 11.4914 20.9773 10.9403 21.005 10.3004C21.0597 9.03132 20.8619 7.33921 19.7655 5.86662L18.5624 6.76242ZM19.8135 6.68952L20.0352 6.30543L18.7362 5.55543L18.5144 5.93952L19.8135 6.68952ZM9.70877 6.40563C10.2722 6.90063 10.2721 6.90082 10.2719 6.901C10.2719 6.90104 10.2717 6.90121 10.2716 6.90131C10.2715 6.90149 10.2713 6.90164 10.2712 6.90174C10.2711 6.90196 10.271 6.90201 10.2711 6.9019C10.2713 6.90169 10.272 6.90084 10.2734 6.89939C10.276 6.89649 10.2808 6.89116 10.2878 6.88357C10.3018 6.86839 10.3244 6.84422 10.3553 6.81245C10.4171 6.74884 10.5115 6.65514 10.6355 6.54227C10.8844 6.31575 11.2475 6.01642 11.6998 5.72858C12.6133 5.14721 13.828 4.65138 15.1797 4.80944L15.3539 3.31959C13.5304 3.10637 11.9661 3.7811 10.8944 4.46311C10.3541 4.80695 9.923 5.16252 9.62587 5.43297C9.47687 5.56859 9.36037 5.68389 9.27946 5.76717C9.23897 5.80884 9.2073 5.84258 9.18484 5.86695C9.1736 5.87914 9.16466 5.889 9.15806 5.89633C9.15476 5.9 9.15205 5.90304 9.14992 5.90544C9.14886 5.90663 9.14794 5.90766 9.14718 5.90853C9.14679 5.90897 9.14645 5.90936 9.14614 5.90971C9.14598 5.90989 9.14578 5.91012 9.1457 5.91021C9.14551 5.91043 9.14532 5.91064 9.70877 6.40563ZM15.9163 4.43952L16.1381 4.05543L14.8391 3.30543L14.6173 3.68952L15.9163 4.43952ZM18.7323 19.9752L18.4129 16.1335L16.9181 16.2577L17.2375 20.0994L18.7323 19.9752ZM18.315 16.5706L20.565 12.6735L19.266 11.9235L17.016 15.8206L18.315 16.5706ZM4.27947 12.6057L7.45096 10.7219L6.68493 9.43227L3.51345 11.3161L4.27947 12.6057ZM7.6768 10.515L10.3176 6.84357L9.09992 5.96769L6.45909 9.63916L7.6768 10.515ZM18.5994 20.8807C18.7416 20.5561 18.7535 20.2302 18.7323 19.9752L17.2375 20.0994C17.247 20.2135 17.2318 20.2641 17.2254 20.2788L18.5994 20.8807ZM4.17163 12.6875C4.17989 12.6771 4.20722 12.6486 4.27947 12.6057L3.51345 11.3161C3.34975 11.4133 3.15625 11.553 2.99443 11.7579L4.17163 12.6875Z" fill="#5C616F"/>
</g>
<defs>
<clipPath id="clip0_51_25938">
<rect width="24" height="24" fill="white"/>
</clipPath>
</defs>
</svg>
