<svg width="28" height="29" viewBox="0 0 28 29" fill="none" xmlns="http://www.w3.org/2000/svg">
<path fill-rule="evenodd" clip-rule="evenodd" d="M24.6857 3.82102C22.1386 1.2835 18.4757 1 14 1C9.51848 1 5.85034 1.28688 3.30414 3.83114C0.758429 6.37445 0.5 10.0368 0.5 14.513C0.5 18.9902 0.758429 22.6535 3.30511 25.1978C5.8513 27.7425 9.51896 28 14 28C18.481 28 22.1482 27.7425 24.6944 25.1978C27.2411 22.653 27.5 18.9902 27.5 14.513C27.5 10.031 27.2382 6.3648 24.6857 3.82102Z" fill="#D3F6F1" stroke="url(#paint0_linear_5372_27697)" stroke-width="0.5625"/>
<path d="M15.772 20.7437H18.8306C19.8442 20.7437 20.6657 19.6483 20.6657 18.2969V15.85" stroke="#040C22" stroke-width="1.125" stroke-miterlimit="10" stroke-linecap="square"/>
<path d="M22.2968 16.1031C22.2968 16.4137 22.0449 16.6656 21.7343 16.6656H20.6655V13.4031H21.6443C22.0046 13.4031 22.2968 13.8205 22.2968 14.3352V16.1031Z" fill="#040C22" stroke="#040C22" stroke-width="1.125" stroke-miterlimit="10" stroke-linecap="square"/>
<path d="M5.98447 16.375C5.98447 16.6857 6.23631 16.9375 6.54697 16.9375H7.05322C7.36388 16.9375 7.61572 16.6857 7.61572 16.375V13.675H6.63697C6.27663 13.675 5.98447 14.0924 5.98447 14.6071V16.375Z" fill="#040C22" stroke="#040C22" stroke-width="1.125" stroke-miterlimit="10" stroke-linecap="square"/>
<path d="M20.6657 13.1312V12.4886C20.6657 8.93948 17.7445 6.0625 14.1407 6.0625C10.537 6.0625 7.61572 8.93948 7.61572 12.4886V13.1312" stroke="#040C22" stroke-width="1.125" stroke-miterlimit="10" stroke-linecap="square"/>
<path d="M9.86589 16.9375H13.6737V15.7879H11.5889V15.7505L12.2043 15.0993C13.3195 13.9843 13.6109 13.4167 13.6109 12.7397C13.6109 11.6765 12.8548 10.9562 11.6869 10.9562C10.5491 10.9562 9.78802 11.7082 9.79053 12.9097H10.9685C10.9685 12.3766 11.2549 12.0684 11.6819 12.0684C12.1013 12.0684 12.4052 12.3651 12.4052 12.852C12.4052 13.2928 12.1641 13.5925 11.7421 14.0275L9.86589 15.9118V16.9375Z" fill="#1BC5AC"/>
<path d="M14.203 15.9579H16.6871V16.9375H17.8752V15.9579H18.4905V14.8343H17.8752V11.0369H16.3103L14.203 14.8458V15.9579ZM16.7122 14.8343H15.4388V14.7882L16.672 12.5466H16.7122V14.8343Z" fill="#1BC5AC"/>
<rect x="13.3252" y="19.1125" width="3.2625" height="3.2625" rx="1.63125" fill="#040C22"/>
<defs>
<linearGradient id="paint0_linear_5372_27697" x1="14" y1="30.25" x2="26.91" y2="-3.31588" gradientUnits="userSpaceOnUse">
<stop stop-color="#C0F3EB"/>
<stop offset="1" stop-color="#FBFFFE"/>
</linearGradient>
</defs>
</svg>
