<svg width="20" height="21" viewBox="0 0 20 21" fill="none" xmlns="http://www.w3.org/2000/svg">
<path d="M10 20.002C7.32891 20.002 4.81766 18.9618 2.92891 17.073C1.04016 15.1843 0 12.673 0 10.002C0 7.33086 1.0402 4.81965 2.92891 2.93086C4.81762 1.04207 7.32891 0.00195312 10 0.00195312C12.6711 0.00195312 15.1823 1.04211 17.0711 2.93086C18.9598 4.81961 20 7.33086 20 10.002C20 12.673 18.9598 15.1843 17.0711 17.073C15.1824 18.9618 12.6711 20.002 10 20.002ZM10 1.25195C5.17523 1.25195 1.25 5.17719 1.25 10.002C1.25 14.8267 5.17523 18.752 10 18.752C14.8248 18.752 18.75 14.8267 18.75 10.002C18.75 5.17719 14.8248 1.25195 10 1.25195Z" fill="white"/>
<path d="M8.58162 14.1686C8.11073 14.1686 7.70833 14.0922 7.37443 13.9395C7.04052 13.7867 6.76227 13.5745 6.53967 13.3029C6.31707 13.0313 6.15011 12.713 6.03881 12.348C5.92751 11.9746 5.8633 11.5799 5.84618 11.164C5.83761 11.0027 5.83333 10.8584 5.83333 10.7311C5.83333 10.5953 5.83761 10.451 5.84618 10.2983C5.85474 9.89084 5.91467 9.5089 6.02597 9.15242C6.13727 8.78745 6.30422 8.46492 6.52683 8.18482C6.74943 7.90473 7.02768 7.6883 7.36159 7.53552C7.70405 7.37425 8.11073 7.29362 8.58162 7.29362C9.01826 7.29362 9.39498 7.37001 9.71176 7.52279C10.0285 7.66708 10.294 7.85805 10.508 8.0957V6.92441H9.94292C9.85731 6.92441 9.78453 6.8947 9.7246 6.83529C9.66467 6.77587 9.6347 6.69948 9.6347 6.60612V6.18598C9.6347 6.1011 9.66467 6.02896 9.7246 5.96955C9.78453 5.91013 9.85731 5.88043 9.94292 5.88043H10.508V5.32024C10.508 5.22688 10.538 5.15049 10.5979 5.09107C10.6578 5.03166 10.7306 5.00195 10.8162 5.00195H12.139C12.2332 5.00195 12.3102 5.03166 12.3701 5.09107C12.4301 5.15049 12.46 5.22688 12.46 5.32024V5.88043H13.0251C13.1107 5.88043 13.1835 5.91013 13.2434 5.96955C13.3034 6.02896 13.3333 6.1011 13.3333 6.18598V6.60612C13.3333 6.69948 13.3034 6.77587 13.2434 6.83529C13.1835 6.8947 13.1107 6.92441 13.0251 6.92441H12.46V13.723C12.46 13.8164 12.4301 13.8928 12.3701 13.9522C12.3102 14.0116 12.2332 14.0413 12.139 14.0413H10.9189C10.8248 14.0413 10.7477 14.0116 10.6878 13.9522C10.6279 13.8928 10.5979 13.8164 10.5979 13.723V13.2392C10.401 13.5108 10.1356 13.7358 9.80165 13.914C9.47631 14.0837 9.06963 14.1686 8.58162 14.1686ZM9.15953 12.6408C9.48487 12.6408 9.74172 12.5687 9.93008 12.4244C10.127 12.2801 10.2683 12.0976 10.3539 11.877C10.4481 11.6563 10.4994 11.4186 10.508 11.164C10.5166 11.0027 10.5208 10.8415 10.5208 10.6802C10.5208 10.5189 10.5166 10.3619 10.508 10.2091C10.4994 9.97147 10.4438 9.7508 10.341 9.54709C10.2469 9.3349 10.1013 9.1609 9.9044 9.0251C9.71604 8.8893 9.46775 8.8214 9.15953 8.8214C8.84275 8.8214 8.5859 8.89354 8.38898 9.03783C8.20063 9.17364 8.06364 9.35612 7.97802 9.58529C7.90097 9.81445 7.85388 10.0648 7.83676 10.3364C7.81963 10.5996 7.81963 10.8627 7.83676 11.1258C7.85388 11.3974 7.90097 11.6478 7.97802 11.877C8.06364 12.1061 8.20063 12.2928 8.38898 12.4371C8.5859 12.5729 8.84275 12.6408 9.15953 12.6408Z" fill="white"/>
</svg>
