<svg width="30" height="30" viewBox="0 0 30 30" fill="none" xmlns="http://www.w3.org/2000/svg">
<path fill-rule="evenodd" clip-rule="evenodd" d="M26.0814 3.92549C23.4399 1.294 19.6415 1 15 1C10.3525 1 6.54849 1.2975 3.90799 3.93599C1.268 6.57349 1 10.3715 1 15.0135C1 19.6565 1.268 23.4555 3.90899 26.0939C6.54949 28.7329 10.353 28.9999 15 28.9999C19.647 28.9999 23.45 28.7329 26.0904 26.0939C28.7314 23.455 28.9999 19.6565 28.9999 15.0135C28.9999 10.3655 28.7284 6.56349 26.0814 3.92549Z" fill="#D3F6F1" stroke="url(#paint0_linear_5372_27715)" stroke-width="0.583332"/>
<path d="M15.0012 20.726C18.1672 20.726 20.7337 18.1595 20.7337 14.9935C20.7337 11.8274 18.1672 9.26086 15.0012 9.26086C11.8351 9.26086 9.26855 11.8274 9.26855 14.9935C9.26855 18.1595 11.8351 20.726 15.0012 20.726Z" fill="url(#paint1_linear_5372_27715)"/>
<path d="M20.9788 14.9999C20.9788 18.3021 18.3019 20.9791 14.9997 20.9791C11.6975 20.9791 9.02051 18.3021 9.02051 14.9999C9.02051 11.6977 11.6975 9.02075 14.9997 9.02075C18.3019 9.02075 20.9788 11.6977 20.9788 14.9999Z" fill="white" stroke="#1BC5AC" stroke-width="0.874998"/>
<path d="M14.119 18.3827C15.0043 18.3827 15.4648 17.9172 15.6755 17.5006H15.7397V18.3013H17.2391V12.9601H17.8638V12.1431H17.2391V11.6354H15.7219V12.1431H14.3011V12.9601H15.7219V14.1416H15.6755C15.472 13.7347 15.0329 13.2368 14.1155 13.2368C12.9124 13.2368 11.895 14.0895 11.895 15.8081C11.895 17.4811 12.8696 18.3827 14.119 18.3827ZM14.6009 17.2793C13.8549 17.2793 13.4479 16.6739 13.4479 15.8016C13.4479 14.9358 13.8477 14.3401 14.6009 14.3401C15.3399 14.3401 15.754 14.9097 15.754 15.8016C15.754 16.6934 15.3328 17.2793 14.6009 17.2793Z" fill="#1BC5AC"/>
<path d="M23.1444 10.4468C22.9403 10.0859 22.7122 9.73914 22.4619 9.40872L22.1556 9.0013L23.3702 9.44506C23.435 9.46897 23.504 9.47969 23.5731 9.47658C23.6422 9.47346 23.7099 9.45657 23.7724 9.4269C23.8983 9.36752 23.996 9.26138 24.0449 9.13106C24.0696 9.06622 24.081 8.99708 24.0785 8.92774C24.076 8.85841 24.0597 8.79028 24.0304 8.72738C24.0011 8.66447 23.9595 8.60806 23.9081 8.56151C23.8566 8.51495 23.7964 8.4792 23.7309 8.45633L19.9135 7.06793C19.8565 7.04529 19.7957 7.03383 19.7344 7.03419C19.6574 7.03505 19.5814 7.05185 19.5112 7.08351C19.4069 7.13114 19.3213 7.21196 19.2678 7.31337C19.2143 7.41478 19.1959 7.53107 19.2154 7.64406C19.224 7.72149 19.2499 7.79597 19.2913 7.86201C19.3326 7.92805 19.3883 7.98395 19.4541 8.02554C20.9602 8.9896 22.1133 10.4157 22.7408 12.0901C23.3684 13.7646 23.4365 15.5973 22.935 17.3137C22.4334 19.0301 21.3893 20.5378 19.959 21.611C18.5287 22.6842 16.7891 23.2651 15.0009 23.2666C14.8612 23.2666 14.7272 23.3221 14.6284 23.4209C14.5296 23.5197 14.4741 23.6537 14.4741 23.7934C14.4741 23.9331 14.5296 24.0671 14.6284 24.1659C14.7272 24.2647 14.8612 24.3202 15.0009 24.3202C16.6267 24.3202 18.2243 23.8952 19.6352 23.0874C21.0461 22.2795 22.2213 21.1169 23.0443 19.7148C23.8673 18.3127 24.3095 16.7198 24.3271 15.0941C24.3446 13.4684 23.9369 11.8663 23.1444 10.4468Z" fill="black" stroke="black" stroke-width="0.233333"/>
<path d="M10.5454 21.9665C9.0386 21.0022 7.88487 19.5755 7.25706 17.9003C6.62925 16.2251 6.56116 14.3916 7.063 12.6745C7.56484 10.9574 8.60958 9.44907 10.0407 8.37562C11.4718 7.30218 13.2122 6.72137 15.0012 6.72023C15.1409 6.72023 15.2749 6.66472 15.3737 6.56592C15.4725 6.46712 15.528 6.33313 15.528 6.19341C15.528 6.05369 15.4725 5.9197 15.3737 5.8209C15.2749 5.72211 15.1409 5.66663 15.0012 5.66663C13.7763 5.66573 12.5633 5.90663 11.4317 6.37556C10.3001 6.8445 9.27224 7.53221 8.40702 8.39926C6.97256 9.83508 6.0447 11.699 5.76377 13.7091C5.48284 15.7191 5.86412 17.766 6.84996 19.5401C7.05559 19.9 7.28354 20.2467 7.53247 20.5781L7.83869 20.9829L6.62418 20.5418C6.55931 20.5179 6.4903 20.5071 6.42123 20.5103C6.35215 20.5134 6.2844 20.5303 6.22195 20.5599C6.15838 20.5879 6.10108 20.6284 6.05344 20.6789C6.0058 20.7295 5.96878 20.789 5.94458 20.8541C5.92038 20.9192 5.90949 20.9885 5.91256 21.0579C5.91562 21.1273 5.93259 21.1953 5.96243 21.258C6.02377 21.3805 6.13104 21.4738 6.26087 21.5176L10.0757 22.9059C10.1405 22.9306 10.2097 22.9421 10.279 22.9396C10.3483 22.9371 10.4165 22.9207 10.4794 22.8915C10.5423 22.8622 10.5987 22.8206 10.6452 22.7691C10.6918 22.7177 10.7275 22.6574 10.7504 22.5919C10.78 22.5088 10.7889 22.4197 10.7764 22.3324C10.7665 22.2584 10.7407 22.1874 10.7008 22.1242C10.661 22.0611 10.6079 22.0073 10.5454 21.9665Z" fill="black" stroke="black" stroke-width="0.233333"/>
<defs>
<linearGradient id="paint0_linear_5372_27715" x1="15" y1="31.3333" x2="28.388" y2="-3.47572" gradientUnits="userSpaceOnUse">
<stop stop-color="#C0F3EB"/>
<stop offset="1" stop-color="#FBFFFE"/>
</linearGradient>
<linearGradient id="paint1_linear_5372_27715" x1="15.0012" y1="20.4639" x2="15.0012" y2="9.37505" gradientUnits="userSpaceOnUse">
<stop stop-color="white" stop-opacity="0"/>
<stop offset="1" stop-color="white" stop-opacity="0.7"/>
</linearGradient>
</defs>
</svg>
