<svg width="47" height="31" viewBox="0 0 47 31" fill="none" xmlns="http://www.w3.org/2000/svg">
<path d="M20.1527 24.1527C20.8078 24.8078 20.8136 25.8804 20.0767 26.442C18.6156 27.5555 16.9211 28.3376 15.1111 28.7242C12.7521 29.2281 10.2976 29.0387 8.04376 28.1787C5.78996 27.3187 3.83315 25.825 2.40939 23.8776C0.985625 21.9303 0.155739 19.6126 0.0198499 17.2042C-0.116041 14.7957 0.44787 12.3994 1.64355 10.3042C2.83923 8.20912 4.6156 6.50473 6.75836 5.39669C8.90112 4.28864 11.3187 3.82429 13.7195 4.05963C15.5615 4.2402 17.3332 4.82673 18.9103 5.76883C19.7057 6.24394 19.8205 7.31045 19.2433 8.03507C18.6661 8.7597 17.6155 8.86314 16.7978 8.42775C15.7456 7.86759 14.5892 7.51591 13.3922 7.39857C11.6358 7.22639 9.86704 7.56612 8.29939 8.37677C6.73174 9.18742 5.43214 10.4344 4.55738 11.9672C3.68261 13.4999 3.27005 15.2531 3.36947 17.0152C3.46889 18.7772 4.07603 20.4728 5.11766 21.8975C6.15929 23.3222 7.59091 24.415 9.2398 25.0442C10.8887 25.6734 12.6844 25.812 14.4103 25.4433C15.5865 25.1921 16.6961 24.7125 17.6785 24.0376C18.4421 23.513 19.4976 23.4976 20.1527 24.1527Z" fill="#040C22"/>
<path d="M13.0557 15.8408H34.815" stroke="#212121" stroke-width="2.5" stroke-miterlimit="10" stroke-linecap="round" stroke-linejoin="round"/>
<path d="M30.4629 21.5361L36.6067 15.8879L30.4629 10.2397" stroke="#212121" stroke-width="2.5" stroke-miterlimit="10" stroke-linecap="round" stroke-linejoin="round"/>
<path d="M18.0664 11.1721C17.3376 10.9373 16.9314 10.1529 17.2303 9.44802C18.469 6.52728 20.5797 4.0456 23.2894 2.35329C26.3926 0.415258 30.0812 -0.362614 33.7027 0.157314C37.3242 0.677241 40.645 2.46145 43.0776 5.19423C45.5102 7.92701 46.8977 11.4322 46.9946 15.0895C47.0915 18.7468 45.8915 22.3206 43.607 25.1783C41.3226 28.0361 38.1009 29.9936 34.512 30.7045C30.9231 31.4155 27.1984 30.834 23.997 29.063C21.2015 27.5165 18.9623 25.1501 17.5708 22.299C17.2349 21.6109 17.599 20.8062 18.3144 20.5331C19.0297 20.2601 19.8243 20.6231 20.1735 21.3046C21.3224 23.5465 23.1167 25.4072 25.3392 26.6367C27.9679 28.0909 31.0263 28.5683 33.9732 27.9846C36.92 27.4008 39.5654 25.7935 41.4412 23.4469C43.317 21.1004 44.3023 18.166 44.2227 15.1629C44.1432 12.1599 43.0039 9.28175 41.0065 7.03784C39.0091 4.79393 36.2823 3.3289 33.3087 2.90198C30.335 2.47506 27.3062 3.11378 24.7582 4.70511C22.6039 6.05057 20.9107 8.00365 19.8821 10.3033C19.5694 11.0022 18.7952 11.4069 18.0664 11.1721Z" fill="#1BC5AC"/>
</svg>
