<svg width="30" height="30" viewBox="0 0 30 30" fill="none" xmlns="http://www.w3.org/2000/svg">
<path fill-rule="evenodd" clip-rule="evenodd" d="M26.0815 3.9255C23.44 1.294 19.6415 1 15 1C10.3525 1 6.5485 1.2975 3.908 3.936C1.268 6.5735 1 10.3715 1 15.0135C1 19.6565 1.268 23.4555 3.909 26.094C6.5495 28.733 10.353 29 15 29C19.647 29 23.45 28.733 26.0905 26.094C28.7315 23.455 29 19.6565 29 15.0135C29 10.3655 28.7285 6.5635 26.0815 3.9255Z" fill="#D3F6F1" stroke="url(#paint0_linear_5917_29115)" stroke-width="0.583333"/>
<path d="M9 6.632C9 5.73067 9.70638 5 10.5777 5H19.1823C20.0536 5 20.76 5.73067 20.76 6.632V22.408C20.76 23.3093 20.0536 24.04 19.1823 24.04H10.5777C9.70638 24.04 9 23.3093 9 22.408V6.632Z" fill="#040C22"/>
<path d="M10.0225 6.60186C10.0225 6.30142 10.2579 6.05786 10.5484 6.05786H19.2113C19.5018 6.05786 19.7372 6.30142 19.7372 6.60186V22.4383C19.7372 22.7387 19.5018 22.9823 19.2113 22.9823H10.5484C10.2579 22.9823 10.0225 22.7387 10.0225 22.4383V6.60186Z" fill="white"/>
<path d="M14.2085 5.56065C14.2085 5.45745 14.2894 5.37378 14.3892 5.37378H15.4731C15.5729 5.37378 15.6538 5.45745 15.6538 5.56065V5.56065C15.6538 5.66386 15.5729 5.74753 15.4731 5.74753H14.3892C14.2894 5.74753 14.2085 5.66386 14.2085 5.56065V5.56065Z" fill="white"/>
<path d="M19.3363 16.1702C19.3363 18.5738 17.3879 20.5222 14.9843 20.5222C12.5808 20.5222 10.6323 18.5738 10.6323 16.1702C10.6323 13.7667 12.5808 11.8182 14.9843 11.8182C17.3879 11.8182 19.3363 13.7667 19.3363 16.1702Z" fill="#006253"/>
<path fill-rule="evenodd" clip-rule="evenodd" d="M14.9843 19.942C17.0674 19.942 18.7561 18.2533 18.7561 16.1702C18.7561 14.0872 17.0674 12.3985 14.9843 12.3985C12.9013 12.3985 11.2126 14.0872 11.2126 16.1702C11.2126 18.2533 12.9013 19.942 14.9843 19.942ZM14.9843 20.5222C17.3879 20.5222 19.3363 18.5738 19.3363 16.1702C19.3363 13.7667 17.3879 11.8182 14.9843 11.8182C12.5808 11.8182 10.6323 13.7667 10.6323 16.1702C10.6323 18.5738 12.5808 20.5222 14.9843 20.5222Z" fill="#1BC5AC"/>
<g clip-path="url(#clip0_5917_29115)">
<path d="M15.9256 14.5565C15.9036 14.6005 15.8595 14.6273 15.8107 14.6273H15.5983V16.991C15.3417 16.4481 14.9058 16.0058 14.3692 15.7399V14.6273H14.1567C14.108 14.6273 14.0639 14.599 14.0419 14.5565C14.0214 14.5124 14.0245 14.4605 14.0545 14.4227L14.8822 13.3369C14.9058 13.3054 14.9452 13.2865 14.9845 13.2865C15.0238 13.2865 15.0616 13.3054 15.0852 13.3369L15.913 14.4227C15.9413 14.4605 15.9476 14.5124 15.9256 14.5565V14.5565Z" fill="white"/>
<path d="M18.1757 16.3363C18.1757 16.3757 18.1568 16.4134 18.1253 16.437L17.0395 17.2648C17.0017 17.2947 16.9482 17.2994 16.9057 17.2774C16.8617 17.2554 16.8349 17.2113 16.8349 17.1625V16.9501H16.6823C16.3518 16.9501 16.0544 17.0996 15.8545 17.3356V15.9036C16.1425 15.7839 16.4541 15.721 16.7735 15.721H16.8349V15.5085C16.8349 15.4598 16.8632 15.4157 16.9057 15.3937C16.9498 15.3732 17.0017 15.3764 17.0395 15.4063L18.1253 16.234C18.1568 16.2592 18.1757 16.2954 18.1757 16.3363Z" fill="white"/>
<path d="M15.5982 18.1256V19.2587C15.5982 19.3295 15.5415 19.3861 15.4707 19.3861H14.4966C14.4258 19.3861 14.3691 19.3295 14.3691 19.2587V18.0328C14.3691 17.4363 13.8844 16.9501 13.2864 16.9501H13.1338V17.1625C13.1338 17.2113 13.107 17.2554 13.063 17.2774C13.0189 17.2994 12.967 17.2947 12.9292 17.2648L11.8433 16.437C11.8119 16.4134 11.793 16.3757 11.793 16.3363C11.793 16.2954 11.8103 16.2592 11.8433 16.234L12.9292 15.4063C12.9669 15.3764 13.0205 15.3732 13.0629 15.3937C13.107 15.4157 13.1338 15.4598 13.1338 15.5085V15.721H13.1967C14.5218 15.721 15.5982 16.8006 15.5982 18.1256V18.1256Z" fill="white"/>
</g>
<path d="M15.9144 9.42656C15.8737 9.46601 15.8549 9.52305 15.8642 9.579L16.0039 10.3522C16.0157 10.4177 15.9881 10.4841 15.9332 10.5219C15.8795 10.5612 15.808 10.5659 15.7493 10.5345L15.0533 10.1715C15.0291 10.1586 15.0022 10.1517 14.9747 10.1509H14.9321C14.9174 10.1531 14.9029 10.1578 14.8897 10.165L14.1935 10.5298C14.1591 10.5471 14.1201 10.5532 14.0819 10.5471C13.9889 10.5295 13.9268 10.4408 13.942 10.3473L14.0819 9.57413C14.0912 9.51771 14.0725 9.46035 14.0318 9.42027L13.4643 8.87023C13.4168 8.82418 13.4003 8.75503 13.422 8.69264C13.4431 8.63041 13.4968 8.58499 13.5617 8.57477L14.3428 8.46146C14.4022 8.45533 14.4544 8.41919 14.4811 8.36575L14.8253 7.66012C14.8334 7.6444 14.844 7.62995 14.8567 7.61769L14.8708 7.60669C14.8782 7.59852 14.8867 7.59176 14.8961 7.58626L14.9133 7.57997L14.94 7.56897H15.0061C15.0652 7.5751 15.1173 7.61046 15.1444 7.66326L15.4932 8.36575C15.5183 8.41714 15.5672 8.45282 15.6236 8.46146L16.4047 8.57477C16.4707 8.5842 16.5259 8.62978 16.5477 8.69264C16.5683 8.75566 16.5505 8.82481 16.5021 8.87023L15.9144 9.42656Z" fill="#1BC5AC"/>
<path d="M12.6205 10.1872C12.6002 10.2069 12.5908 10.2355 12.5954 10.2634L12.6653 10.65C12.6712 10.6828 12.6574 10.716 12.6299 10.7349C12.6031 10.7546 12.5673 10.7569 12.538 10.7412L12.19 10.5597C12.1779 10.5532 12.1644 10.5498 12.1507 10.5494H12.1294C12.122 10.5505 12.1148 10.5528 12.1082 10.5565L11.7601 10.7388C11.7429 10.7475 11.7234 10.7505 11.7043 10.7475C11.6578 10.7387 11.6267 10.6944 11.6343 10.6476L11.7043 10.261C11.7089 10.2328 11.6996 10.2041 11.6792 10.1841L11.3955 9.90905C11.3717 9.88603 11.3635 9.85145 11.3743 9.82026C11.3849 9.78914 11.4117 9.76643 11.4442 9.76132L11.8347 9.70467C11.8644 9.7016 11.8905 9.68353 11.9039 9.65681L12.076 9.304C12.08 9.29614 12.0853 9.28891 12.0917 9.28278L12.0987 9.27728C12.1024 9.2732 12.1067 9.26982 12.1114 9.26707L12.12 9.26392L12.1333 9.25842H12.1664C12.1959 9.26149 12.222 9.27917 12.2356 9.30557L12.4099 9.65681C12.4225 9.68251 12.4469 9.70035 12.4751 9.70467L12.8657 9.76132C12.8987 9.76604 12.9263 9.78883 12.9372 9.82026C12.9475 9.85177 12.9386 9.88634 12.9144 9.90905L12.6205 10.1872Z" fill="#1BC5AC"/>
<path d="M18.2782 10.1872C18.2579 10.2069 18.2485 10.2355 18.2532 10.2634L18.323 10.65C18.3289 10.6828 18.3151 10.716 18.2877 10.7349C18.2608 10.7546 18.225 10.7569 18.1957 10.7412L17.8477 10.5597C17.8356 10.5532 17.8222 10.5498 17.8084 10.5494H17.7871C17.7797 10.5505 17.7725 10.5528 17.7659 10.5565L17.4178 10.7388C17.4006 10.7475 17.3811 10.7505 17.362 10.7475C17.3155 10.7387 17.2844 10.6944 17.2921 10.6476L17.362 10.261C17.3666 10.2328 17.3573 10.2041 17.3369 10.1841L17.0532 9.90905C17.0295 9.88603 17.0212 9.85145 17.032 9.82026C17.0426 9.78914 17.0695 9.76643 17.1019 9.76132L17.4924 9.70467C17.5221 9.7016 17.5482 9.68353 17.5616 9.65681L17.7337 9.304C17.7378 9.29614 17.743 9.28891 17.7494 9.28278L17.7565 9.27728C17.7602 9.2732 17.7644 9.26982 17.7691 9.26707L17.7777 9.26392L17.791 9.25842H17.8241C17.8537 9.26149 17.8797 9.27917 17.8933 9.30557L18.0676 9.65681C18.0802 9.68251 18.1046 9.70035 18.1329 9.70467L18.5234 9.76132C18.5564 9.76604 18.584 9.78883 18.5949 9.82026C18.6052 9.85177 18.5963 9.88634 18.5721 9.90905L18.2782 10.1872Z" fill="#1BC5AC"/>
<defs>
<linearGradient id="paint0_linear_5917_29115" x1="15" y1="31.3333" x2="28.3881" y2="-3.47573" gradientUnits="userSpaceOnUse">
<stop stop-color="#C0F3EB"/>
<stop offset="1" stop-color="#FBFFFE"/>
</linearGradient>
<clipPath id="clip0_5917_29115">
<rect width="6.38293" height="6.38293" fill="white" transform="translate(11.793 13.1449)"/>
</clipPath>
</defs>
</svg>
