<svg width="20" height="24" viewBox="0 0 20 24" fill="none" xmlns="http://www.w3.org/2000/svg">
<g clip-path="url(#clip0_131_13784)">
<path d="M10 4.88083C9.655 4.88083 9.375 4.60083 9.375 4.25583V2.625C9.375 2.28 9.655 2 10 2C10.345 2 10.625 2.28 10.625 2.625V4.25583C10.625 4.60083 10.345 4.88083 10 4.88083Z" fill="#1BC5AC"/>
<path d="M15.4763 7.15005C15.3163 7.15005 15.1564 7.08921 15.0347 6.96671C14.7905 6.72255 14.7905 6.32672 15.0347 6.08255L16.188 4.92922C16.4322 4.68505 16.828 4.68505 17.0722 4.92922C17.3163 5.17338 17.3163 5.56922 17.0722 5.81338L15.9188 6.96671C15.7963 7.08838 15.6363 7.15005 15.4763 7.15005Z" fill="#1BC5AC"/>
<path d="M19.375 12.625H17.7441C17.3991 12.625 17.1191 12.345 17.1191 12C17.1191 11.655 17.3991 11.375 17.7441 11.375H19.375C19.72 11.375 20 11.655 20 12C20 12.345 19.72 12.625 19.375 12.625Z" fill="#1BC5AC"/>
<path d="M16.6297 19.2536C16.4697 19.2536 16.3097 19.1927 16.188 19.0702L15.0347 17.9169C14.7905 17.6727 14.7905 17.2769 15.0347 17.0327C15.2789 16.7886 15.6747 16.7886 15.9188 17.0327L17.0722 18.1861C17.3163 18.4302 17.3163 18.8261 17.0722 19.0702C16.9497 19.1927 16.7897 19.2536 16.6297 19.2536Z" fill="#1BC5AC"/>
<path d="M3.37088 19.2536C3.21088 19.2536 3.05088 19.1927 2.92922 19.0702C2.68505 18.8261 2.68505 18.4302 2.92922 18.1861L4.08255 17.0327C4.32671 16.7886 4.72254 16.7886 4.96671 17.0327C5.21087 17.2769 5.21087 17.6727 4.96671 17.9169L3.81338 19.0702C3.69088 19.1927 3.53088 19.2536 3.37088 19.2536Z" fill="#1BC5AC"/>
<path d="M2.25583 12.625H0.625C0.28 12.625 0 12.345 0 12C0 11.655 0.28 11.375 0.625 11.375H2.25583C2.60083 11.375 2.88083 11.655 2.88083 12C2.88083 12.345 2.60083 12.625 2.25583 12.625Z" fill="#1BC5AC"/>
<path d="M4.52421 7.15005C4.36421 7.15005 4.20421 7.08921 4.08255 6.96671L2.92922 5.81338C2.68505 5.56922 2.68505 5.17338 2.92922 4.92922C3.17338 4.68505 3.56922 4.68505 3.81338 4.92922L4.96671 6.08255C5.21087 6.32672 5.21087 6.72255 4.96671 6.96671C4.84338 7.08838 4.68421 7.15005 4.52421 7.15005Z" fill="#1BC5AC"/>
<path d="M7.44141 18.25H7.49973C7.48307 18.25 7.45807 18.25 7.44141 18.2583V18.25Z" fill="#1BC5AC"/>
<path d="M12.5417 18.25V18.2583C12.525 18.25 12.5167 18.25 12.5 18.25H12.5417Z" fill="#1BC5AC"/>
<path d="M10.0322 5.96094C6.80512 5.96094 4.17969 8.58637 4.17969 11.8135V11.8864C4.17969 12.9097 5.01221 13.742 6.03531 13.742C6.32035 13.742 6.59424 13.6788 6.84937 13.5542C7.49192 13.2402 7.89109 12.6011 7.89109 11.8864V11.8135C7.89109 10.6329 8.85163 9.67234 10.0322 9.67234C11.2129 9.67234 12.1735 10.6329 12.1735 11.8135C12.1735 12.9942 11.2129 13.9547 10.0322 13.9547H9.75007C8.72682 13.9547 7.89445 14.7871 7.89445 15.8104V18.8765C7.89445 19.8997 8.72682 20.7322 9.75007 20.7322C10.7733 20.7322 11.6057 19.8997 11.6057 18.8765V17.4514C14.1124 16.7533 15.8847 14.4557 15.8847 11.8135C15.8849 8.58637 13.2594 5.96094 10.0322 5.96094Z" fill="#1BC5AC"/>
<path d="M9.71915 21.4375C8.47174 21.4375 7.45703 22.4524 7.45703 23.6998C7.45703 24.947 8.4719 25.9619 9.71915 25.9619C10.9666 25.9619 11.9813 24.947 11.9813 23.6998C11.9813 22.4524 10.9666 21.4375 9.71915 21.4375Z" fill="#1BC5AC"/>
<path d="M9.23891 8.47809C9.05722 8.21251 9.1239 7.84483 9.41592 7.70966C9.96924 7.45353 10.5832 7.34495 11.1972 7.39973C12.0059 7.47188 12.7643 7.82291 13.3426 8.39272C13.9209 8.96252 14.2832 9.71565 14.3673 10.5231C14.4312 11.1363 14.3318 11.7518 14.0839 12.3089C13.953 12.6029 13.5864 12.675 13.3181 12.4972C13.0499 12.3195 12.9847 11.9586 13.0906 11.6548C13.2029 11.3328 13.2441 10.9878 13.2083 10.6439C13.1522 10.1053 12.9105 9.60289 12.5248 9.2228C12.139 8.84271 11.6331 8.60855 11.0937 8.56042C10.7493 8.52969 10.405 8.576 10.0847 8.69307C9.78242 8.80354 9.42061 8.74368 9.23891 8.47809Z" fill="white"/>
</g>
<defs>
<clipPath id="clip0_131_13784">
<rect width="20" height="22.6562" fill="white" transform="translate(0 0.6875)"/>
</clipPath>
</defs>
</svg>
