<svg width="30" height="29" viewBox="0 0 30 29" fill="none" xmlns="http://www.w3.org/2000/svg">
<path d="M4.10536 3.63217C1.46622 6.26882 1.21875 10.0522 1.21875 14.513C1.21875 18.9749 1.46622 22.7591 4.10633 25.3968C6.74587 28.0348 10.5345 28.2812 15 28.2812C19.4656 28.2812 23.2537 28.0348 25.8932 25.3967C28.5333 22.7587 28.7812 18.9749 28.7812 14.513C28.7812 10.0462 28.5304 6.25892 25.8843 3.62181L25.8842 3.62177C23.2443 0.991879 19.4624 0.71875 15 0.71875C10.5317 0.71875 6.7443 0.995242 4.10536 3.63217ZM4.10536 3.63217L4.30414 3.83114M4.10536 3.63217L4.30414 3.83114M4.30414 3.83114C1.75843 6.37445 1.5 10.0368 1.5 14.513C1.5 18.9902 1.75843 22.6535 4.30511 25.1978L25.6857 3.82102C23.1386 1.2835 19.4757 1 15 1C10.5185 1 6.85034 1.28688 4.30414 3.83114Z" fill="#D3F6F1" stroke="url(#paint0_linear_84_17210)" stroke-width="0.5625"/>
<path d="M16.7715 20.7434H19.8301C20.8437 20.7434 21.6652 19.648 21.6652 18.2965V15.8496" stroke="#040C22" stroke-width="1.125" stroke-miterlimit="10" stroke-linecap="square"/>
<path d="M23.2973 16.1035C23.2973 16.4142 23.0454 16.666 22.7348 16.666H21.666V13.4035H22.6448C23.0051 13.4035 23.2973 13.8209 23.2973 14.3357V16.1035Z" fill="#040C22" stroke="#040C22" stroke-width="1.125" stroke-miterlimit="10" stroke-linecap="square"/>
<path d="M6.98398 16.375C6.98398 16.6857 7.23582 16.9375 7.54648 16.9375H8.05273C8.36339 16.9375 8.61523 16.6857 8.61523 16.375V13.675H7.63648C7.27614 13.675 6.98398 14.0924 6.98398 14.6071V16.375Z" fill="#040C22" stroke="#040C22" stroke-width="1.125" stroke-miterlimit="10" stroke-linecap="square"/>
<path d="M21.6652 13.1312V12.4886C21.6652 8.93948 18.744 6.0625 15.1402 6.0625C11.5365 6.0625 8.61523 8.93948 8.61523 12.4886V13.1312" stroke="#040C22" stroke-width="1.125" stroke-miterlimit="10" stroke-linecap="square"/>
<path d="M10.8664 16.9383H14.6742V15.7887H12.5894V15.7513L13.2048 15.1001C14.32 13.9851 14.6114 13.4175 14.6114 12.7405C14.6114 11.6773 13.8553 10.957 12.6874 10.957C11.5496 10.957 10.7885 11.709 10.791 12.9104H11.969C11.969 12.3774 12.2554 12.0692 12.6824 12.0692C13.1018 12.0692 13.4057 12.3659 13.4057 12.8528C13.4057 13.2936 13.1646 13.5933 12.7426 14.0283L10.8664 15.9126V16.9383Z" fill="#1BC5AC"/>
<path d="M15.2035 15.9587H17.6876V16.9383H18.8756V15.9587H19.491V14.835H18.8756V11.0377H17.3108L15.2035 14.8466V15.9587ZM17.7127 14.835H16.4393V14.7889L17.6725 12.5474H17.7127V14.835Z" fill="#1BC5AC"/>
<rect x="14.3262" y="19.1133" width="3.2625" height="3.2625" rx="1.63125" fill="#040C22"/>
<defs>
<linearGradient id="paint0_linear_84_17210" x1="15" y1="30.25" x2="27.91" y2="-3.31588" gradientUnits="userSpaceOnUse">
<stop stop-color="#C0F3EB"/>
<stop offset="1" stop-color="#FBFFFE"/>
</linearGradient>
</defs>
</svg>
