<svg width="28" height="28" viewBox="0 0 28 28" fill="none" xmlns="http://www.w3.org/2000/svg">
<path fill-rule="evenodd" clip-rule="evenodd" d="M24.6388 3.36903C22.1029 0.842787 18.4564 0.560547 14.0005 0.560547C9.53895 0.560547 5.88711 0.846147 3.35223 3.37911C0.817827 5.91111 0.560547 9.55719 0.560547 14.0135C0.560547 18.4708 0.817827 22.1178 3.35319 24.6508C5.88807 27.1842 9.53943 27.4405 14.0005 27.4405C18.4617 27.4405 22.1125 27.1842 24.6474 24.6508C27.1828 22.1173 27.4405 18.4708 27.4405 14.0135C27.4405 9.55143 27.1799 5.90151 24.6388 3.36903Z" fill="#D3F6F1"/>
<path fill-rule="evenodd" clip-rule="evenodd" d="M25.0335 2.97175L25.0335 2.97183C27.7611 5.69013 28 9.5811 28 14.013C28 18.4398 27.764 22.3271 25.0427 25.0464C22.322 27.7656 18.4303 28 14 28C9.56968 28 5.67753 27.7655 2.95677 25.0463C0.235458 22.3275 0 18.4396 0 14.013C0 9.5872 0.235459 5.70025 2.95589 2.98239C5.67542 0.264926 9.56474 0 14 0C18.4293 0 22.313 0.261589 25.0335 2.97175ZM3.35264 24.6502C5.88752 27.1837 9.53888 27.44 14 27.44C18.4611 27.44 22.112 27.1837 24.6469 24.6502C27.1822 22.1168 27.44 18.4702 27.44 14.013C27.44 9.55088 27.1794 5.90096 24.6382 3.36848C22.1024 0.84224 18.4558 0.56 14 0.56C9.5384 0.56 5.88656 0.8456 3.35168 3.37856C0.81728 5.91056 0.56 9.55664 0.56 14.013C0.56 18.4702 0.81728 22.1173 3.35264 24.6502Z" fill="#D3F6F1"/>
<mask id="mask0_84_17262" style="mask-type:alpha" maskUnits="userSpaceOnUse" x="0" y="0" width="28" height="28">
<path fill-rule="evenodd" clip-rule="evenodd" d="M25.0815 2.9255C22.44 0.294 18.6415 0 14 0C9.3525 0 5.5485 0.2975 2.908 2.936C0.268 5.5735 0 9.3715 0 14.0135C0 18.6565 0.268 22.4555 2.909 25.094C5.5495 27.733 9.353 28 14 28C18.647 28 22.45 27.733 25.0905 25.094C27.7315 22.455 28 18.6565 28 14.0135C28 9.3655 27.7285 5.5635 25.0815 2.9255Z" fill="white"/>
</mask>
<g mask="url(#mask0_84_17262)">
<path d="M8.40039 6.11247C8.40039 5.21114 9.10677 4.48047 9.97813 4.48047H18.5826C19.454 4.48047 20.1604 5.21114 20.1604 6.11247V21.8885C20.1604 22.7898 19.454 23.5205 18.5827 23.5205H9.97813C9.10677 23.5205 8.40039 22.7898 8.40039 21.8885V6.11247Z" fill="#040C22"/>
<path d="M9.42383 6.08306C9.42383 5.78262 9.65929 5.53906 9.94974 5.53906H18.6127C18.9032 5.53906 19.1386 5.78262 19.1386 6.08306V21.9195C19.1386 22.2199 18.9032 22.4635 18.6127 22.4635H9.94974C9.65929 22.4635 9.42383 22.2199 9.42383 21.9195V6.08306Z" fill="white"/>
<path d="M13.6094 5.04039C13.6094 4.93718 13.6903 4.85352 13.79 4.85352H14.874C14.9738 4.85352 15.0547 4.93718 15.0547 5.04039C15.0547 5.1436 14.9738 5.22726 14.874 5.22726H13.79C13.6903 5.22726 13.6094 5.1436 13.6094 5.04039Z" fill="white"/>
<path d="M18.7352 15.6508C18.7352 18.0544 16.7868 20.0028 14.3832 20.0028C11.9797 20.0028 10.0312 18.0544 10.0312 15.6508C10.0312 13.2473 11.9797 11.2988 14.3832 11.2988C16.7868 11.2988 18.7352 13.2473 18.7352 15.6508Z" fill="#006253"/>
<path fill-rule="evenodd" clip-rule="evenodd" d="M14.3832 19.4226C16.4663 19.4226 18.155 17.7339 18.155 15.6508C18.155 13.5678 16.4663 11.8791 14.3832 11.8791C12.3002 11.8791 10.6115 13.5678 10.6115 15.6508C10.6115 17.7339 12.3002 19.4226 14.3832 19.4226ZM14.3832 20.0028C16.7868 20.0028 18.7352 18.0544 18.7352 15.6508C18.7352 13.2473 16.7868 11.2988 14.3832 11.2988C11.9797 11.2988 10.0312 13.2473 10.0312 15.6508C10.0312 18.0544 11.9797 20.0028 14.3832 20.0028Z" fill="#1BC5AC"/>
<g clip-path="url(#clip0_84_17262)">
<path d="M15.3245 14.0375C15.3025 14.0816 15.2584 14.1084 15.2096 14.1084H14.9972V16.4721C14.7407 15.9291 14.3048 15.4869 13.7681 15.221V14.1084H13.5557C13.5069 14.1084 13.4628 14.0801 13.4408 14.0376C13.4203 13.9935 13.4235 13.9416 13.4534 13.9038L14.2811 12.8179C14.3048 12.7865 14.3441 12.7676 14.3834 12.7676C14.4228 12.7676 14.4605 12.7865 14.4842 12.8179L15.3119 13.9038C15.3402 13.9416 15.3465 13.9935 15.3245 14.0375Z" fill="white"/>
<path d="M17.5751 15.817C17.5751 15.8564 17.5562 15.8941 17.5248 15.9177L16.4389 16.7455C16.4011 16.7754 16.3476 16.7801 16.3051 16.7581C16.2611 16.7361 16.2343 16.692 16.2343 16.6432V16.4308H16.0817C15.7512 16.4308 15.4538 16.5803 15.2539 16.8163V15.3843C15.5419 15.2647 15.8535 15.2017 16.1729 15.2017H16.2343V14.9893C16.2343 14.9405 16.2627 14.8964 16.3051 14.8744C16.3492 14.8539 16.4011 14.8571 16.4389 14.887L17.5248 15.7147C17.5562 15.7399 17.5751 15.7761 17.5751 15.817Z" fill="white"/>
<path d="M14.9966 17.6063V18.7394C14.9966 18.8102 14.94 18.8669 14.8691 18.8669H13.895C13.8242 18.8669 13.7676 18.8102 13.7676 18.7394V17.5135C13.7676 16.917 13.2829 16.4308 12.6849 16.4308H12.5322V16.6432C12.5322 16.692 12.5055 16.7361 12.4614 16.7581C12.4173 16.7801 12.3654 16.7754 12.3276 16.7455L11.2418 15.9177C11.2103 15.8941 11.1914 15.8564 11.1914 15.817C11.1914 15.7761 11.2087 15.7399 11.2418 15.7147L12.3276 14.887C12.3654 14.8571 12.4189 14.8539 12.4614 14.8744C12.5055 14.8964 12.5322 14.9405 12.5322 14.9893V15.2017H12.5952C13.9202 15.2017 14.9966 16.2813 14.9966 17.6063Z" fill="white"/>
</g>
<path d="M15.3143 8.90642C15.2736 8.94587 15.2549 9.00291 15.2641 9.05886L15.4038 9.83207C15.4156 9.89761 15.388 9.96393 15.3331 10.0018C15.2794 10.0411 15.2079 10.0458 15.1492 10.0144L14.4532 9.65134C14.429 9.63845 14.4021 9.63154 14.3746 9.63075H14.332C14.3173 9.63295 14.3028 9.63767 14.2896 9.6449L13.5934 10.0097C13.559 10.0269 13.52 10.0331 13.4818 10.0269C13.3888 10.0093 13.3267 9.92071 13.3419 9.8272L13.4818 9.05399C13.4911 8.99757 13.4724 8.94021 13.4317 8.90013L12.8642 8.35008C12.8167 8.30404 12.8002 8.23489 12.8219 8.1725C12.843 8.11026 12.8967 8.06485 12.9616 8.05463L13.7427 7.94132C13.8021 7.93519 13.8543 7.89905 13.881 7.84561L14.2252 7.13998C14.2333 7.12426 14.2439 7.1098 14.2566 7.09755L14.2707 7.08655C14.2781 7.07837 14.2866 7.07162 14.296 7.06612L14.3132 7.05983L14.3399 7.04883H14.406C14.4651 7.05496 14.5172 7.09032 14.5443 7.14312L14.8931 7.84561C14.9182 7.897 14.9671 7.93268 15.0235 7.94132L15.8046 8.05463C15.8706 8.06406 15.9258 8.10964 15.9476 8.1725C15.9682 8.23552 15.9504 8.30467 15.902 8.35008L15.3143 8.90642Z" fill="#1BC5AC"/>
<path d="M12.0185 9.66903C11.9981 9.68875 11.9888 9.71728 11.9934 9.74525L12.0632 10.1319C12.0691 10.1646 12.0553 10.1978 12.0279 10.2167C12.001 10.2364 11.9653 10.2387 11.9359 10.223L11.5879 10.0415C11.5758 10.035 11.5624 10.0316 11.5486 10.0312H11.5273C11.52 10.0323 11.5127 10.0347 11.5061 10.0383L11.158 10.2206C11.1408 10.2293 11.1213 10.2324 11.1022 10.2293C11.0557 10.2205 11.0247 10.1762 11.0323 10.1294L11.1022 9.74281C11.1069 9.71461 11.0975 9.68592 11.0772 9.66589L10.7934 9.39086C10.7697 9.36784 10.7614 9.33326 10.7723 9.30207C10.7828 9.27095 10.8097 9.24824 10.8421 9.24314L11.2327 9.18648C11.2624 9.18342 11.2885 9.16534 11.3018 9.13863L11.4739 8.78581C11.478 8.77795 11.4833 8.77072 11.4896 8.76459L11.4967 8.75909C11.5004 8.75501 11.5046 8.75163 11.5093 8.74888L11.5179 8.74573L11.5313 8.74023H11.5644C11.5939 8.7433 11.6199 8.76098 11.6335 8.78738L11.8079 9.13863C11.8204 9.16432 11.8449 9.18216 11.8731 9.18648L12.2636 9.24314C12.2966 9.24785 12.3242 9.27064 12.3351 9.30207C12.3454 9.33358 12.3365 9.36815 12.3123 9.39086L12.0185 9.66903Z" fill="#1BC5AC"/>
<path d="M17.6767 9.66903C17.6563 9.68875 17.647 9.71728 17.6516 9.74525L17.7214 10.1319C17.7273 10.1646 17.7135 10.1978 17.6861 10.2167C17.6592 10.2364 17.6235 10.2387 17.5942 10.223L17.2461 10.0415C17.234 10.035 17.2206 10.0316 17.2068 10.0312H17.1855C17.1782 10.0323 17.1709 10.0347 17.1643 10.0383L16.8162 10.2206C16.799 10.2293 16.7795 10.2324 16.7604 10.2293C16.7139 10.2205 16.6829 10.1762 16.6905 10.1294L16.7604 9.74281C16.7651 9.71461 16.7557 9.68592 16.7354 9.66589L16.4516 9.39086C16.4279 9.36784 16.4196 9.33326 16.4305 9.30207C16.441 9.27095 16.4679 9.24824 16.5003 9.24314L16.8909 9.18648C16.9206 9.18342 16.9467 9.16534 16.96 9.13863L17.1321 8.78581C17.1362 8.77795 17.1415 8.77072 17.1478 8.76459L17.1549 8.75909C17.1586 8.75501 17.1628 8.75163 17.1676 8.74888L17.1761 8.74573L17.1895 8.74023H17.2226C17.2521 8.7433 17.2781 8.76098 17.2917 8.78738L17.4661 9.13863C17.4786 9.16432 17.5031 9.18216 17.5313 9.18648L17.9218 9.24314C17.9548 9.24785 17.9824 9.27064 17.9933 9.30207C18.0036 9.33358 17.9947 9.36815 17.9705 9.39086L17.6767 9.66903Z" fill="#1BC5AC"/>
</g>
<defs>
<clipPath id="clip0_84_17262">
<rect width="6.38293" height="6.38293" fill="white" transform="translate(11.1914 12.625)"/>
</clipPath>
</defs>
</svg>
