<svg width="40" height="40" viewBox="0 0 40 40" fill="none" xmlns="http://www.w3.org/2000/svg">
<path d="M4.50767 4.54801L4.50771 4.54797C8.11498 0.943426 13.3372 0.5 20 0.5C26.6544 0.5 31.869 0.938432 35.4778 4.53344C39.0927 8.1361 39.5 13.3523 39.5 20.0193C39.5 26.6793 39.097 31.8908 35.4902 35.4949L35.4901 35.4949C31.8839 39.0991 26.6661 39.5 20 39.5C13.3339 39.5 8.11535 39.0991 4.50917 35.4949L4.5091 35.4949C0.902337 31.8915 0.5 26.6794 0.5 20.0193C0.5 13.3606 0.90234 8.14992 4.50767 4.54801Z" fill="#F0FCFA" stroke="url(#paint0_linear_131_13047)"/>
<path d="M22.4004 29.6004H26.9004C28.3917 29.6004 29.6004 27.9888 29.6004 26.0004V22.4004" stroke="#040C22" stroke-width="1.5" stroke-miterlimit="10" stroke-linecap="square"/>
<path d="M31.9996 22.5996C31.9996 23.1519 31.5519 23.5996 30.9996 23.5996H29.5996V18.7996H31.0396C31.5698 18.7996 31.9996 19.4137 31.9996 20.171V22.5996Z" fill="#040C22" stroke="#040C22" stroke-width="1.5" stroke-miterlimit="10" stroke-linecap="square"/>
<path d="M8.00039 23C8.00039 23.5523 8.44811 24 9.00039 24H9.40039C9.95268 24 10.4004 23.5523 10.4004 23V19.2H8.96039C8.43023 19.2 8.00039 19.8141 8.00039 20.5714V23Z" fill="#040C22" stroke="#040C22" stroke-width="1.5" stroke-miterlimit="10" stroke-linecap="square"/>
<path d="M29.6004 18.4V17.4545C29.6004 12.2328 25.3025 8 20.0004 8C14.6983 8 10.4004 12.2328 10.4004 17.4545V18.4" stroke="#040C22" stroke-width="1.5" stroke-miterlimit="10" stroke-linecap="square"/>
<path d="M13.7105 24.0002H19.3127V22.3089H16.2455V22.2538L17.1509 21.2958C18.7917 19.6553 19.2203 18.8202 19.2203 17.8241C19.2203 16.2599 18.108 15.2002 16.3897 15.2002C14.7156 15.2002 13.5959 16.3066 13.5996 18.0742H15.3328C15.3328 17.29 15.754 16.8364 16.3823 16.8364C16.9994 16.8364 17.4465 17.273 17.4465 17.9894C17.4465 18.638 17.0918 19.0788 16.471 19.7189L13.7105 22.4911V24.0002Z" fill="#1BC5AC"/>
<path d="M20.0915 22.559H23.7463V24.0002H25.4942V22.559H26.3996V20.9058H25.4942V15.3189H23.192L20.0915 20.9227V22.559ZM23.7832 20.9058H21.9097V20.838L23.7241 17.5401H23.7832V20.9058Z" fill="#1BC5AC"/>
<rect x="18.8008" y="27.2002" width="4.8" height="4.8" rx="2.4" fill="#040C22"/>
<defs>
<linearGradient id="paint0_linear_131_13047" x1="20" y1="26.6667" x2="20" y2="-13.75" gradientUnits="userSpaceOnUse">
<stop stop-color="#C0F3EB"/>
<stop offset="1" stop-color="#FBFFFE"/>
</linearGradient>
</defs>
</svg>
