<svg width="24" height="24" viewBox="0 0 24 24" fill="none" xmlns="http://www.w3.org/2000/svg">
<circle cx="12" cy="12" r="9" fill="white"/>
<path d="M12 21.75C9.435 21.75 7.0125 20.76 5.19 18.96C3.3225 17.1525 2.25 14.6175 2.25 12C2.25 9.3825 3.3225 6.8475 5.19 5.0325C7.0125 3.24 9.435 2.25 12 2.25C14.565 2.25 16.9875 3.24 18.81 5.04C20.6775 6.8475 21.75 9.3825 21.75 12C21.75 14.6175 20.6775 17.1525 18.81 18.9675C16.9875 20.76 14.565 21.75 12 21.75ZM12 3.75C9.825 3.75 7.785 4.59 6.24 6.105C4.6575 7.6425 3.75 9.7875 3.75 12C3.75 14.2125 4.6575 16.3575 6.2325 17.8875C7.785 19.41 9.825 20.25 12 20.25C14.175 20.25 16.215 19.41 17.76 17.895C19.3425 16.3575 20.25 14.2125 20.25 12C20.25 9.7875 19.3425 7.6425 17.7675 6.1125C16.215 4.59 14.175 3.75 12 3.75Z" fill="#363D4E"/>
<path d="M10.8749 16.1249C10.6799 16.1249 10.4849 16.0499 10.3424 15.9074L7.34242 12.9074C7.04992 12.6149 7.04992 12.1424 7.34242 11.8499C7.63492 11.5574 8.10742 11.5574 8.39992 11.8499L10.7999 14.2499L15.5249 8.16736C15.7799 7.84486 16.2524 7.78486 16.5749 8.03236C16.9049 8.28736 16.9574 8.75986 16.7024 9.08236L11.4524 15.8324C11.3174 16.0049 11.1224 16.1099 10.9049 16.1174C10.9049 16.1249 10.8899 16.1249 10.8749 16.1249Z" fill="#1BC5AC"/>
</svg>
