<svg width="40" height="40" viewBox="0 0 40 40" fill="none" xmlns="http://www.w3.org/2000/svg">
<path d="M4.50767 4.54801L4.50771 4.54797C8.11498 0.943426 13.3372 0.5 20 0.5C26.6544 0.5 31.869 0.938432 35.4778 4.53344C39.0927 8.1361 39.5 13.3523 39.5 20.0193C39.5 26.6793 39.097 31.8908 35.4902 35.4949L35.4901 35.4949C31.8839 39.0991 26.6661 39.5 20 39.5C13.3339 39.5 8.11535 39.0991 4.50917 35.4949L4.5091 35.4949C0.902337 31.8915 0.5 26.6794 0.5 20.0193C0.5 13.3606 0.90234 8.14992 4.50767 4.54801Z" fill="#F0FCFA" stroke="url(#paint0_linear_131_14325)"/>
<path d="M20.8252 9H15.2632C12.3564 9 10 11.3564 10 14.2632V24.1158C10 27.0226 12.3564 29.3789 15.2632 29.3789H20.4842C23.391 29.3789 25.7474 27.0226 25.7474 24.1158V13.9222L20.8252 9Z" fill="white" stroke="#040C22" stroke-width="1.2"/>
<path d="M22.9634 15.3158C21.2966 15.3158 20.5273 14.2632 20.5273 12.6842V9L25.2642 13.7368L25.7905 15.3158H22.9634Z" fill="black"/>
<path d="M14.2109 17.4209H21.5794" stroke="#1BC5AC" stroke-width="1.5" stroke-linecap="round"/>
<path d="M14.2109 20.5791H17.3688" stroke="#1BC5AC" stroke-width="1.5" stroke-linecap="round"/>
<path d="M19.4727 20.5791H20.5253" stroke="#1BC5AC" stroke-width="1.5" stroke-linecap="round"/>
<path d="M28.5596 20.4651L25.9217 19.5488C25.8353 19.5189 25.742 19.5189 25.6556 19.5488L23.0177 20.4651C22.5983 20.6102 22.2335 20.8893 21.975 21.2627C21.7166 21.6362 21.5777 22.0849 21.5781 22.5453V24.7896C21.5781 28.1066 25.4518 29.9386 25.6177 30.0149C25.6715 30.0398 25.7298 30.0527 25.7887 30.0527C25.8475 30.0527 25.9058 30.0398 25.9596 30.0149C26.1255 29.9386 29.9992 28.1066 29.9992 24.7896V22.5453C29.9996 22.0849 29.8607 21.6362 29.6023 21.2627C29.3438 20.8893 28.979 20.6102 28.5596 20.4651Z" fill="white" stroke="black" stroke-width="1.2"/>
<path d="M23.6836 24.4828L25.2625 25.8425L27.8941 22.6846" stroke="#1BC5AC" stroke-linecap="round" stroke-linejoin="round"/>
<defs>
<linearGradient id="paint0_linear_131_14325" x1="20" y1="26.6667" x2="20" y2="-13.75" gradientUnits="userSpaceOnUse">
<stop stop-color="#C0F3EB"/>
<stop offset="1" stop-color="#FBFFFE"/>
</linearGradient>
</defs>
</svg>
