<svg width="76" height="75" viewBox="0 0 76 75" fill="none" xmlns="http://www.w3.org/2000/svg">
<g filter="url(#filter0_d_1_11749)">
<path fill-rule="evenodd" clip-rule="evenodd" d="M60.9545 11.06C55.4829 5.609 47.6145 5 38 5C28.373 5 20.4933 5.61625 15.0237 11.0817C9.55514 16.5451 9 24.4124 9 34.028C9 43.6456 9.55514 51.515 15.0258 56.9804C20.4954 62.4469 28.3741 63 38 63C47.6259 63 55.5036 62.4469 60.9732 56.9804C66.4438 51.5139 67 43.6456 67 34.028C67 24.4 66.4376 16.5244 60.9545 11.06Z" fill="#D3F6F1"/>
<path d="M61.4002 57.4078C67.0715 51.7408 67.6042 43.6128 67.6042 34.028C67.6042 24.4326 67.0653 16.2969 61.381 10.632L61.3809 10.6319C55.7101 4.98255 47.5859 4.39583 38 4.39583C28.4015 4.39583 20.2655 4.98978 14.5967 10.6543M61.4002 57.4078L60.9732 56.9804M61.4002 57.4078L60.9732 56.9804M61.4002 57.4078C55.7301 63.0747 47.5927 63.6042 38 63.6042C28.4073 63.6042 20.2689 63.0747 14.5988 57.4078C8.92744 51.7419 8.39583 43.6126 8.39583 34.028C8.39583 24.4454 8.92743 16.3182 14.5967 10.6543M60.9732 56.9804C66.4438 51.5139 67 43.6456 67 34.028C67 24.4 66.4376 16.5244 60.9545 11.06C55.4829 5.609 47.6145 5 38 5C28.373 5 20.4933 5.61625 15.0237 11.0817M60.9732 56.9804C55.5036 62.4469 47.6259 63 38 63C28.3741 63 20.4954 62.4469 15.0258 56.9804C9.55514 51.515 9 43.6456 9 34.028C9 24.4124 9.55514 16.5451 15.0237 11.0817M14.5967 10.6543L15.0237 11.0817M14.5967 10.6543L15.0237 11.0817" stroke="url(#paint0_linear_1_11749)" stroke-width="1.20833"/>
</g>
<mask id="mask0_1_11749" style="mask-type:alpha" maskUnits="userSpaceOnUse" x="9" y="5" width="58" height="58">
<path fill-rule="evenodd" clip-rule="evenodd" d="M60.9545 11.06C55.4829 5.609 47.6145 5 38 5C28.373 5 20.4933 5.61625 15.0237 11.0817C9.55514 16.5451 9 24.4124 9 34.028C9 43.6456 9.55514 51.515 15.0258 56.9804C20.4954 62.4469 28.3741 63 38 63C47.6259 63 55.5036 62.4469 60.9732 56.9804C66.4438 51.5139 67 43.6456 67 34.028C67 24.4 66.4376 16.5244 60.9545 11.06Z" fill="white"/>
</mask>
<g mask="url(#mask0_1_11749)">
<rect x="19.875" y="15.875" width="36.25" height="60.4167" rx="4.83333" fill="#040C22"/>
<rect x="22.2915" y="19.5" width="31.4167" height="54.375" rx="2.41667" fill="white"/>
<circle cx="44.6457" cy="52.7292" r="7.25" fill="#006253" stroke="#1BC5AC" stroke-width="1.20833"/>
<path d="M42.9872 55.4546C42.9872 56.2817 43.7335 56.9583 44.6457 56.9583C45.5578 56.9583 46.3042 56.2817 46.3042 55.4546V52.8231H48.0131C48.3341 52.8231 48.4967 52.4366 48.2722 52.2072L44.9048 48.7649C44.7626 48.6195 44.5287 48.6195 44.3865 48.7649L41.0191 52.2072C40.7946 52.4366 40.9572 52.8231 41.2782 52.8231H42.9872V55.4546Z" fill="white"/>
<rect x="26.5207" y="26.1457" width="22.9583" height="1.20833" rx="0.604167" fill="#1BC5AC" stroke="#1BC5AC" stroke-width="1.20833"/>
<rect x="26.5207" y="33.3957" width="22.9583" height="1.20833" rx="0.604167" fill="#1BC5AC" stroke="#1BC5AC" stroke-width="1.20833"/>
<rect x="26.5207" y="40.6457" width="22.9583" height="1.20833" rx="0.604167" fill="#1BC5AC" stroke="#1BC5AC" stroke-width="1.20833"/>
<rect x="26.5207" y="47.8957" width="8.45833" height="1.20833" rx="0.604167" fill="#1BC5AC" stroke="#1BC5AC" stroke-width="1.20833"/>
<rect x="35.5835" y="17.0835" width="4.83333" height="1.20833" rx="0.604167" fill="white"/>
</g>
<defs>
<filter id="filter0_d_1_11749" x="0.886742" y="0.339123" width="74.2265" height="74.2265" filterUnits="userSpaceOnUse" color-interpolation-filters="sRGB">
<feFlood flood-opacity="0" result="BackgroundImageFix"/>
<feColorMatrix in="SourceAlpha" type="matrix" values="0 0 0 0 0 0 0 0 0 0 0 0 0 0 0 0 0 0 127 0" result="hardAlpha"/>
<feOffset dy="3.45238"/>
<feGaussianBlur stdDeviation="3.45238"/>
<feColorMatrix type="matrix" values="0 0 0 0 0.840451 0 0 0 0 0.979167 0 0 0 0 0.958767 0 0 0 1 0"/>
<feBlend mode="normal" in2="BackgroundImageFix" result="effect1_dropShadow_1_11749"/>
<feBlend mode="normal" in="SourceGraphic" in2="effect1_dropShadow_1_11749" result="shape"/>
</filter>
<linearGradient id="paint0_linear_1_11749" x1="39.7262" y1="68.869" x2="61.1256" y2="13.2305" gradientUnits="userSpaceOnUse">
<stop stop-color="#1BC5AC"/>
<stop offset="1" stop-color="#B8FAF0" stop-opacity="0.3"/>
</linearGradient>
</defs>
</svg>
