<svg width="30" height="30" viewBox="0 0 30 30" fill="none" xmlns="http://www.w3.org/2000/svg">
<path d="M3.70186 3.72966C0.964968 6.46396 0.708333 10.3874 0.708333 15.0135C0.708333 19.6406 0.964967 23.565 3.70282 26.3003C6.44013 29.0361 10.369 29.2917 15 29.2917C19.631 29.2917 23.5594 29.0361 26.2967 26.3003C29.0345 23.5645 29.2917 19.6406 29.2917 15.0135C29.2917 10.3812 29.0315 6.45369 26.2874 3.71891L26.2873 3.71887C23.5497 0.991578 19.6277 0.708333 15 0.708333C10.3662 0.708333 6.43853 0.995066 3.70186 3.72966ZM3.70186 3.72966L3.908 3.936M3.70186 3.72966L3.908 3.936M3.908 3.936C6.5485 1.2975 10.3525 1 15 1C19.6415 1 23.44 1.294 26.0815 3.9255C28.7285 6.5635 29 10.3655 29 15.0135C29 19.6565 28.7315 23.455 26.0905 26.094C23.45 28.733 19.647 29 15 29C10.353 29 6.5495 28.733 3.909 26.094C1.268 23.4555 1 19.6565 1 15.0135C1 10.3715 1.268 6.5735 3.908 3.936Z" fill="#D3F6F1" stroke="url(#paint0_linear_84_17186)" stroke-width="0.583333"/>
<rect x="10.4043" y="9.16602" width="18.9173" height="1.75" rx="0.875" transform="rotate(45 10.4043 9.16602)" fill="#040C22"/>
<circle cx="14.1243" cy="14.1243" r="7.875" fill="white" stroke="#040C22" stroke-width="1.16667"/>
<circle cx="11.5" cy="12.082" r="1.3125" stroke="#1BC5AC" stroke-width="0.875"/>
<circle cx="16.166" cy="16.75" r="1.3125" stroke="#1BC5AC" stroke-width="0.875"/>
<path d="M10.9161 17.5951L15.9702 12.0941" stroke="#1BC5AC" stroke-width="1.16667" stroke-linecap="round"/>
<path d="M17.436 13.6631L14.3318 10.9158L17.8743 9.88557L17.436 13.6631Z" fill="#1BC5AC"/>
<defs>
<linearGradient id="paint0_linear_84_17186" x1="15" y1="31.3333" x2="28.3881" y2="-3.47573" gradientUnits="userSpaceOnUse">
<stop stop-color="#C0F3EB"/>
<stop offset="1" stop-color="#FBFFFE"/>
</linearGradient>
</defs>
</svg>
