<svg width="44" height="44" viewBox="0 0 44 44" fill="none" xmlns="http://www.w3.org/2000/svg">
<g clip-path="url(#clip0_1_11659)">
<path d="M4.21539 4.75772L4.21542 4.75769C8.01131 0.964676 13.5052 0.5 20.5 0.5C27.4859 0.5 32.9719 0.959432 36.7693 4.7424C40.5733 8.53349 41 14.0213 41 21.0203C41 28.0119 40.5778 33.4947 36.7823 37.2873L36.7823 37.2873C32.9875 41.08 27.498 41.5 20.5 41.5C13.502 41.5 8.01174 41.08 4.21695 37.2873L4.21689 37.2873C0.42148 33.4955 0 28.012 0 21.0203C0 14.03 0.421483 8.54803 4.21539 4.75772Z" fill="#D3F6F1" stroke="url(#paint0_linear_1_11659)"/>
<rect x="9.93491" y="14.9716" width="20.8645" height="14.3716" rx="5.25" transform="rotate(-16.8173 9.93491 14.9716)" fill="white" stroke="black" stroke-width="1.5"/>
<rect x="10.688" y="13.5698" width="22.5982" height="18.7425" rx="5.25" fill="white" stroke="black" stroke-width="1.5"/>
<mask id="path-4-inside-1_1_11659" fill="white">
<path fill-rule="evenodd" clip-rule="evenodd" d="M33.8438 18.5752C33.8438 18.5752 33.8437 18.5752 33.8437 18.5752H28.3331C26.1592 18.5752 24.397 20.3375 24.397 22.5113C24.397 24.6852 26.1592 26.4475 28.3331 26.4475H33.8437C33.8437 26.4475 33.8438 26.4475 33.8438 26.4475V18.5752Z"/>
</mask>
<path fill-rule="evenodd" clip-rule="evenodd" d="M33.8438 18.5752C33.8438 18.5752 33.8437 18.5752 33.8437 18.5752H28.3331C26.1592 18.5752 24.397 20.3375 24.397 22.5113C24.397 24.6852 26.1592 26.4475 28.3331 26.4475H33.8437C33.8437 26.4475 33.8438 26.4475 33.8438 26.4475V18.5752Z" fill="white"/>
<path d="M33.8438 18.5752H35.3438V17.0752H33.8438V18.5752ZM33.8438 26.4475V27.9475H35.3438V26.4475H33.8438ZM33.8437 20.0752H33.8438V17.0752H33.8437V20.0752ZM28.3331 20.0752H33.8437V17.0752H28.3331V20.0752ZM25.897 22.5113C25.897 21.1659 26.9877 20.0752 28.3331 20.0752V17.0752C25.3308 17.0752 22.897 19.509 22.897 22.5113H25.897ZM28.3331 24.9475C26.9877 24.9475 25.897 23.8568 25.897 22.5113H22.897C22.897 25.5136 25.3308 27.9475 28.3331 27.9475V24.9475ZM33.8437 24.9475H28.3331V27.9475H33.8437V24.9475ZM33.8438 24.9475C33.8438 24.9475 33.8438 24.9475 33.8438 24.9475C33.8438 24.9475 33.8438 24.9475 33.8438 24.9475H33.8438C33.8438 24.9475 33.8438 24.9475 33.8438 24.9475H33.8438C33.8438 24.9475 33.8438 24.9475 33.8438 24.9475C33.8438 24.9475 33.8438 24.9475 33.8438 24.9475H33.8438C33.8438 24.9475 33.8438 24.9475 33.8438 24.9475H33.8438C33.8438 24.9475 33.8438 24.9475 33.8438 24.9475C33.8438 24.9475 33.8438 24.9475 33.8438 24.9475H33.8438C33.8438 24.9475 33.8438 24.9475 33.8438 24.9475C33.8438 24.9475 33.8438 24.9475 33.8438 24.9475H33.8438C33.8438 24.9475 33.8438 24.9475 33.8438 24.9475C33.8438 24.9475 33.8438 24.9475 33.8438 24.9475H33.8438C33.8438 24.9475 33.8438 24.9475 33.8438 24.9475C33.8438 24.9475 33.8438 24.9475 33.8438 24.9475H33.8438C33.8438 24.9475 33.8438 24.9475 33.8438 24.9475C33.8438 24.9475 33.8438 24.9475 33.8438 24.9475H33.8438C33.8438 24.9475 33.8438 24.9475 33.8438 24.9475C33.8438 24.9475 33.8438 24.9475 33.8438 24.9475H33.8438C33.8438 24.9475 33.8438 24.9475 33.8438 24.9475C33.8438 24.9475 33.8438 24.9475 33.8438 24.9475H33.8438C33.8438 24.9475 33.8438 24.9475 33.8438 24.9475C33.8438 24.9475 33.8438 24.9475 33.8438 24.9475H33.8438C33.8438 24.9475 33.8438 24.9475 33.8438 24.9475C33.8438 24.9475 33.8438 24.9475 33.8438 24.9475H33.8438C33.8437 24.9475 33.8437 24.9475 33.8437 24.9475C33.8437 24.9475 33.8437 24.9475 33.8437 24.9475C33.8437 24.9475 33.8437 24.9475 33.8437 24.9475H33.8437C33.8437 24.9475 33.8437 24.9475 33.8437 24.9475C33.8437 24.9475 33.8437 24.9475 33.8437 24.9475H33.8437C33.8437 24.9475 33.8437 24.9475 33.8437 24.9475C33.8437 24.9475 33.8437 24.9475 33.8437 24.9475H33.8437C33.8437 24.9475 33.8437 24.9475 33.8437 24.9475C33.8437 24.9475 33.8437 24.9475 33.8437 24.9475H33.8437C33.8437 24.9475 33.8437 24.9475 33.8437 24.9475C33.8437 24.9475 33.8437 24.9475 33.8437 24.9475H33.8437C33.8437 24.9475 33.8437 24.9475 33.8437 24.9475C33.8437 24.9475 33.8437 24.9475 33.8437 24.9475H33.8437C33.8437 24.9475 33.8437 24.9475 33.8437 24.9475C33.8437 24.9475 33.8437 24.9475 33.8437 24.9475H33.8437C33.8437 24.9475 33.8437 24.9475 33.8437 24.9475C33.8437 24.9475 33.8437 24.9475 33.8437 24.9475H33.8437C33.8437 24.9475 33.8437 24.9475 33.8437 24.9475C33.8437 24.9475 33.8437 24.9475 33.8437 24.9475H33.8437C33.8437 24.9475 33.8437 24.9475 33.8437 24.9475C33.8437 24.9475 33.8437 24.9475 33.8437 24.9475H33.8437C33.8437 24.9475 33.8437 24.9475 33.8437 24.9475H33.8437C33.8437 24.9475 33.8437 24.9475 33.8437 24.9475C33.8437 24.9475 33.8437 24.9475 33.8437 24.9475H33.8437C33.8437 24.9475 33.8437 24.9475 33.8437 24.9475H33.8437C33.8437 24.9475 33.8437 24.9475 33.8437 24.9475C33.8437 24.9475 33.8437 24.9475 33.8437 24.9475V27.9475C33.8437 27.9475 33.8437 27.9475 33.8437 27.9475C33.8437 27.9475 33.8437 27.9475 33.8437 27.9475H33.8437C33.8437 27.9475 33.8437 27.9475 33.8437 27.9475H33.8437C33.8437 27.9475 33.8437 27.9475 33.8437 27.9475C33.8437 27.9475 33.8437 27.9475 33.8437 27.9475H33.8437C33.8437 27.9475 33.8437 27.9475 33.8437 27.9475H33.8437C33.8437 27.9475 33.8437 27.9475 33.8437 27.9475C33.8437 27.9475 33.8437 27.9475 33.8437 27.9475H33.8437C33.8437 27.9475 33.8437 27.9475 33.8437 27.9475C33.8437 27.9475 33.8437 27.9475 33.8437 27.9475H33.8437C33.8437 27.9475 33.8437 27.9475 33.8437 27.9475C33.8437 27.9475 33.8437 27.9475 33.8437 27.9475H33.8437C33.8437 27.9475 33.8437 27.9475 33.8437 27.9475C33.8437 27.9475 33.8437 27.9475 33.8437 27.9475H33.8437C33.8437 27.9475 33.8437 27.9475 33.8437 27.9475C33.8437 27.9475 33.8437 27.9475 33.8437 27.9475H33.8437C33.8437 27.9475 33.8437 27.9475 33.8437 27.9475C33.8437 27.9475 33.8437 27.9475 33.8437 27.9475H33.8437C33.8437 27.9475 33.8437 27.9475 33.8437 27.9475C33.8437 27.9475 33.8437 27.9475 33.8437 27.9475H33.8437C33.8437 27.9475 33.8437 27.9475 33.8437 27.9475C33.8437 27.9475 33.8437 27.9475 33.8437 27.9475H33.8437C33.8437 27.9475 33.8437 27.9475 33.8437 27.9475C33.8437 27.9475 33.8437 27.9475 33.8437 27.9475H33.8437C33.8437 27.9475 33.8437 27.9475 33.8437 27.9475C33.8437 27.9475 33.8437 27.9475 33.8437 27.9475C33.8437 27.9475 33.8437 27.9475 33.8438 27.9475H33.8438C33.8438 27.9475 33.8438 27.9475 33.8438 27.9475C33.8438 27.9475 33.8438 27.9475 33.8438 27.9475H33.8438C33.8438 27.9475 33.8438 27.9475 33.8438 27.9475C33.8438 27.9475 33.8438 27.9475 33.8438 27.9475H33.8438C33.8438 27.9475 33.8438 27.9475 33.8438 27.9475C33.8438 27.9475 33.8438 27.9475 33.8438 27.9475H33.8438C33.8438 27.9475 33.8438 27.9475 33.8438 27.9475C33.8438 27.9475 33.8438 27.9475 33.8438 27.9475H33.8438C33.8438 27.9475 33.8438 27.9475 33.8438 27.9475C33.8438 27.9475 33.8438 27.9475 33.8438 27.9475H33.8438C33.8438 27.9475 33.8438 27.9475 33.8438 27.9475C33.8438 27.9475 33.8438 27.9475 33.8438 27.9475H33.8438C33.8438 27.9475 33.8438 27.9475 33.8438 27.9475C33.8438 27.9475 33.8438 27.9475 33.8438 27.9475H33.8438C33.8438 27.9475 33.8438 27.9475 33.8438 27.9475C33.8438 27.9475 33.8438 27.9475 33.8438 27.9475H33.8438C33.8438 27.9475 33.8438 27.9475 33.8438 27.9475C33.8438 27.9475 33.8438 27.9475 33.8438 27.9475H33.8438C33.8438 27.9475 33.8438 27.9475 33.8438 27.9475H33.8438C33.8438 27.9475 33.8438 27.9475 33.8438 27.9475C33.8438 27.9475 33.8438 27.9475 33.8438 27.9475H33.8438C33.8438 27.9475 33.8438 27.9475 33.8438 27.9475H33.8438C33.8438 27.9475 33.8438 27.9475 33.8438 27.9475C33.8438 27.9475 33.8438 27.9475 33.8438 27.9475V24.9475ZM35.3438 26.4475V18.5752H32.3438V26.4475H35.3438Z" fill="black" mask="url(#path-4-inside-1_1_11659)"/>
<rect x="28.2524" y="21.4951" width="2.89179" height="1.92786" rx="0.963929" fill="#1BC5AC"/>
</g>
<defs>
<linearGradient id="paint0_linear_1_11659" x1="20.5" y1="45.5" x2="40.5822" y2="-6.71359" gradientUnits="userSpaceOnUse">
<stop stop-color="#C0F3EB"/>
<stop offset="1" stop-color="#FBFFFE"/>
</linearGradient>
<clipPath id="clip0_1_11659">
<rect width="44" height="44" fill="white"/>
</clipPath>
</defs>
</svg>
