<svg width="40" height="40" viewBox="0 0 40 40" fill="none" xmlns="http://www.w3.org/2000/svg">
<path d="M4.50767 4.54801L4.50771 4.54797C8.11498 0.943426 13.3372 0.5 20 0.5C26.6544 0.5 31.869 0.938432 35.4778 4.53344C39.0927 8.1361 39.5 13.3523 39.5 20.0193C39.5 26.6793 39.097 31.8908 35.4902 35.4949L35.4901 35.4949C31.8839 39.0991 26.6661 39.5 20 39.5C13.3339 39.5 8.11535 39.0991 4.50917 35.4949L4.5091 35.4949C0.902337 31.8915 0.5 26.6794 0.5 20.0193C0.5 13.3606 0.90234 8.14992 4.50767 4.54801Z" fill="#F0FCFA" stroke="url(#paint0_linear_131_13066)"/>
<path d="M12.7871 12.9444C12.7871 10.618 14.6737 8.73145 17.0001 8.73145C19.3265 8.73145 21.213 10.618 21.213 12.9444C21.213 15.2708 19.3265 18 17.0001 18C14.6737 18 12.7871 15.2708 12.7871 12.9444Z" fill="white" stroke="#040C22" stroke-width="1.5" stroke-linecap="round" stroke-linejoin="round"/>
<path d="M22.834 27.333C22.834 29.8183 24.8487 31.833 27.334 31.833C29.8193 31.833 31.834 29.8183 31.834 27.333C31.834 24.8477 29.8193 22.833 27.334 22.833C24.8487 22.833 22.834 24.8477 22.834 27.333Z" fill="#1BC5AC"/>
<path d="M27.6731 25.9805L29.1094 27.4168L27.6731 28.8531" stroke="white" stroke-linecap="round" stroke-linejoin="round"/>
<path d="M25.724 27.417L29.1094 27.417" stroke="white" stroke-linecap="round" stroke-linejoin="round"/>
<path fill-rule="evenodd" clip-rule="evenodd" d="M20.0396 27.1553C20.014 26.9402 20.0009 26.7214 20.0009 26.4995C20.0009 24.4496 21.1223 22.6617 22.7852 21.7156C21.9055 20.9741 20.7693 20.5273 19.5286 20.5273L14.473 20.5273C11.6806 20.5273 9.41744 22.7905 9.41744 25.5829L9.41744 26.4255C9.41744 26.4255 12.0505 27.2681 17.0008 27.2681C18.1371 27.2681 19.1513 27.2237 20.0396 27.1553Z" fill="white"/>
<path d="M20.0396 27.1553L20.0972 27.9031C20.3008 27.8874 20.4893 27.7893 20.619 27.6314C20.7487 27.4736 20.8084 27.2697 20.7843 27.0668L20.0396 27.1553ZM22.7852 21.7156L23.156 22.3675C23.3692 22.2463 23.5096 22.0284 23.532 21.7842C23.5544 21.54 23.456 21.3003 23.2685 21.1422L22.7852 21.7156ZM9.41744 26.4255L8.66744 26.4255C8.66744 26.7516 8.87823 27.0404 9.18886 27.1398L9.41744 26.4255ZM17.0008 27.2681L17.0008 26.5181L17.0008 27.2681ZM19.2509 26.4995C19.2509 26.7511 19.2658 26.9994 19.2948 27.2438L20.7843 27.0668C20.7623 26.8811 20.7509 26.6918 20.7509 26.4995L19.2509 26.4995ZM22.4143 21.0638C20.5267 22.1377 19.2509 24.1691 19.2509 26.4995L20.7509 26.4995C20.7509 24.7301 21.718 23.1856 23.156 22.3675L22.4143 21.0638ZM23.2685 21.1422C22.2587 20.2909 20.9526 19.7773 19.5286 19.7773L19.5286 21.2773C20.5859 21.2773 21.5523 21.6574 22.3018 22.2891L23.2685 21.1422ZM19.5286 19.7773L14.473 19.7773L14.473 21.2773L19.5286 21.2773L19.5286 19.7773ZM14.473 19.7773C11.2664 19.7773 8.66744 22.3763 8.66744 25.5829L10.1674 25.5829C10.1674 23.2048 12.0949 21.2773 14.473 21.2773L14.473 19.7773ZM8.66744 25.5829L8.66744 26.4255L10.1674 26.4255L10.1674 25.5829L8.66744 25.5829ZM9.41744 26.4255C9.18886 27.1398 9.18906 27.1399 9.18927 27.1399C9.18936 27.14 9.18958 27.14 9.18974 27.1401C9.19008 27.1402 9.19045 27.1403 9.19087 27.1404C9.1917 27.1407 9.19269 27.141 9.19384 27.1414C9.19615 27.1421 9.1991 27.143 9.20269 27.1442C9.20988 27.1464 9.21964 27.1494 9.23197 27.1531C9.25662 27.1605 9.29153 27.1708 9.33662 27.1835C9.42679 27.209 9.55768 27.2442 9.72867 27.2858C10.0706 27.3692 10.573 27.4783 11.2307 27.5868C12.5463 27.8038 14.4829 28.0181 17.0008 28.0181L17.0008 26.5181C14.5684 26.5181 12.7134 26.3111 11.4748 26.1068C10.8555 26.0046 10.3902 25.9031 10.0838 25.8285C9.93055 25.7911 9.81705 25.7605 9.74389 25.7399C9.70731 25.7295 9.68081 25.7217 9.66448 25.7168C9.65631 25.7143 9.65068 25.7126 9.6476 25.7117C9.64606 25.7112 9.64516 25.7109 9.6449 25.7108C9.64477 25.7108 9.6448 25.7108 9.64498 25.7108C9.64508 25.7109 9.64521 25.7109 9.64538 25.711C9.64547 25.711 9.64563 25.711 9.64568 25.7111C9.64585 25.7111 9.64603 25.7112 9.41744 26.4255ZM17.0008 28.0181C18.1566 28.0181 19.19 27.9729 20.0972 27.9031L19.982 26.4075C19.1125 26.4744 18.1175 26.5181 17.0008 26.5181L17.0008 28.0181Z" fill="#040C22"/>
<defs>
<linearGradient id="paint0_linear_131_13066" x1="20" y1="26.6667" x2="20" y2="-13.75" gradientUnits="userSpaceOnUse">
<stop stop-color="#C0F3EB"/>
<stop offset="1" stop-color="#FBFFFE"/>
</linearGradient>
</defs>
</svg>
