<svg width="76" height="75" viewBox="0 0 76 75" fill="none" xmlns="http://www.w3.org/2000/svg">
<g filter="url(#filter0_d_1_11769)">
<path fill-rule="evenodd" clip-rule="evenodd" d="M60.9545 11.06C55.4829 5.609 47.6145 5 38 5C28.373 5 20.4933 5.61625 15.0237 11.0817C9.55514 16.5451 9 24.4124 9 34.028C9 43.6456 9.55514 51.515 15.0258 56.9804C20.4954 62.4469 28.3741 63 38 63C47.6259 63 55.5036 62.4469 60.9732 56.9804C66.4438 51.5139 67 43.6456 67 34.028C67 24.4 66.4376 16.5244 60.9545 11.06Z" fill="#D3F6F1"/>
<path d="M61.4002 57.4078C67.0715 51.7408 67.6042 43.6128 67.6042 34.028C67.6042 24.4326 67.0653 16.2969 61.381 10.632L61.3809 10.6319C55.7101 4.98255 47.5859 4.39583 38 4.39583C28.4015 4.39583 20.2655 4.98978 14.5967 10.6543M61.4002 57.4078L60.9732 56.9804M61.4002 57.4078L60.9732 56.9804M61.4002 57.4078C55.7301 63.0747 47.5927 63.6042 38 63.6042C28.4073 63.6042 20.2689 63.0747 14.5988 57.4078C8.92744 51.7419 8.39583 43.6126 8.39583 34.028C8.39583 24.4454 8.92743 16.3182 14.5967 10.6543M60.9732 56.9804C66.4438 51.5139 67 43.6456 67 34.028C67 24.4 66.4376 16.5244 60.9545 11.06C55.4829 5.609 47.6145 5 38 5C28.373 5 20.4933 5.61625 15.0237 11.0817M60.9732 56.9804C55.5036 62.4469 47.6259 63 38 63C28.3741 63 20.4954 62.4469 15.0258 56.9804C9.55514 51.515 9 43.6456 9 34.028C9 24.4124 9.55514 16.5451 15.0237 11.0817M14.5967 10.6543L15.0237 11.0817M14.5967 10.6543L15.0237 11.0817" stroke="url(#paint0_linear_1_11769)" stroke-width="1.20833"/>
</g>
<mask id="mask0_1_11769" style="mask-type:alpha" maskUnits="userSpaceOnUse" x="9" y="5" width="58" height="58">
<path fill-rule="evenodd" clip-rule="evenodd" d="M60.9545 11.06C55.4829 5.609 47.6145 5 38 5C28.373 5 20.4933 5.61625 15.0237 11.0817C9.55514 16.5451 9 24.4124 9 34.028C9 43.6456 9.55514 51.515 15.0258 56.9804C20.4954 62.4469 28.3741 63 38 63C47.6259 63 55.5036 62.4469 60.9732 56.9804C66.4438 51.5139 67 43.6456 67 34.028C67 24.4 66.4376 16.5244 60.9545 11.06Z" fill="white"/>
</mask>
<g mask="url(#mask0_1_11769)">
<path d="M41.959 18.5756C41.8039 18.7259 41.7326 18.9433 41.768 19.1565L42.3004 22.1029C42.3453 22.3526 42.2399 22.6054 42.0309 22.7497C41.8261 22.8994 41.5536 22.9174 41.3302 22.7976L38.6778 21.4142C38.5856 21.3651 38.4832 21.3388 38.3784 21.3358H38.2161C38.1598 21.3442 38.1047 21.3621 38.0544 21.3897L35.4015 22.7796C35.2703 22.8455 35.1218 22.8689 34.9763 22.8455C34.6217 22.7784 34.3852 22.4407 34.4433 22.0844L34.9763 19.138C35.0116 18.923 34.9403 18.7044 34.7852 18.5517L32.6227 16.4557C32.4419 16.2802 32.379 16.0167 32.4616 15.7789C32.5419 15.5418 32.7467 15.3687 32.994 15.3298L35.9704 14.898C36.1967 14.8747 36.3956 14.7369 36.4974 14.5333L37.8089 11.8444C37.84 11.7845 37.8801 11.7294 37.9287 11.6827L37.9826 11.6408C38.0107 11.6097 38.043 11.5839 38.079 11.5629L38.1442 11.539L38.2461 11.4971H38.4982C38.7233 11.5204 38.9216 11.6552 39.0252 11.8564L40.354 14.5333C40.4499 14.7291 40.6361 14.8651 40.8511 14.898L43.8274 15.3298C44.079 15.3657 44.2892 15.5394 44.3724 15.7789C44.4509 16.0191 44.3832 16.2826 44.1987 16.4557L41.959 18.5756Z" fill="#1BC5AC"/>
<path d="M29.4067 21.4743C29.3292 21.5495 29.2936 21.6582 29.3112 21.7648L29.5774 23.238C29.5999 23.3628 29.5472 23.4892 29.4427 23.5614C29.3403 23.6362 29.204 23.6452 29.0923 23.5853L27.7662 22.8936C27.72 22.8691 27.6688 22.8559 27.6164 22.8544H27.5353C27.5072 22.8586 27.4796 22.8676 27.4545 22.8814L26.128 23.5763C26.0624 23.6093 25.9881 23.621 25.9154 23.6093C25.7381 23.5757 25.6198 23.4069 25.6489 23.2287L25.9154 21.7555C25.933 21.648 25.8974 21.5387 25.8199 21.4624L24.7386 20.4143C24.6482 20.3266 24.6167 20.1949 24.6581 20.076C24.6982 19.9574 24.8006 19.8709 24.9243 19.8514L26.4124 19.6355C26.5256 19.6239 26.625 19.555 26.6759 19.4532L27.3317 18.1087C27.3473 18.0788 27.3673 18.0512 27.3916 18.0279L27.4185 18.0069C27.4326 17.9914 27.4488 17.9785 27.4667 17.968L27.4994 17.956L27.5503 17.9351H27.6763C27.7889 17.9467 27.888 18.0141 27.9398 18.1147L28.6043 19.4532C28.6522 19.5511 28.7453 19.6191 28.8528 19.6355L30.341 19.8514C30.4667 19.8694 30.5718 19.9562 30.6135 20.076C30.6527 20.1961 30.6188 20.3278 30.5266 20.4143L29.4067 21.4743Z" fill="#1BC5AC"/>
<path d="M50.9658 21.4743C50.8883 21.5495 50.8526 21.6582 50.8703 21.7648L51.1365 23.238C51.159 23.3628 51.1063 23.4892 51.0018 23.5614C50.8994 23.6362 50.7631 23.6452 50.6514 23.5853L49.3252 22.8936C49.2791 22.8691 49.2279 22.8559 49.1755 22.8544H49.0944C49.0662 22.8586 49.0387 22.8676 49.0135 22.8814L47.6871 23.5763C47.6215 23.6093 47.5472 23.621 47.4745 23.6093C47.2972 23.5757 47.1789 23.4069 47.208 23.2287L47.4745 21.7555C47.4921 21.648 47.4565 21.5387 47.3789 21.4624L46.2977 20.4143C46.2073 20.3266 46.1758 20.1949 46.2171 20.076C46.2573 19.9574 46.3597 19.8709 46.4833 19.8514L47.9715 19.6355C48.0847 19.6239 48.1841 19.555 48.235 19.4532L48.8908 18.1087C48.9063 18.0788 48.9264 18.0512 48.9507 18.0279L48.9776 18.0069C48.9917 17.9914 49.0078 17.9785 49.0258 17.968L49.0584 17.956L49.1094 17.9351H49.2354C49.348 17.9467 49.4471 18.0141 49.4989 18.1147L50.1634 19.4532C50.2113 19.5511 50.3044 19.6191 50.4119 19.6355L51.9001 19.8514C52.0258 19.8694 52.1309 19.9562 52.1725 20.076C52.2118 20.1961 52.1779 20.3278 52.0857 20.4143L50.9658 21.4743Z" fill="#1BC5AC"/>
<path fill-rule="evenodd" clip-rule="evenodd" d="M29.0707 29.3335H47.3052C53.4193 29.3335 58.3759 34.2901 58.3759 40.4042V55.5452C58.3759 61.6592 53.4193 66.6159 47.3052 66.6159H29.0707C22.9566 66.6159 18 61.6592 18 55.5452V40.4042C18 34.2901 22.9566 29.3335 29.0707 29.3335Z" fill="white" stroke="#040C22" stroke-width="2.41667" stroke-linecap="round" stroke-linejoin="round"/>
<path d="M27.5688 38.9071H38.9587" stroke="#1BC5AC" stroke-width="3.10714" stroke-linecap="round" stroke-linejoin="round"/>
<path d="M58.3753 53.3748H49.8348C46.699 53.3729 44.1572 50.833 44.1553 47.6972C44.1553 44.5613 46.699 42.0215 49.8348 42.0195H58.3753" stroke="#040C22" stroke-width="2.41667" stroke-linecap="round" stroke-linejoin="round"/>
<path d="M50.8018 47.5668H50.1443" stroke="#1BC5AC" stroke-width="2.41667" stroke-linecap="round" stroke-linejoin="round"/>
</g>
<defs>
<filter id="filter0_d_1_11769" x="0.886742" y="0.339123" width="74.2265" height="74.2265" filterUnits="userSpaceOnUse" color-interpolation-filters="sRGB">
<feFlood flood-opacity="0" result="BackgroundImageFix"/>
<feColorMatrix in="SourceAlpha" type="matrix" values="0 0 0 0 0 0 0 0 0 0 0 0 0 0 0 0 0 0 127 0" result="hardAlpha"/>
<feOffset dy="3.45238"/>
<feGaussianBlur stdDeviation="3.45238"/>
<feColorMatrix type="matrix" values="0 0 0 0 0.840451 0 0 0 0 0.979167 0 0 0 0 0.958767 0 0 0 1 0"/>
<feBlend mode="normal" in2="BackgroundImageFix" result="effect1_dropShadow_1_11769"/>
<feBlend mode="normal" in="SourceGraphic" in2="effect1_dropShadow_1_11769" result="shape"/>
</filter>
<linearGradient id="paint0_linear_1_11769" x1="39.7262" y1="68.869" x2="61.1256" y2="13.2305" gradientUnits="userSpaceOnUse">
<stop stop-color="#1BC5AC"/>
<stop offset="1" stop-color="#B8FAF0" stop-opacity="0.3"/>
</linearGradient>
</defs>
</svg>
