<svg width="30" height="30" viewBox="0 0 30 30" fill="none" xmlns="http://www.w3.org/2000/svg">
<path fill-rule="evenodd" clip-rule="evenodd" d="M26.0815 3.9255C23.44 1.294 19.6415 1 15 1C10.3525 1 6.5485 1.2975 3.908 3.936C1.268 6.5735 1 10.3715 1 15.0135C1 19.6565 1.268 23.4555 3.909 26.094C6.5495 28.733 10.353 29 15 29C19.647 29 23.45 28.733 26.0905 26.094C28.7315 23.455 29 19.6565 29 15.0135C29 10.3655 28.7285 6.5635 26.0815 3.9255Z" fill="#D3F6F1" stroke="url(#paint0_linear_5372_27660)" stroke-width="0.583333"/>
<g clip-path="url(#clip0_5372_27660)">
<path d="M15.2915 6.25L23.627 15.4375H6.95601L15.2915 6.25Z" fill="white"/>
<rect x="8" y="15.0253" width="14.5833" height="8.64855" fill="white"/>
<path d="M23.8811 23.4296H22.5249V16.1963H23.4291C23.7947 16.1963 24.1244 15.976 24.2645 15.6381C24.4043 15.3003 24.3272 14.9115 24.0686 14.6526L15.9311 6.51516C15.7545 6.33885 15.5231 6.25055 15.2916 6.25055C15.0601 6.25055 14.8287 6.33885 14.6524 6.51548L12.127 9.04049V8.05887C12.127 7.55946 11.7223 7.15471 11.2229 7.15471H10.3187C9.81932 7.15471 9.41457 7.55946 9.41457 8.05887V11.753L6.51493 14.6526C6.25632 14.9112 6.17887 15.3 6.31901 15.6381C6.45884 15.976 6.78858 16.1963 7.15416 16.1963H8.05832V23.4296H6.70208C6.45224 23.4296 6.25 23.6319 6.25 23.8817C6.25 24.1315 6.45224 24.3338 6.70208 24.3338H23.8811C24.131 24.3338 24.3332 24.1315 24.3332 23.8817C24.3332 23.6319 24.131 23.4296 23.8811 23.4296ZM10.3187 8.05887H11.2229V9.94465L10.3187 10.8488V8.05887ZM21.6207 23.4296H8.96248V15.2922H7.15416L15.2916 7.15471L23.4291 15.2922H21.6207V23.4296Z" fill="#040C22" stroke="black" stroke-width="0.116667"/>
<path d="M18.3293 19.4961C18.22 19.6053 18.0718 19.6666 17.9173 19.6666C17.7628 19.6666 17.6147 19.6053 17.5054 19.4961L15.5868 17.5775L13.6682 19.4961C13.5583 19.6022 13.4112 19.6609 13.2584 19.6596C13.1056 19.6583 12.9595 19.597 12.8515 19.489C12.7434 19.3809 12.6822 19.2348 12.6808 19.082C12.6795 18.9293 12.7382 18.7821 12.8444 18.6722L14.763 16.7536L12.8444 14.835C12.7887 14.7813 12.7443 14.717 12.7138 14.6459C12.6833 14.5748 12.6672 14.4984 12.6665 14.421C12.6659 14.3436 12.6806 14.2669 12.7099 14.1953C12.7392 14.1237 12.7824 14.0587 12.8372 14.004C12.8919 13.9493 12.9569 13.906 13.0285 13.8767C13.1001 13.8474 13.1768 13.8327 13.2542 13.8333C13.3316 13.834 13.408 13.8501 13.4791 13.8806C13.5502 13.9111 13.6145 13.9555 13.6682 14.0112L15.5868 15.9298L17.5054 14.0112C17.6153 13.9051 17.7625 13.8463 17.9152 13.8477C18.068 13.849 18.2141 13.9103 18.3222 14.0183C18.4302 14.1263 18.4915 14.2724 18.4928 14.4252C18.4941 14.578 18.4354 14.7251 18.3293 14.835L16.4107 16.7536L18.3293 18.6722C18.4385 18.7815 18.4998 18.9296 18.4998 19.0841C18.4998 19.2386 18.4385 19.3868 18.3293 19.4961Z" fill="#1BC5AC"/>
</g>
<defs>
<linearGradient id="paint0_linear_5372_27660" x1="15" y1="31.3333" x2="28.3881" y2="-3.47573" gradientUnits="userSpaceOnUse">
<stop stop-color="#C0F3EB"/>
<stop offset="1" stop-color="#FBFFFE"/>
</linearGradient>
<clipPath id="clip0_5372_27660">
<rect width="19.25" height="19.8333" fill="white" transform="translate(5.6665 5.66669)"/>
</clipPath>
</defs>
</svg>
