<svg width="24" height="24" viewBox="0 0 24 24" fill="none" xmlns="http://www.w3.org/2000/svg">
<path d="M3.30492 13.15C3.10645 12.8662 3 12.5283 3 12.182C3 11.8358 3.10645 11.4979 3.30492 11.2141C4.59196 9.39195 7.76087 5.63638 12 5.63638C16.2391 5.63638 19.408 9.39195 20.6951 11.2141C20.8936 11.4979 21 11.8358 21 12.182C21 12.5283 20.8936 12.8662 20.6951 13.15C19.408 14.9721 16.2391 18.7277 12 18.7277C7.76087 18.7277 4.59196 14.9721 3.30492 13.15Z" stroke="#A7AAB2" stroke-width="1.5" stroke-miterlimit="10" stroke-linecap="round"/>
<path d="M12 15.4549C13.8075 15.4549 15.2728 13.9896 15.2728 12.1821C15.2728 10.3746 13.8075 8.90927 12 8.90927C10.1925 8.90927 8.72717 10.3746 8.72717 12.1821C8.72717 13.9896 10.1925 15.4549 12 15.4549Z" stroke="#A7AAB2" stroke-width="1.5" stroke-miterlimit="10" stroke-linecap="round"/>
</svg>
