<svg width="50" height="50" viewBox="0 0 50 50" fill="none" xmlns="http://www.w3.org/2000/svg">
<path d="M44.3498 5.66099L44.3497 5.66092C39.6566 0.985562 32.9331 0.5 25 0.5C17.0564 0.5 10.3232 0.991574 5.63172 5.67946C0.939943 10.3668 0.5 17.0927 0.5 25.0231C0.5 32.9553 0.939943 39.6829 5.6334 44.3719C10.3259 49.0618 17.0612 49.5 25 49.5C32.9388 49.5 39.6732 49.0618 44.3657 44.372C49.0592 39.6821 49.5 32.9554 49.5 25.0231C49.5 17.0821 49.054 10.3492 44.3498 5.66099Z" fill="white" stroke="url(#paint0_linear_131_12476)"/>
<path d="M36.1161 25.6766C36.6157 25.6766 37.0949 25.4537 37.4482 25.057C37.8015 24.6603 38 24.1222 38 23.5611V21.4456C38 20.8845 37.8015 20.3464 37.4482 19.9497C37.0949 19.553 36.6157 19.3301 36.1161 19.3301H13.5089C13.0093 19.3301 12.5301 19.553 12.1768 19.9497C11.8235 20.3464 11.625 20.8845 11.625 21.4456V23.5611C11.625 24.1222 11.8235 24.6603 12.1768 25.057C12.5301 25.4537 13.0093 25.6766 13.5089 25.6766H36.1161ZM36.1161 25.6766V36.2542C36.1161 37.3763 35.7191 38.4525 35.0125 39.246C34.3059 40.0394 33.3475 40.4852 32.3482 40.4852H17.2768C16.2775 40.4852 15.3191 40.0394 14.6125 39.246C13.9059 38.4525 13.5089 37.3763 13.5089 36.2542V25.6766H36.1161ZM24.8125 19.3301V40.4852Z" fill="white"/>
<path d="M36.1161 25.6766H13.5089M36.1161 25.6766C36.6157 25.6766 37.0949 25.4537 37.4482 25.057C37.8015 24.6603 38 24.1222 38 23.5611V21.4456C38 20.8845 37.8015 20.3464 37.4482 19.9497C37.0949 19.553 36.6157 19.3301 36.1161 19.3301H13.5089C13.0093 19.3301 12.5301 19.553 12.1768 19.9497C11.8235 20.3464 11.625 20.8845 11.625 21.4456V23.5611C11.625 24.1222 11.8235 24.6603 12.1768 25.057C12.5301 25.4537 13.0093 25.6766 13.5089 25.6766M36.1161 25.6766V36.2542C36.1161 37.3763 35.7191 38.4525 35.0125 39.246C34.3059 40.0394 33.3475 40.4852 32.3482 40.4852H17.2768C16.2775 40.4852 15.3191 40.0394 14.6125 39.246C13.9059 38.4525 13.5089 37.3763 13.5089 36.2542V25.6766M24.8125 19.3301V40.4852" stroke="#040C22" stroke-width="2"/>
<path d="M24.8126 16.0203H19.795C19.4513 16.0203 19.1109 15.9577 18.7934 15.8363C18.4759 15.7148 18.1873 15.5367 17.9443 15.3123C17.4535 14.8589 17.1777 14.2441 17.1777 13.6029V13.1996C17.1777 12.4515 17.4995 11.734 18.0722 11.2051C18.6449 10.6761 19.4217 10.3789 20.2317 10.3789C21.4466 10.3789 22.6118 10.8247 23.4709 11.6181C24.33 12.4116 24.8126 13.4878 24.8126 14.6099V16.0203ZM24.8126 16.0203H29.8302C31.2763 16.0203 32.4475 14.9371 32.4475 13.6029V13.1996C32.4475 12.4515 32.1257 11.734 31.553 11.2051C30.9803 10.6761 30.2035 10.3789 29.3935 10.3789C28.1786 10.3789 27.0134 10.8247 26.1543 11.6181C25.2952 12.4116 24.8126 13.4878 24.8126 14.6099V16.0203Z" fill="white"/>
<path d="M24.8126 16.0203V14.6099M24.8126 16.0203H19.795C19.4513 16.0203 19.1109 15.9577 18.7934 15.8363C18.4759 15.7148 18.1873 15.5367 17.9443 15.3123C17.4535 14.8589 17.1777 14.2441 17.1777 13.6029V13.1996C17.1777 12.4515 17.4995 11.734 18.0722 11.2051C18.6449 10.6761 19.4217 10.3789 20.2317 10.3789C21.4466 10.3789 22.6118 10.8247 23.4709 11.6181C24.33 12.4116 24.8126 13.4878 24.8126 14.6099M24.8126 16.0203H29.8302C31.2763 16.0203 32.4475 14.9371 32.4475 13.6029V13.1996C32.4475 12.4515 32.1257 11.734 31.553 11.2051C30.9803 10.6761 30.2035 10.3789 29.3935 10.3789C28.1786 10.3789 27.0134 10.8247 26.1543 11.6181C25.2952 12.4116 24.8126 13.4878 24.8126 14.6099" stroke="#1BC5AC" stroke-width="2"/>
<defs>
<linearGradient id="paint0_linear_131_12476" x1="25" y1="53" x2="47.951" y2="-6.67268" gradientUnits="userSpaceOnUse">
<stop stop-color="#C0F3EB"/>
<stop offset="1" stop-color="#FBFFFE"/>
</linearGradient>
</defs>
</svg>
