<svg width="40" height="40" viewBox="0 0 40 40" fill="none" xmlns="http://www.w3.org/2000/svg">
<path d="M4.50767 4.54801L4.50771 4.54797C8.11498 0.943426 13.3372 0.5 20 0.5C26.6544 0.5 31.869 0.938432 35.4778 4.53344C39.0927 8.1361 39.5 13.3523 39.5 20.0193C39.5 26.6793 39.097 31.8908 35.4902 35.4949L35.4901 35.4949C31.8839 39.0991 26.6661 39.5 20 39.5C13.3339 39.5 8.11535 39.0991 4.50917 35.4949L4.5091 35.4949C0.902337 31.8915 0.5 26.6794 0.5 20.0193C0.5 13.3606 0.90234 8.14992 4.50767 4.54801Z" fill="#F0FCFA" stroke="url(#paint0_linear_131_12975)"/>
<g clip-path="url(#clip0_131_12975)">
<path d="M21.6618 9.50294C20.7794 9.03235 19.7206 9.03235 18.8382 9.50294L9.52941 14.4676C9.20355 14.6414 9 14.9807 9 15.35V16.75C9 17.3023 9.44772 17.75 10 17.75H30.5C31.0523 17.75 31.5 17.3023 31.5 16.75V15.35C31.5 14.9807 31.2965 14.6414 30.9706 14.4676L21.6618 9.50294Z" fill="white" stroke="#040C22" stroke-width="1.5" stroke-miterlimit="10" stroke-linecap="square"/>
<path d="M13 26V20" stroke="#1BC5AC" stroke-width="1.5" stroke-miterlimit="10" stroke-linecap="round"/>
<path d="M18 26V20" stroke="#1BC5AC" stroke-width="1.5" stroke-miterlimit="10" stroke-linecap="round"/>
<path d="M23 26V20" stroke="#1BC5AC" stroke-width="1.5" stroke-miterlimit="10" stroke-linecap="round"/>
<path d="M28 26V20" stroke="#1BC5AC" stroke-width="1.5" stroke-miterlimit="10" stroke-linecap="round"/>
<path d="M20 15.5C20.8284 15.5 21.5 14.8284 21.5 14C21.5 13.1716 20.8284 12.5 20 12.5C19.1716 12.5 18.5 13.1716 18.5 14C18.5 14.8284 19.1716 15.5 20 15.5Z" stroke="#040C22" stroke-width="1.5" stroke-miterlimit="10" stroke-linecap="square"/>
<path d="M30.25 28.25H9.75C9.19772 28.25 8.75 28.6977 8.75 29.25V30.25C8.75 30.8023 9.19772 31.25 9.75 31.25H30.25C30.8023 31.25 31.25 30.8023 31.25 30.25V29.25C31.25 28.6977 30.8023 28.25 30.25 28.25Z" fill="white" stroke="#040C22" stroke-width="1.5" stroke-miterlimit="10" stroke-linecap="square"/>
</g>
<defs>
<linearGradient id="paint0_linear_131_12975" x1="20" y1="26.6667" x2="20" y2="-13.75" gradientUnits="userSpaceOnUse">
<stop stop-color="#C0F3EB"/>
<stop offset="1" stop-color="#FBFFFE"/>
</linearGradient>
<clipPath id="clip0_131_12975">
<rect width="24" height="24" fill="white" transform="translate(8 8)"/>
</clipPath>
</defs>
</svg>
