<svg width="24" height="24" viewBox="0 0 24 24" fill="none" xmlns="http://www.w3.org/2000/svg">
<path d="M12 2C6.50391 2 2 6.50391 2 12C2 17.4961 6.50391 22 12 22C17.4961 22 22 17.4961 22 12C22 6.50391 17.4961 2 12 2ZM5.43754 15.8437C4.76957 14.7188 4.38281 13.4062 4.38281 12C4.38281 7.81641 7.75781 4.39453 11.9765 4.38281C13.3945 4.38281 14.707 4.76949 15.8437 5.43746C16.1836 5.63672 16.2539 6.08203 15.9844 6.36328C14.1914 8.15621 8.15621 14.1914 6.36328 15.9843C6.08203 16.2539 5.63672 16.1836 5.43754 15.8437ZM12.0235 19.6172C10.6055 19.6172 9.29297 19.2304 8.15625 18.5625C7.81645 18.3633 7.74613 17.9062 8.02734 17.6367L17.6367 8.02734C17.9062 7.74609 18.3633 7.81641 18.5625 8.15625C19.2304 9.28125 19.6172 10.5938 19.6172 12C19.6172 16.207 16.2187 19.6055 12.0235 19.6172Z" fill="#5C616F"/>
</svg>
