<svg width="29" height="30" viewBox="0 0 29 30" fill="none" xmlns="http://www.w3.org/2000/svg">
<path fill-rule="evenodd" clip-rule="evenodd" d="M25.5815 3.9255C22.94 1.294 19.1415 1 14.5 1C9.8525 1 6.0485 1.2975 3.408 3.936C0.768 6.5735 0.5 10.3715 0.5 15.0135C0.5 19.6565 0.768 23.4555 3.409 26.094C6.0495 28.733 9.853 29 14.5 29C19.147 29 22.95 28.733 25.5905 26.094C28.2315 23.455 28.5 19.6565 28.5 15.0135C28.5 10.3655 28.2285 6.5635 25.5815 3.9255Z" fill="#D3F6F1" stroke="url(#paint0_linear_5372_27684)" stroke-width="0.583333"/>
<rect x="5.75" y="6.83331" width="17.6169" height="15.8552" rx="4.08333" fill="white" stroke="#040C22" stroke-width="1.16667"/>
<mask id="path-3-inside-1_5372_27684" fill="white">
<path fill-rule="evenodd" clip-rule="evenodd" d="M23.3669 11.6693V17.1079H20.8204C19.3186 17.1079 18.1011 15.8905 18.1011 14.3886C18.1011 12.8868 19.3186 11.6693 20.8204 11.6693H23.3669Z"/>
</mask>
<path fill-rule="evenodd" clip-rule="evenodd" d="M23.3669 11.6693V17.1079H20.8204C19.3186 17.1079 18.1011 15.8905 18.1011 14.3886C18.1011 12.8868 19.3186 11.6693 20.8204 11.6693H23.3669Z" fill="white"/>
<path d="M23.3669 11.6693H24.2419V10.7943H23.3669V11.6693ZM23.3669 17.1079V17.9829H24.2419V17.1079H23.3669ZM22.4919 11.6693V17.1079H24.2419V11.6693H22.4919ZM23.3669 16.2329H20.8204V17.9829H23.3669V16.2329ZM20.8204 16.2329C19.8018 16.2329 18.9761 15.4072 18.9761 14.3886H17.2261C17.2261 16.3737 18.8353 17.9829 20.8204 17.9829V16.2329ZM18.9761 14.3886C18.9761 13.37 19.8018 12.5443 20.8204 12.5443V10.7943C18.8353 10.7943 17.2261 12.4035 17.2261 14.3886H18.9761ZM20.8204 12.5443H23.3669V10.7943H20.8204V12.5443Z" fill="black" mask="url(#path-3-inside-1_5372_27684)"/>
<rect x="20.1733" y="13.7419" width="1.38172" height="1.38172" rx="0.583333" fill="#1BC5AC"/>
<path d="M15.8705 14.0076C16.0073 14.0405 16.0513 14.2133 15.9469 14.3076L11.2341 18.5646C11.0918 18.6931 10.8762 18.5323 10.9589 18.3593L12.2537 15.6494C12.3017 15.549 12.2449 15.4299 12.1367 15.4038L9.34453 14.7326C9.20768 14.6997 9.16368 14.527 9.26813 14.4326L13.981 10.1757C14.1232 10.0472 14.3388 10.208 14.2562 10.381L12.9614 13.0908C12.9134 13.1913 12.9701 13.3104 13.0784 13.3364L15.8705 14.0076Z" fill="#1BC5AC"/>
<defs>
<linearGradient id="paint0_linear_5372_27684" x1="14.5" y1="31.3333" x2="27.8881" y2="-3.47573" gradientUnits="userSpaceOnUse">
<stop stop-color="#C0F3EB"/>
<stop offset="1" stop-color="#FBFFFE"/>
</linearGradient>
</defs>
</svg>
