<svg width="32" height="32" viewBox="0 0 32 32" fill="none" xmlns="http://www.w3.org/2000/svg">
<path d="M3.67685 3.70912L3.67681 3.70915C0.825768 6.5575 0.5 10.683 0.5 16.0154C0.5 21.349 0.825765 25.4756 3.67796 28.3251L3.67802 28.3252C6.52978 31.1753 10.6616 31.5 16 31.5C21.3383 31.5 25.4696 31.1753 28.3214 28.3252L28.3214 28.3252C31.1737 25.4751 31.5 21.3489 31.5 16.0154C31.5 10.6765 31.1703 6.54659 28.3117 3.69765L3.67685 3.70912ZM3.67685 3.70912C6.5297 0.858426 10.6651 0.5 16 0.5C21.3282 0.5 25.4576 0.854432 28.3116 3.69758L3.67685 3.70912Z" fill="#F0FCFA" stroke="url(#paint0_linear_131_13134)"/>
<path d="M17.9199 23.6799H21.5199C22.713 23.6799 23.6799 22.3906 23.6799 20.7999V17.9199" stroke="#040C22" stroke-width="1.5" stroke-miterlimit="10" stroke-linecap="square"/>
<path d="M25.5997 17.8809C25.5997 18.4331 25.152 18.8809 24.5997 18.8809H23.6797V15.0409H24.8317C25.2558 15.0409 25.5997 15.5321 25.5997 16.138V17.8809Z" fill="#040C22" stroke="#040C22" stroke-width="1.5" stroke-miterlimit="10" stroke-linecap="square"/>
<path d="M6.40031 18.2412C6.40031 18.7714 6.83012 19.2012 7.36031 19.2012C7.89051 19.2012 8.32031 18.7714 8.32031 18.2412V15.3612H7.16831C6.74419 15.3612 6.40031 15.8524 6.40031 16.4583V18.2412Z" fill="#040C22" stroke="#040C22" stroke-width="1.5" stroke-miterlimit="10" stroke-linecap="square"/>
<path d="M23.6803 14.7204V13.964C23.6803 9.78663 20.242 6.40039 16.0003 6.40039C11.7586 6.40039 8.32031 9.78663 8.32031 13.964V14.7204" stroke="#040C22" stroke-width="1.5" stroke-miterlimit="10" stroke-linecap="square"/>
<path d="M10.9696 19.2002H15.4514V17.8471H12.9976V17.803L13.7219 17.0366C15.0345 15.7242 15.3774 15.0562 15.3774 14.2593C15.3774 13.0079 14.4876 12.1602 13.1129 12.1602C11.7737 12.1602 10.8779 13.0452 10.8809 14.4593H12.2674C12.2674 13.832 12.6044 13.4691 13.107 13.4691C13.6007 13.4691 13.9584 13.8184 13.9584 14.3915C13.9584 14.9104 13.6746 15.263 13.1779 15.7751L10.9696 17.9929V19.2002Z" fill="#1BC5AC"/>
<path d="M16.0744 18.0472H18.9982V19.2002H20.3966V18.0472H21.1209V16.7246H20.3966V12.2551H18.5548L16.0744 16.7382V18.0472ZM19.0278 16.7246H17.5289V16.6704L18.9805 14.0321H19.0278V16.7246Z" fill="#1BC5AC"/>
<rect x="15.041" y="21.7598" width="3.84" height="3.84" rx="1.92" fill="#040C22"/>
<defs>
<linearGradient id="paint0_linear_131_13134" x1="16" y1="21.3333" x2="16" y2="-11" gradientUnits="userSpaceOnUse">
<stop stop-color="#C0F3EB"/>
<stop offset="1" stop-color="#FBFFFE"/>
</linearGradient>
</defs>
</svg>
