<svg width="28" height="28" viewBox="0 0 28 28" fill="none" xmlns="http://www.w3.org/2000/svg">
<path fill-rule="evenodd" clip-rule="evenodd" d="M24.6388 3.36903C22.1029 0.842787 18.4564 0.560547 14.0005 0.560547C9.53895 0.560547 5.88711 0.846147 3.35223 3.37911C0.817827 5.91111 0.560547 9.55719 0.560547 14.0135C0.560547 18.4708 0.817827 22.1178 3.35319 24.6508C5.88807 27.1842 9.53943 27.4405 14.0005 27.4405C18.4617 27.4405 22.1125 27.1842 24.6474 24.6508C27.1828 22.1173 27.4405 18.4708 27.4405 14.0135C27.4405 9.55143 27.1799 5.90151 24.6388 3.36903Z" fill="#D3F6F1"/>
<path fill-rule="evenodd" clip-rule="evenodd" d="M25.0335 2.97175L25.0335 2.97183C27.7611 5.69013 28 9.5811 28 14.013C28 18.4398 27.764 22.3271 25.0427 25.0464C22.322 27.7656 18.4303 28 14 28C9.56968 28 5.67753 27.7655 2.95677 25.0463C0.235458 22.3275 0 18.4396 0 14.013C0 9.5872 0.235459 5.70025 2.95589 2.98239C5.67542 0.264926 9.56474 0 14 0C18.4293 0 22.313 0.261589 25.0335 2.97175ZM3.35264 24.6502C5.88752 27.1837 9.53888 27.44 14 27.44C18.4611 27.44 22.112 27.1837 24.6469 24.6502C27.1822 22.1168 27.44 18.4702 27.44 14.013C27.44 9.55088 27.1794 5.90096 24.6382 3.36848C22.1024 0.84224 18.4558 0.56 14 0.56C9.5384 0.56 5.88656 0.8456 3.35168 3.37856C0.81728 5.91056 0.56 9.55664 0.56 14.013C0.56 18.4702 0.81728 22.1173 3.35264 24.6502Z" fill="#D3F6F1"/>
<rect x="6.15961" y="6.72016" width="15.7922" height="14.101" rx="3.36" fill="white" stroke="#040C22" stroke-width="1.12"/>
<g clip-path="url(#clip0_84_17242)">
<path d="M14.0361 17.3606L12.8809 15.5887H13.4455V10.6406H14.6268V15.5887H15.1914L14.0361 17.3606Z" fill="#1BC5AC"/>
<path d="M11.7959 15.7468L10.6406 14.0138H11.2053V10.6406H12.3865V14.0138H12.9512L11.7959 15.7468Z" fill="#1BC5AC"/>
<path d="M9.79201 14.1718L8.63672 12.4387H9.20138V10.6406H10.3826V12.4387H10.9473L9.79201 14.1718Z" fill="#1BC5AC"/>
</g>
<mask id="path-7-inside-1_84_17242" fill="white">
<path fill-rule="evenodd" clip-rule="evenodd" d="M22.5122 10.8027V16.0238H20.0676C18.6258 16.0238 17.457 14.855 17.457 13.4133C17.457 11.9715 18.6258 10.8027 20.0676 10.8027H22.5122Z"/>
</mask>
<path fill-rule="evenodd" clip-rule="evenodd" d="M22.5122 10.8027V16.0238H20.0676C18.6258 16.0238 17.457 14.855 17.457 13.4133C17.457 11.9715 18.6258 10.8027 20.0676 10.8027H22.5122Z" fill="white"/>
<path d="M22.5122 10.8027H23.3522V9.96273H22.5122V10.8027ZM22.5122 16.0238V16.8638H23.3522V16.0238H22.5122ZM21.6722 10.8027V16.0238H23.3522V10.8027H21.6722ZM22.5122 15.1838H20.0676V16.8638H22.5122V15.1838ZM20.0676 15.1838C19.0897 15.1838 18.297 14.3911 18.297 13.4133H16.617C16.617 15.319 18.1619 16.8638 20.0676 16.8638V15.1838ZM18.297 13.4133C18.297 12.4354 19.0897 11.6427 20.0676 11.6427V9.96273C18.1619 9.96273 16.617 11.5076 16.617 13.4133H18.297ZM20.0676 11.6427H22.5122V9.96273H20.0676V11.6427Z" fill="black" mask="url(#path-7-inside-1_84_17242)"/>
<rect x="19.4453" y="12.793" width="1.32645" height="1.32645" rx="0.56" fill="#1BC5AC"/>
<defs>
<clipPath id="clip0_84_17242">
<rect width="7.28" height="6.72" fill="white" transform="translate(8.40039 10.6406)"/>
</clipPath>
</defs>
</svg>
