<svg width="47" height="46" viewBox="0 0 47 46" fill="none" xmlns="http://www.w3.org/2000/svg">
<path d="M41.2667 5.24306L41.2667 5.24299C36.9509 0.943562 30.7701 0.5 23.5 0.5C16.2203 0.5 10.0305 0.949041 5.71633 5.25999C1.40166 9.57058 1 15.7539 1 23.0212C1 30.29 1.40166 36.4749 5.71783 40.7871C10.0331 45.0999 16.2251 45.5 23.5 45.5C30.7749 45.5 36.9661 45.0999 41.2814 40.7871C45.5975 36.4742 46 30.2902 46 23.0212C46 15.7442 45.5928 9.5544 41.2667 5.24306Z" fill="#D3F6F1" stroke="url(#paint0_linear_1_1403)"/>
<path fill-rule="evenodd" clip-rule="evenodd" d="M29.825 19.7012C29.6249 15.0461 25.7876 11.3335 21.0833 11.3335C16.2508 11.3335 12.3333 15.251 12.3333 20.0835C12.3333 21.715 12.7798 23.2422 13.5572 24.5495L12.3333 28.8335L16.6172 27.6095C17.8219 28.3259 19.2133 28.7613 20.7009 28.8253C21.488 32.1739 24.4945 34.6668 28.0833 34.6668C29.64 34.6668 31.0871 34.1978 32.2911 33.3933L36.0696 34.2931L35.0177 30.5403L34.6143 30.9396C35.2829 29.8098 35.6666 28.4915 35.6666 27.0835C35.6666 23.4947 33.1737 20.4882 29.825 19.7012Z" fill="white"/>
<path d="M11.2428 29.8758L15.9645 28.5699C17.3249 29.3625 18.8511 29.8168 20.427 29.9018C21.4643 33.4661 24.7645 35.9832 28.5369 35.9832C30.0355 35.9832 31.4938 35.5896 32.7796 34.8413L36.7572 35.9415C36.8093 35.9559 36.8651 35.9412 36.9033 35.903C36.9415 35.8648 36.9562 35.809 36.9418 35.757L35.8415 31.7793C36.5899 30.4935 36.9834 29.0352 36.9834 27.5366C36.9834 23.7644 34.4666 20.4645 30.9025 19.427C30.621 14.1903 26.2729 10.0165 20.9672 10.0165C15.4803 10.0165 11.0167 14.48 11.0167 19.967C11.0167 21.7335 11.4813 23.4543 12.3643 24.9696L11.0582 29.6912C11.0438 29.7433 11.0585 29.7991 11.0967 29.8373C11.1349 29.8755 11.1907 29.8902 11.2428 29.8758ZM16.3038 26.6559C16.268 26.633 16.2241 26.6264 16.1831 26.6377L13.5749 27.3593L14.2964 24.7511C14.3078 24.7101 14.3011 24.6662 14.2782 24.6303L14.0977 24.348C13.2623 23.041 12.8207 21.5262 12.8207 19.967C12.8207 15.475 16.4753 11.8204 20.9672 11.8204C25.4591 11.8204 29.1138 15.475 29.1138 19.967C29.1138 24.4589 25.4591 28.1135 20.9672 28.1135C19.408 28.1135 17.8933 27.6718 16.5862 26.8365L16.3038 26.6559ZM34.4252 33.425L32.5558 32.9077C32.5143 32.8963 32.47 32.9031 32.4339 32.9266L32.1503 33.1112C31.0748 33.8099 29.8253 34.1793 28.5369 34.1793C25.7244 34.1793 23.245 32.4002 22.3003 29.8276C26.7228 29.2329 30.2332 25.7225 30.828 21.2999C33.4005 22.2448 35.1795 24.7241 35.1795 27.5366C35.1795 28.825 34.8101 30.0746 34.1114 31.15L33.9268 31.4337C33.9034 31.4697 33.8965 31.5141 33.908 31.5555L34.4252 33.425Z" fill="#040C22" stroke="#040C22" stroke-width="0.3" stroke-linejoin="round"/>
<path d="M20.2153 24.5039C20.2153 24.0886 20.552 23.752 20.9673 23.752V23.752C21.3826 23.752 21.7192 24.0886 21.7192 24.5039V24.5039C21.7192 24.9192 21.3826 25.2559 20.9673 25.2559V25.2559C20.552 25.2559 20.2153 24.9192 20.2153 24.5039V24.5039Z" fill="#1BC5AC" stroke="#1BC5AC" stroke-width="0.7"/>
<path d="M22.4712 17.686C22.4712 18.1131 22.2973 18.5073 21.9816 18.7961L20.2153 20.4128V22.2479H21.7192V21.0751L22.997 19.9057C23.6185 19.3368 23.9751 18.5279 23.9751 17.686C23.9751 16.0274 22.6259 14.6782 20.9673 14.6782C19.3087 14.6782 17.9595 16.0274 17.9595 17.686H19.4634C19.4634 16.8567 20.138 16.1821 20.9673 16.1821C21.7966 16.1821 22.4712 16.8567 22.4712 17.686Z" fill="#1BC5AC" stroke="#1BC5AC" stroke-width="0.7"/>
<defs>
<linearGradient id="paint0_linear_1_1403" x1="23.5" y1="48.6667" x2="44.5384" y2="-6.03329" gradientUnits="userSpaceOnUse">
<stop stop-color="#C0F3EB"/>
<stop offset="1" stop-color="#FBFFFE"/>
</linearGradient>
</defs>
</svg>
