<svg width="24" height="24" viewBox="0 0 24 24" fill="none" xmlns="http://www.w3.org/2000/svg">
<path d="M2.25 12.5031H3H2.25ZM2.25 20.2499H1.5H2.25ZM20.25 21.7499V20.9999V20.9999V21.7499ZM3.75 21.7499V22.4999H3.75L3.75 21.7499ZM21.75 12.5031H21H21.75ZM21.75 20.2499H22.5H21.75ZM20.9563 10.4703L20.4047 10.9785L20.9563 10.4703ZM14.2063 3.14442L13.6547 3.65263V3.65263L14.2063 3.14442ZM9.79373 3.14441L10.3453 3.65262L9.79373 3.14441ZM3.04374 10.4703L2.49217 9.96207H2.49217L3.04374 10.4703ZM14.25 22.4999C14.6642 22.4999 15 22.1641 15 21.7499C15 21.3357 14.6642 20.9999 14.25 20.9999V22.4999ZM9.75 20.9999C9.33579 20.9999 9 21.3357 9 21.7499C9 22.1641 9.33579 22.4999 9.75 22.4999V20.9999ZM1.5 12.5031L1.5 20.2499H3L3 12.5031L1.5 12.5031ZM20.25 20.9999L3.75 20.9999L3.75 22.4999L20.25 22.4999V20.9999ZM21 12.5031V20.2499H22.5V12.5031H21ZM21.5078 9.96211L14.7578 2.63621L13.6547 3.65263L20.4047 10.9785L21.5078 9.96211ZM9.24217 2.6362L2.49217 9.96207L3.5953 10.9785L10.3453 3.65262L9.24217 2.6362ZM14.7578 2.63621C13.2726 1.02426 10.7274 1.02426 9.24217 2.6362L10.3453 3.65262C11.2364 2.68545 12.7636 2.68545 13.6547 3.65263L14.7578 2.63621ZM22.5 12.5031C22.5 11.5616 22.1458 10.6545 21.5078 9.96211L20.4047 10.9785C20.7875 11.394 21 11.9382 21 12.5031H22.5ZM3 12.5031C3 11.9382 3.21251 11.3939 3.5953 10.9785L2.49217 9.96207C1.85418 10.6545 1.5 11.5616 1.5 12.5031L3 12.5031ZM1.5 20.2499C1.5 21.4926 2.50736 22.4999 3.75 22.4999L3.75 20.9999C3.33579 20.9999 3 20.6641 3 20.2499H1.5ZM20.25 22.4999C21.4926 22.4999 22.5 21.4926 22.5 20.2499L21 20.2499C21 20.6641 20.6642 20.9999 20.25 20.9999V22.4999ZM14.25 20.9999H9.75V22.4999H14.25V20.9999Z" fill="#5C616F"/>
<path d="M9 18.375H15.75" stroke="#1BC5AC" stroke-width="1.5" stroke-linecap="round"/>
</svg>
