<svg width="28" height="28" viewBox="0 0 28 28" fill="none" xmlns="http://www.w3.org/2000/svg">
<rect width="28" height="28" fill="white"/>
<path d="M19 23L19 22.25L19 23ZM5.25 13L5.25 20L6.75 20L6.75 13L5.25 13ZM19 22.25L9 22.25L9 23.75L19 23.75L19 22.25ZM21.25 13L21.25 20L22.75 20L22.75 13L21.25 13ZM19 9.25002L9.00001 9.25L9 10.75L19 10.75L19 9.25002ZM22.75 13C22.75 10.929 21.0711 9.25003 19 9.25002L19 10.75C20.2426 10.75 21.25 11.7574 21.25 13L22.75 13ZM6.75 13C6.75 11.7574 7.75736 10.75 9 10.75L9.00001 9.25C6.92894 9.25 5.25 10.9289 5.25 13L6.75 13ZM5.25 20C5.25 22.0711 6.92893 23.75 9 23.75L9 22.25C7.75736 22.25 6.75 21.2426 6.75 20L5.25 20ZM19 23.75C21.0711 23.75 22.75 22.0711 22.75 20L21.25 20C21.25 21.2426 20.2426 22.25 19 22.25L19 23.75Z" fill="#363D4E"/>
<path d="M19 10C19 7.23858 16.7614 5 14 5C11.2386 5 9 7.23858 9 10" stroke="#363D4E" stroke-width="1.5"/>
<path d="M14 17.5L14 14.5" stroke="#363D4E" stroke-width="1.5" stroke-linecap="round" stroke-linejoin="round"/>
</svg>
