<svg width="48" height="48" viewBox="0 0 48 48" fill="none" xmlns="http://www.w3.org/2000/svg">
<path d="M5.33853 5.38686L5.33856 5.38683C9.70027 1.02843 16.0093 0.5 24 0.5C31.9805 0.5 38.2805 1.02243 42.6439 5.3693C47.0151 9.72567 47.5 16.0282 47.5 24.0231C47.5 32.0097 47.0203 38.3065 42.6589 42.6646L42.6588 42.6646C38.2982 47.0228 31.9938 47.5 24 47.5C16.0062 47.5 9.70092 47.0228 5.34031 42.6646L5.34024 42.6646C0.978908 38.3074 0.5 32.0099 0.5 24.0231C0.5 16.0381 0.978911 9.74235 5.33853 5.38686Z" fill="white" stroke="url(#paint0_linear_131_12463)"/>
<rect x="10" y="11" width="28.2004" height="25.1804" rx="6" fill="white" stroke="#040C22" stroke-width="2"/>
<mask id="path-3-inside-1_131_12463" fill="white">
<path fill-rule="evenodd" clip-rule="evenodd" d="M39.2009 18.291V27.6144H34.8355C32.2609 27.6144 30.1738 25.5273 30.1738 22.9527C30.1738 20.3781 32.2609 18.291 34.8355 18.291H39.2009Z"/>
</mask>
<path fill-rule="evenodd" clip-rule="evenodd" d="M39.2009 18.291V27.6144H34.8355C32.2609 27.6144 30.1738 25.5273 30.1738 22.9527C30.1738 20.3781 32.2609 18.291 34.8355 18.291H39.2009Z" fill="white"/>
<path d="M39.2009 18.291H40.7009V16.791H39.2009V18.291ZM39.2009 27.6144V29.1144H40.7009V27.6144H39.2009ZM37.7009 18.291V27.6144H40.7009V18.291H37.7009ZM39.2009 26.1144H34.8355V29.1144H39.2009V26.1144ZM34.8355 26.1144C33.0894 26.1144 31.6738 24.6989 31.6738 22.9527H28.6738C28.6738 26.3557 31.4325 29.1144 34.8355 29.1144V26.1144ZM31.6738 22.9527C31.6738 21.2066 33.0894 19.791 34.8355 19.791V16.791C31.4325 16.791 28.6738 19.5497 28.6738 22.9527H31.6738ZM34.8355 19.791H39.2009V16.791H34.8355V19.791Z" fill="black" mask="url(#path-3-inside-1_131_12463)"/>
<rect x="33.7266" y="21.8438" width="2.36866" height="2.36866" rx="1" fill="#1BC5AC"/>
<path d="M26.3497 22.2988C26.5843 22.3552 26.6597 22.6514 26.4807 22.8131L18.4015 30.1108C18.1576 30.3311 17.7881 30.0553 17.9298 29.7588L20.1494 25.1134C20.2317 24.9412 20.1344 24.7369 19.9488 24.6923L15.1623 23.5417C14.9277 23.4853 14.8523 23.1891 15.0314 23.0274L23.1105 15.7298C23.3544 15.5095 23.724 15.7852 23.5823 16.0817L21.3626 20.7272C21.2803 20.8993 21.3776 21.1036 21.5632 21.1482L26.3497 22.2988Z" fill="#1BC5AC"/>
<defs>
<linearGradient id="paint0_linear_131_12463" x1="24" y1="52" x2="46.951" y2="-7.67268" gradientUnits="userSpaceOnUse">
<stop stop-color="#C0F3EB"/>
<stop offset="1" stop-color="#FBFFFE"/>
</linearGradient>
</defs>
</svg>
