<svg width="24" height="24" viewBox="0 0 24 24" fill="none" xmlns="http://www.w3.org/2000/svg">
<path d="M3.30492 13.1498C3.10645 12.8661 3 12.5282 3 12.1819C3 11.8356 3.10645 11.4977 3.30492 11.2139C4.59196 9.3918 7.76087 5.63623 12 5.63623C16.2391 5.63623 19.408 9.3918 20.6951 11.2139C20.8936 11.4977 21 11.8356 21 12.1819C21 12.5282 20.8936 12.8661 20.6951 13.1498C19.408 14.972 16.2391 18.7275 12 18.7275C7.76087 18.7275 4.59196 14.972 3.30492 13.1498Z" stroke="#A7AAB2" stroke-width="1.5" stroke-miterlimit="10" stroke-linecap="round"/>
<path d="M12.0001 15.4548C13.8077 15.4548 15.2729 13.9895 15.2729 12.182C15.2729 10.3745 13.8077 8.90918 12.0001 8.90918C10.1926 8.90918 8.72729 10.3745 8.72729 12.182C8.72729 13.9895 10.1926 15.4548 12.0001 15.4548Z" stroke="#A7AAB2" stroke-width="1.5" stroke-miterlimit="10" stroke-linecap="round"/>
<path d="M3.81787 20.3641L20.182 4" stroke="#A7AAB2" stroke-width="1.5" stroke-miterlimit="10" stroke-linecap="round"/>
</svg>
