<svg width="30" height="30" viewBox="0 0 30 30" fill="none" xmlns="http://www.w3.org/2000/svg">
<path d="M3.70185 3.72966C0.964968 6.46395 0.708334 10.3874 0.708334 15.0135C0.708334 19.6405 0.96497 23.565 3.70285 26.3003C6.44015 29.036 10.369 29.2916 15 29.2916C19.6309 29.2916 23.5593 29.036 26.2966 26.3003C29.0345 23.5645 29.2916 19.6406 29.2916 15.0135C29.2916 10.3812 29.0314 6.45368 26.2873 3.7189L26.2873 3.71886C23.5496 0.991578 19.6276 0.708334 15 0.708334C10.3662 0.708334 6.43852 0.995066 3.70185 3.72966ZM3.70185 3.72966L3.90799 3.93599M3.70185 3.72966L3.90799 3.93599M3.90799 3.93599C6.54849 1.2975 10.3525 1 15 1C19.6415 1 23.4399 1.294 26.0814 3.92549L26.0904 26.0939C23.45 28.7329 19.647 28.9999 15 28.9999C10.353 28.9999 6.54949 28.7329 3.90899 26.0939C1.268 23.4555 1 19.6565 1 15.0135C1 10.3715 1.268 6.57349 3.90799 3.93599Z" fill="#D3F6F1" stroke="url(#paint0_linear_84_17228)" stroke-width="0.583332"/>
<path d="M15.0002 20.7249C18.1662 20.7249 20.7328 18.1584 20.7328 14.9924C20.7328 11.8263 18.1662 9.25977 15.0002 9.25977C11.8341 9.25977 9.26758 11.8263 9.26758 14.9924C9.26758 18.1584 11.8341 20.7249 15.0002 20.7249Z" fill="url(#paint1_linear_84_17228)"/>
<path d="M20.9778 14.9987C20.9778 18.3009 18.3009 20.9778 14.9987 20.9778C11.6965 20.9778 9.01953 18.3009 9.01953 14.9987C9.01953 11.6965 11.6965 9.01953 14.9987 9.01953C18.3009 9.01953 20.9778 11.6965 20.9778 14.9987Z" fill="white" stroke="#1BC5AC" stroke-width="0.874998"/>
<path d="M14.1185 18.3821C15.0039 18.3821 15.4644 17.9166 15.675 17.5H15.7392V18.3007H17.2386V12.9595H17.8633V12.1425H17.2386V11.6348H15.7214V12.1425H14.3006V12.9595H15.7214V14.141H15.675C15.4715 13.7341 15.0324 13.2361 14.115 13.2361C12.9119 13.2361 11.8945 14.0889 11.8945 15.8075C11.8945 17.4805 12.8691 18.3821 14.1185 18.3821ZM14.6005 17.2787C13.8544 17.2787 13.4474 16.6733 13.4474 15.801C13.4474 14.9352 13.8472 14.3395 14.6005 14.3395C15.3394 14.3395 15.7535 14.9091 15.7535 15.801C15.7535 16.6928 15.3323 17.2787 14.6005 17.2787Z" fill="#1BC5AC"/>
<path d="M23.1449 10.4458C22.9408 10.085 22.7127 9.73816 22.4624 9.40774L22.1561 9.00032L23.3706 9.44408C23.4355 9.468 23.5045 9.47872 23.5736 9.4756C23.6427 9.47248 23.7104 9.4556 23.7729 9.42593C23.8988 9.36654 23.9965 9.26041 24.0454 9.13008C24.0701 9.06524 24.0815 8.99611 24.079 8.92677C24.0765 8.85743 24.0602 8.7893 24.0309 8.7264C24.0016 8.6635 23.96 8.60708 23.9086 8.56053C23.8571 8.51398 23.7969 8.47822 23.7314 8.45536L19.914 7.06695C19.857 7.04431 19.7962 7.03286 19.7349 7.03321C19.6579 7.03407 19.5819 7.05087 19.5117 7.08253C19.4074 7.13016 19.3218 7.21099 19.2683 7.31239C19.2148 7.4138 19.1963 7.5301 19.2159 7.64309C19.2245 7.72052 19.2504 7.795 19.2918 7.86104C19.3331 7.92707 19.3888 7.98297 19.4546 8.02456C20.9607 8.98863 22.1138 10.4147 22.7413 12.0891C23.3689 13.7636 23.437 15.5963 22.9354 17.3127C22.4339 19.0291 21.3898 20.5369 19.9595 21.6101C18.5291 22.6832 16.7896 23.2641 15.0014 23.2656C14.8617 23.2656 14.7277 23.3211 14.6289 23.4199C14.5301 23.5187 14.4746 23.6527 14.4746 23.7925C14.4746 23.9322 14.5301 24.0662 14.6289 24.165C14.7277 24.2638 14.8617 24.3193 15.0014 24.3193C16.6272 24.3192 18.2248 23.8942 19.6357 23.0864C21.0466 22.2786 22.2218 21.1159 23.0448 19.7138C23.8678 18.3117 24.31 16.7188 24.3276 15.0931C24.3451 13.4674 23.9374 11.8653 23.1449 10.4458Z" fill="black" stroke="black" stroke-width="0.233333"/>
<path d="M10.5454 21.9659C9.0386 21.0015 7.88487 19.5749 7.25706 17.8997C6.62925 16.2245 6.56116 14.391 7.063 12.6739C7.56484 10.9568 8.60958 9.44846 10.0407 8.37501C11.4718 7.30156 13.2122 6.72076 15.0012 6.71962C15.1409 6.71962 15.2749 6.66411 15.3737 6.56531C15.4725 6.46651 15.528 6.33252 15.528 6.1928C15.528 6.05308 15.4725 5.91909 15.3737 5.82029C15.2749 5.7215 15.1409 5.66602 15.0012 5.66602C13.7763 5.66512 12.5633 5.90602 11.4317 6.37495C10.3001 6.84388 9.27224 7.5316 8.40702 8.39865C6.97256 9.83447 6.0447 11.6984 5.76377 13.7085C5.48284 15.7185 5.86412 17.7654 6.84996 19.5395C7.05559 19.8994 7.28354 20.2461 7.53247 20.5775L7.83869 20.9823L6.62418 20.5412C6.55931 20.5173 6.4903 20.5065 6.42123 20.5097C6.35215 20.5128 6.2844 20.5297 6.22195 20.5593C6.15838 20.5873 6.10108 20.6278 6.05344 20.6783C6.0058 20.7288 5.96878 20.7884 5.94458 20.8535C5.92038 20.9186 5.90949 20.9879 5.91256 21.0573C5.91562 21.1267 5.93259 21.1947 5.96243 21.2574C6.02377 21.3799 6.13104 21.4732 6.26087 21.5169L10.0757 22.9053C10.1405 22.93 10.2097 22.9414 10.279 22.939C10.3483 22.9365 10.4165 22.9201 10.4794 22.8908C10.5423 22.8616 10.5987 22.82 10.6452 22.7685C10.6918 22.7171 10.7275 22.6568 10.7504 22.5913C10.78 22.5082 10.7889 22.4191 10.7764 22.3318C10.7665 22.2578 10.7407 22.1868 10.7008 22.1236C10.661 22.0605 10.6079 22.0067 10.5454 21.9659Z" fill="black" stroke="black" stroke-width="0.233333"/>
<defs>
<linearGradient id="paint0_linear_84_17228" x1="15" y1="31.3333" x2="28.388" y2="-3.47572" gradientUnits="userSpaceOnUse">
<stop stop-color="#C0F3EB"/>
<stop offset="1" stop-color="#FBFFFE"/>
</linearGradient>
<linearGradient id="paint1_linear_84_17228" x1="15.0002" y1="20.4628" x2="15.0002" y2="9.37395" gradientUnits="userSpaceOnUse">
<stop stop-color="white" stop-opacity="0"/>
<stop offset="1" stop-color="white" stop-opacity="0.7"/>
</linearGradient>
</defs>
</svg>
