<svg width="20" height="21" viewBox="0 0 20 21" fill="none" xmlns="http://www.w3.org/2000/svg">
<g clip-path="url(#clip0_2_6961)">
<path d="M15.0781 8.98633C15.5096 8.98633 15.8594 8.63655 15.8594 8.20508C15.8594 7.77361 15.5096 7.42383 15.0781 7.42383C14.6467 7.42383 14.2969 7.77361 14.2969 8.20508C14.2969 8.63655 14.6467 8.98633 15.0781 8.98633Z" fill="white"/>
<path d="M16.875 1.56445H15.8594V0.783203C15.8594 0.351719 15.5096 0.00195312 15.0781 0.00195312C14.6466 0.00195312 14.2969 0.351719 14.2969 0.783203V1.56445H10.7422V0.783203C10.7422 0.351719 10.3924 0.00195312 9.96094 0.00195312C9.52945 0.00195312 9.17969 0.351719 9.17969 0.783203V1.56445H5.66406V0.783203C5.66406 0.351719 5.3143 0.00195312 4.88281 0.00195312C4.45133 0.00195312 4.10156 0.351719 4.10156 0.783203V1.56445H3.125C1.40188 1.56445 0 2.96633 0 4.68945V16.877C0 18.6001 1.40188 20.002 3.125 20.002H9.10156C9.53305 20.002 9.88281 19.6522 9.88281 19.2207C9.88281 18.7892 9.53305 18.4395 9.10156 18.4395H3.125C2.26344 18.4395 1.5625 17.7385 1.5625 16.877V4.68945C1.5625 3.82789 2.26344 3.12695 3.125 3.12695H4.10156V3.9082C4.10156 4.33969 4.45133 4.68945 4.88281 4.68945C5.3143 4.68945 5.66406 4.33969 5.66406 3.9082V3.12695H9.17969V3.9082C9.17969 4.33969 9.52945 4.68945 9.96094 4.68945C10.3924 4.68945 10.7422 4.33969 10.7422 3.9082V3.12695H14.2969V3.9082C14.2969 4.33969 14.6466 4.68945 15.0781 4.68945C15.5096 4.68945 15.8594 4.33969 15.8594 3.9082V3.12695H16.875C17.7366 3.12695 18.4375 3.82789 18.4375 4.68945V9.14258C18.4375 9.57406 18.7873 9.92383 19.2188 9.92383C19.6502 9.92383 20 9.57406 20 9.14258V4.68945C20 2.96633 18.5981 1.56445 16.875 1.56445Z" fill="white"/>
<path d="M15.2734 10.5488C12.6672 10.5488 10.5469 12.6691 10.5469 15.2754C10.5469 17.8816 12.6672 20.002 15.2734 20.002C17.8797 20.002 20 17.8816 20 15.2754C20 12.6691 17.8797 10.5488 15.2734 10.5488ZM15.2734 18.4395C13.5288 18.4395 12.1094 17.0201 12.1094 15.2754C12.1094 13.5307 13.5288 12.1113 15.2734 12.1113C17.0181 12.1113 18.4375 13.5307 18.4375 15.2754C18.4375 17.0201 17.0181 18.4395 15.2734 18.4395Z" fill="white"/>
<path d="M16.4062 14.4941H16.0547V13.6738C16.0547 13.2423 15.7049 12.8926 15.2734 12.8926C14.842 12.8926 14.4922 13.2423 14.4922 13.6738V15.2754C14.4922 15.7069 14.842 16.0566 15.2734 16.0566H16.4062C16.8377 16.0566 17.1875 15.7069 17.1875 15.2754C17.1875 14.8439 16.8377 14.4941 16.4062 14.4941Z" fill="white"/>
<path d="M11.6797 8.98633C12.1112 8.98633 12.4609 8.63655 12.4609 8.20508C12.4609 7.77361 12.1112 7.42383 11.6797 7.42383C11.2482 7.42383 10.8984 7.77361 10.8984 8.20508C10.8984 8.63655 11.2482 8.98633 11.6797 8.98633Z" fill="white"/>
<path d="M8.28125 12.3848C8.71272 12.3848 9.0625 12.035 9.0625 11.6035C9.0625 11.172 8.71272 10.8223 8.28125 10.8223C7.84978 10.8223 7.5 11.172 7.5 11.6035C7.5 12.035 7.84978 12.3848 8.28125 12.3848Z" fill="white"/>
<path d="M4.88281 8.98633C5.31428 8.98633 5.66406 8.63655 5.66406 8.20508C5.66406 7.77361 5.31428 7.42383 4.88281 7.42383C4.45134 7.42383 4.10156 7.77361 4.10156 8.20508C4.10156 8.63655 4.45134 8.98633 4.88281 8.98633Z" fill="white"/>
<path d="M4.88281 12.3848C5.31428 12.3848 5.66406 12.035 5.66406 11.6035C5.66406 11.172 5.31428 10.8223 4.88281 10.8223C4.45134 10.8223 4.10156 11.172 4.10156 11.6035C4.10156 12.035 4.45134 12.3848 4.88281 12.3848Z" fill="white"/>
<path d="M4.88281 15.7832C5.31428 15.7832 5.66406 15.4334 5.66406 15.002C5.66406 14.5705 5.31428 14.2207 4.88281 14.2207C4.45134 14.2207 4.10156 14.5705 4.10156 15.002C4.10156 15.4334 4.45134 15.7832 4.88281 15.7832Z" fill="white"/>
<path d="M8.28125 15.7832C8.71272 15.7832 9.0625 15.4334 9.0625 15.002C9.0625 14.5705 8.71272 14.2207 8.28125 14.2207C7.84978 14.2207 7.5 14.5705 7.5 15.002C7.5 15.4334 7.84978 15.7832 8.28125 15.7832Z" fill="white"/>
<path d="M8.28125 8.98633C8.71272 8.98633 9.0625 8.63655 9.0625 8.20508C9.0625 7.77361 8.71272 7.42383 8.28125 7.42383C7.84978 7.42383 7.5 7.77361 7.5 8.20508C7.5 8.63655 7.84978 8.98633 8.28125 8.98633Z" fill="white"/>
</g>
<defs>
<clipPath id="clip0_2_6961">
<rect width="20" height="20" fill="white" transform="translate(0 0.00195312)"/>
</clipPath>
</defs>
</svg>
