<svg width="30" height="30" viewBox="0 0 30 30" fill="none" xmlns="http://www.w3.org/2000/svg">
<path d="M3.70186 3.72966C0.964968 6.46396 0.708333 10.3874 0.708333 15.0135C0.708333 19.6406 0.964967 23.565 3.70282 26.3003C6.44013 29.0361 10.369 29.2917 15 29.2917C19.631 29.2917 23.5594 29.0361 26.2967 26.3003C29.0345 23.5645 29.2917 19.6406 29.2917 15.0135C29.2917 10.3812 29.0315 6.45369 26.2874 3.71891L26.2873 3.71887C23.5497 0.991578 19.6277 0.708333 15 0.708333C10.3662 0.708333 6.43853 0.995066 3.70186 3.72966ZM3.70186 3.72966L3.908 3.936M3.70186 3.72966L3.908 3.936M3.908 3.936C6.5485 1.2975 10.3525 1 15 1C19.6415 1 23.44 1.294 26.0815 3.9255C28.7285 6.5635 29 10.3655 29 15.0135C29 19.6565 28.7315 23.455 26.0905 26.094C23.45 28.733 19.647 29 15 29C10.353 29 6.5495 28.733 3.909 26.094C1.268 23.4555 1 19.6565 1 15.0135C1 10.3715 1.268 6.5735 3.908 3.936Z" fill="#D3F6F1" stroke="url(#paint0_linear_84_17173)" stroke-width="0.583333"/>
<path d="M15.2917 6.25L23.6272 15.4375H6.95617L15.2917 6.25Z" fill="white"/>
<path d="M8 15.0254H22.5833V23.6739H8V15.0254Z" fill="white"/>
<path d="M23.8811 23.4296H22.5249V16.1963H23.4291C23.7947 16.1963 24.1244 15.976 24.2645 15.6382C24.4043 15.3003 24.3272 14.9115 24.0686 14.6526L15.9311 6.51518C15.7545 6.33887 15.5231 6.25 15.2917 6.25C15.0602 6.25 14.8287 6.33887 14.6524 6.5155L12.127 9.04051V8.05889C12.127 7.55948 11.7223 7.15473 11.2229 7.15473H10.3187C9.81932 7.15473 9.41457 7.55948 9.41457 8.05889V11.753L6.51493 14.6526C6.25632 14.9112 6.17887 15.3 6.31901 15.6382C6.45884 15.976 6.78858 16.1963 7.15416 16.1963H8.05832V23.4296H6.70208C6.45224 23.4296 6.25 23.6319 6.25 23.8817C6.25 24.1316 6.45224 24.3338 6.70208 24.3338H23.8811C24.131 24.3338 24.3332 24.1316 24.3332 23.8817C24.3332 23.6319 24.131 23.4296 23.8811 23.4296ZM10.3187 8.05889H11.2229V9.94467L10.3187 10.8488V8.05889ZM21.6207 23.4296H8.96248V15.2922H7.15416L15.2916 7.15473L23.4291 15.2922H21.6207V23.4296Z" fill="#040C22"/>
<path d="M18.3294 19.4961C18.2202 19.6053 18.072 19.6667 17.9175 19.6667C17.763 19.6667 17.6148 19.6053 17.5056 19.4961L15.587 17.5775L13.6684 19.4961C13.5585 19.6022 13.4113 19.6609 13.2586 19.6596C13.1058 19.6583 12.9597 19.597 12.8516 19.489C12.7436 19.381 12.6823 19.2348 12.681 19.0821C12.6797 18.9293 12.7384 18.7821 12.8445 18.6722L14.7631 16.7536L12.8445 14.835C12.7889 14.7813 12.7445 14.717 12.714 14.6459C12.6834 14.5748 12.6674 14.4984 12.6667 14.421C12.666 14.3437 12.6808 14.2669 12.7101 14.1953C12.7393 14.1237 12.7826 14.0587 12.8373 14.004C12.892 13.9493 12.9571 13.906 13.0287 13.8767C13.1003 13.8474 13.177 13.8327 13.2544 13.8334C13.3317 13.834 13.4082 13.8501 13.4793 13.8806C13.5503 13.9112 13.6146 13.9556 13.6684 14.0112L15.587 15.9298L17.5056 14.0112C17.6155 13.9051 17.7626 13.8463 17.9154 13.8477C18.0682 13.849 18.2143 13.9103 18.3223 14.0183C18.4303 14.1263 18.4916 14.2725 18.4929 14.4252C18.4943 14.578 18.4355 14.7252 18.3294 14.835L16.4108 16.7536L18.3294 18.6722C18.4386 18.7815 18.5 18.9297 18.5 19.0842C18.5 19.2387 18.4386 19.3868 18.3294 19.4961Z" fill="#1BC5AC"/>
<defs>
<linearGradient id="paint0_linear_84_17173" x1="15" y1="31.3333" x2="28.3881" y2="-3.47573" gradientUnits="userSpaceOnUse">
<stop stop-color="#C0F3EB"/>
<stop offset="1" stop-color="#FBFFFE"/>
</linearGradient>
</defs>
</svg>
