<svg width="29" height="31" viewBox="0 0 29 31" fill="none" xmlns="http://www.w3.org/2000/svg">
<path d="M23.836 7.16404C24.3425 6.65755 25.1687 6.65411 25.628 7.20382C27.1798 9.06138 28.2465 11.2838 28.7214 13.6712C29.2809 16.4839 28.9937 19.3994 27.8963 22.0489C26.7988 24.6984 24.9403 26.963 22.5558 28.5563C20.1713 30.1496 17.3678 31 14.5 31C11.6322 31 8.82876 30.1496 6.44424 28.5563C4.05973 26.963 2.20123 24.6985 1.10375 22.0489C0.00627994 19.3994 -0.280872 16.4839 0.27861 13.6712C0.753493 11.2838 1.82023 9.0614 3.37203 7.20384C3.83126 6.65413 4.65753 6.65756 5.16403 7.16406C5.67052 7.67055 5.66415 8.48778 5.21572 9.04634C4.02106 10.5344 3.19744 12.2932 2.82269 14.1773C2.36329 16.4868 2.59908 18.8807 3.50022 21.0563C4.40137 23.2318 5.9274 25.0913 7.88535 26.3996C9.84329 27.7078 12.1452 28.4061 14.5 28.4061C16.8548 28.4061 19.1567 27.7078 21.1147 26.3995C23.0726 25.0913 24.5986 23.2318 25.4998 21.0563C26.4009 18.8807 26.6367 16.4868 26.1773 14.1772C25.8026 12.2932 24.9789 10.5344 23.7843 9.04632C23.3358 8.48776 23.3295 7.67053 23.836 7.16404Z" fill="#1BC5AC"/>
<path d="M15 2V18" stroke="#212121" stroke-width="2.5" stroke-miterlimit="10" stroke-linecap="round" stroke-linejoin="round"/>
<path d="M10 14L15 19L20 14" stroke="#212121" stroke-width="2.5" stroke-miterlimit="10" stroke-linecap="round" stroke-linejoin="round"/>
</svg>
