<svg width="16" height="16" viewBox="0 0 16 16" fill="none" xmlns="http://www.w3.org/2000/svg">
<circle cx="8.09961" cy="8" r="6.5" fill="#E8EBEE"/>
<path fill-rule="evenodd" clip-rule="evenodd" d="M7.99883 9.59961C7.557 9.59961 7.19883 9.31032 7.19883 8.95346L7.19883 4.64576C7.19883 4.2889 7.557 3.99961 7.99883 3.99961C8.44066 3.99961 8.79883 4.2889 8.79883 4.64576L8.79883 8.95346C8.79883 9.31032 8.44066 9.59961 7.99883 9.59961Z" fill="#A7AAB2"/>
<path fill-rule="evenodd" clip-rule="evenodd" d="M7.19923 11.1981C7.19706 11.6427 7.5578 12 7.99816 12C8.43958 12 8.79922 11.6431 8.79922 11.2C8.79922 10.7582 8.44097 10.4 7.99922 10.4C7.55812 10.4 7.20027 10.7572 7.19923 11.1981ZM7.73256 11.2L7.19924 11.1961C7.19924 11.1968 7.19923 11.1974 7.19923 11.1981C7.19923 11.1987 7.19923 11.1994 7.19923 11.2H7.73256ZM8.26588 11.2019C8.26588 11.2025 8.26588 11.2032 8.26587 11.2039L8.26589 11.2C8.26589 11.2006 8.26589 11.2013 8.26588 11.2019Z" fill="#A7AAB2"/>
</svg>
