<svg width="40" height="40" viewBox="0 0 40 40" fill="none" xmlns="http://www.w3.org/2000/svg">
<path d="M4.50767 4.54801L4.50771 4.54797C8.11498 0.943426 13.3372 0.5 20 0.5C26.6544 0.5 31.869 0.938432 35.4778 4.53344C39.0927 8.1361 39.5 13.3523 39.5 20.0193C39.5 26.6793 39.097 31.8908 35.4902 35.4949L35.4901 35.4949C31.8839 39.0991 26.6661 39.5 20 39.5C13.3339 39.5 8.11535 39.0991 4.50917 35.4949L4.5091 35.4949C0.902337 31.8915 0.5 26.6794 0.5 20.0193C0.5 13.3606 0.90234 8.14992 4.50767 4.54801Z" fill="#F0FCFA" stroke="url(#paint0_linear_131_13012)"/>
<path d="M9.6875 12.8125C9.6875 10.6034 11.4784 8.8125 13.6875 8.8125H26.3125C28.5216 8.8125 30.3125 10.6034 30.3125 12.8125V21C30.3125 25.9151 26.8214 30.0271 22.2495 32.568C20.851 33.3452 19.149 33.3452 17.7505 32.568C13.1786 30.0271 9.6875 25.9151 9.6875 21V12.8125Z" fill="white" stroke="black" stroke-width="1.5"/>
<path d="M20 13.125C20.7647 13.125 21.3846 13.7449 21.3846 14.5096V14.5096C21.3846 14.6354 21.4666 14.7457 21.5847 14.7889C21.7074 14.8337 21.8276 14.8836 21.9452 14.9383C22.0593 14.9914 22.1955 14.9714 22.2845 14.8824V14.8824C22.8252 14.3416 23.7019 14.3416 24.2427 14.8824C24.7834 15.4231 24.7834 16.2998 24.2427 16.8405V16.8405C24.1536 16.9295 24.1336 17.0657 24.1867 17.1798C24.2414 17.2974 24.2913 17.4176 24.3362 17.5403C24.3793 17.6584 24.4896 17.7404 24.6154 17.7404V17.7404C25.3801 17.7404 26 18.3603 26 19.125C26 19.8897 25.3801 20.5096 24.6154 20.5096V20.5096C24.4896 20.5096 24.3793 20.5916 24.3362 20.7097C24.2913 20.8324 24.2414 20.9526 24.1867 21.0702C24.1336 21.1843 24.1536 21.3205 24.2426 21.4095V21.4095C24.7834 21.9502 24.7834 22.8269 24.2426 23.3676C23.7019 23.9084 22.8252 23.9084 22.2845 23.3676V23.3676C22.1955 23.2786 22.0593 23.2586 21.9452 23.3117C21.8276 23.3664 21.7074 23.4163 21.5847 23.4611C21.4666 23.5043 21.3846 23.6146 21.3846 23.7404V23.7404C21.3846 24.5051 20.7647 25.125 20 25.125C19.2353 25.125 18.6154 24.5051 18.6154 23.7404V23.7404C18.6154 23.6146 18.5334 23.5043 18.4153 23.4611C18.2926 23.4163 18.1724 23.3664 18.0548 23.3117C17.9407 23.2586 17.8045 23.2786 17.7155 23.3676V23.3676C17.1748 23.9084 16.2981 23.9084 15.7574 23.3676C15.2166 22.8269 15.2166 21.9502 15.7574 21.4095V21.4095C15.8464 21.3205 15.8664 21.1843 15.8133 21.0702C15.7586 20.9526 15.7087 20.8324 15.6638 20.7097C15.6207 20.5916 15.5104 20.5096 15.3846 20.5096V20.5096C14.6199 20.5096 14 19.8897 14 19.125C14 18.3603 14.6199 17.7404 15.3846 17.7404V17.7404C15.5104 17.7404 15.6207 17.6584 15.6638 17.5403C15.7087 17.4176 15.7586 17.2974 15.8133 17.1798C15.8664 17.0657 15.8464 16.9295 15.7574 16.8405V16.8405C15.2166 16.2998 15.2166 15.4231 15.7574 14.8824C16.2981 14.3416 17.1748 14.3416 17.7155 14.8824V14.8824C17.8045 14.9714 17.9407 14.9914 18.0548 14.9383C18.1724 14.8836 18.2926 14.8337 18.4153 14.7889C18.5334 14.7457 18.6154 14.6354 18.6154 14.5096V14.5096C18.6154 13.7449 19.2353 13.125 20 13.125Z" stroke="#1BC5AC" stroke-width="1.3"/>
<ellipse cx="20.0011" cy="19.1251" rx="2.30769" ry="2.30769" stroke="#1BC5AC" stroke-width="1.3"/>
<defs>
<linearGradient id="paint0_linear_131_13012" x1="20" y1="26.6667" x2="20" y2="-13.75" gradientUnits="userSpaceOnUse">
<stop stop-color="#C0F3EB"/>
<stop offset="1" stop-color="#FBFFFE"/>
</linearGradient>
</defs>
</svg>
