<svg width="25" height="24" viewBox="0 0 25 24" fill="none" xmlns="http://www.w3.org/2000/svg">
<path fill-rule="evenodd" clip-rule="evenodd" d="M7.95268 8.47947C7.70959 5.8055 9.81501 3.5 12.5 3.5V3.5C15.185 3.5 17.2904 5.8055 17.0473 8.47947L16.8621 10.5164C16.657 12.7725 14.7654 14.5 12.5 14.5V14.5C10.2346 14.5 8.34296 12.7725 8.13786 10.5164L7.95268 8.47947Z" stroke="#1BC5AC" stroke-width="1.8" stroke-linecap="round" stroke-linejoin="round"/>
<path d="M19.5 0.6C19.0029 0.6 18.6 1.00294 18.6 1.5C18.6 1.99706 19.0029 2.4 19.5 2.4V0.6ZM21.5 1.5H22.4C22.4 1.00294 21.9971 0.6 21.5 0.6V1.5ZM20.6 3.5C20.6 3.99706 21.0029 4.4 21.5 4.4C21.9971 4.4 22.4 3.99706 22.4 3.5H20.6ZM22.4 13.5C22.4 13.0029 21.9971 12.6 21.5 12.6C21.0029 12.6 20.6 13.0029 20.6 13.5H22.4ZM21.5 15.5V16.4C21.9971 16.4 22.4 15.9971 22.4 15.5H21.5ZM19.5 14.6C19.0029 14.6 18.6 15.0029 18.6 15.5C18.6 15.9971 19.0029 16.4 19.5 16.4V14.6ZM5.5 16.4C5.99706 16.4 6.4 15.9971 6.4 15.5C6.4 15.0029 5.99706 14.6 5.5 14.6V16.4ZM3.5 15.5H2.6C2.6 15.9971 3.00294 16.4 3.5 16.4V15.5ZM4.4 13.5C4.4 13.0029 3.99706 12.6 3.5 12.6C3.00294 12.6 2.6 13.0029 2.6 13.5H4.4ZM2.6 3.5C2.6 3.99706 3.00294 4.4 3.5 4.4C3.99706 4.4 4.4 3.99706 4.4 3.5H2.6ZM3.5 1.5V0.6C3.00294 0.6 2.6 1.00294 2.6 1.5L3.5 1.5ZM5.5 2.4C5.99706 2.4 6.4 1.99706 6.4 1.5C6.4 1.00294 5.99706 0.6 5.5 0.6V2.4ZM19.5 2.4H21.5V0.6H19.5V2.4ZM20.6 1.5V3.5H22.4V1.5H20.6ZM20.6 13.5V15.5H22.4V13.5H20.6ZM21.5 14.6H19.5V16.4H21.5V14.6ZM5.5 14.6H3.5V16.4H5.5V14.6ZM4.4 15.5V13.5H2.6V15.5H4.4ZM4.4 3.5V1.5H2.6V3.5H4.4ZM3.5 2.4H5.5V0.6H3.5V2.4Z" fill="#6CE2D1"/>
<path d="M3.5 22.5V22.5C3.5 21.2993 4.25116 20.2268 5.37959 19.8165L9 18.5C9 18.5 10.75 19.5 12.5 19.5C14.25 19.5 16 18.5 16 18.5L19.6204 19.8165C20.7488 20.2269 21.5 21.2993 21.5 22.5V22.5" stroke="#1BC5AC" stroke-width="1.8" stroke-linecap="round" stroke-linejoin="round"/>
</svg>
