<svg width="24" height="24" viewBox="0 0 24 24" fill="none" xmlns="http://www.w3.org/2000/svg">
<circle cx="15.75" cy="12" r="0.75" stroke="#1BC5AC" stroke-width="1.5"/>
<path d="M21.75 5.25004L21 5.25004L21.75 5.25004ZM5.25 21.75L5.25 21L5.25 21.75ZM18.75 21.75L18.75 21L18.75 21.75ZM21.75 18.75L21 18.75L21.75 18.75ZM1.5 5.25001L1.5 18.75L3 18.75L3 5.25001L1.5 5.25001ZM18.75 21L5.25 21L5.25 22.5L18.75 22.5L18.75 21ZM21 5.25004L21 18.75L22.5 18.75L22.5 5.25004L21 5.25004ZM18.75 1.50004L5.25001 1.50001L5.25001 3.00001L18.75 3.00004L18.75 1.50004ZM22.5 5.25004C22.5 3.17897 20.8211 1.50004 18.75 1.50004L18.75 3.00004C19.9926 3.00004 21 4.0074 21 5.25004L22.5 5.25004ZM3 5.25001C3 4.00736 4.00736 3 5.25001 3.00001L5.25001 1.50001C3.17894 1.5 1.5 3.17894 1.5 5.25001L3 5.25001ZM1.5 18.75C1.5 20.8211 3.17893 22.5 5.25 22.5L5.25 21C4.00736 21 3 19.9926 3 18.75L1.5 18.75ZM18.75 22.5C20.8211 22.5 22.5 20.8211 22.5 18.75L21 18.75C21 19.9926 19.9926 21 18.75 21L18.75 22.5Z" fill="#5C616F"/>
<path d="M21.75 15.75L21.75 16.5C22.1642 16.5 22.5 16.1642 22.5 15.75L21.75 15.75ZM21.75 8.25002L22.5 8.25002L22.5 7.50002L21.75 7.50002L21.75 8.25002ZM15 15.75L15 15L15 15.75ZM11.25 11.25L11.25 12.75L12.75 12.75L12.75 11.25L11.25 11.25ZM21.75 15L15 15L15 16.5L21.75 16.5L21.75 15ZM21 8.25002L21 15.75L22.5 15.75L22.5 8.25002L21 8.25002ZM21.75 7.50002L15 7.5L15 9L21.75 9.00002L21.75 7.50002ZM12.75 11.25C12.75 10.0074 13.7574 9 15 9L15 7.5C12.9289 7.5 11.25 9.17893 11.25 11.25L12.75 11.25ZM11.25 12.75C11.25 14.8211 12.9289 16.5 15 16.5L15 15C13.7574 15 12.75 13.9926 12.75 12.75L11.25 12.75Z" fill="#5C616F"/>
</svg>
