<svg width="30" height="30" viewBox="0 0 30 30" fill="none" xmlns="http://www.w3.org/2000/svg">
<path fill-rule="evenodd" clip-rule="evenodd" d="M26.0815 3.9255C23.44 1.294 19.6415 1 15 1C10.3525 1 6.5485 1.2975 3.908 3.936C1.268 6.5735 1 10.3715 1 15.0135C1 19.6565 1.268 23.4555 3.909 26.094C6.5495 28.733 10.353 29 15 29C19.647 29 23.45 28.733 26.0905 26.094C28.7315 23.455 29 19.6565 29 15.0135C29 10.3655 28.7285 6.5635 26.0815 3.9255Z" fill="#D3F6F1" stroke="url(#paint0_linear_5372_27673)" stroke-width="0.583333"/>
<rect x="10.4038" y="9.16669" width="18.9173" height="1.75" rx="0.875" transform="rotate(45 10.4038 9.16669)" fill="#040C22"/>
<circle cx="14.1248" cy="14.125" r="8.45833" fill="white" stroke="#040C22" stroke-width="1.16667"/>
<circle cx="11.5" cy="12.0833" r="1.3125" stroke="#1BC5AC" stroke-width="0.875"/>
<circle cx="16.1665" cy="16.75" r="1.3125" stroke="#1BC5AC" stroke-width="0.875"/>
<path d="M10.9166 17.595L15.9707 12.094" stroke="#1BC5AC" stroke-width="1.16667" stroke-linecap="round"/>
<path d="M17.436 13.6631L14.3318 10.9158L17.8743 9.88557L17.436 13.6631Z" fill="#1BC5AC"/>
<defs>
<linearGradient id="paint0_linear_5372_27673" x1="15" y1="31.3333" x2="28.3881" y2="-3.47573" gradientUnits="userSpaceOnUse">
<stop stop-color="#C0F3EB"/>
<stop offset="1" stop-color="#FBFFFE"/>
</linearGradient>
</defs>
</svg>
