<svg width="24" height="24" viewBox="0 0 24 24" fill="none" xmlns="http://www.w3.org/2000/svg">
<path d="M19.5 23.25C19.3462 23.2499 19.1962 23.2025 19.0703 23.1143L12 18.1658L4.92975 23.1157C4.81727 23.1944 4.68536 23.2407 4.54839 23.2495C4.41142 23.2584 4.27465 23.2295 4.15297 23.166C4.0313 23.1025 3.92938 23.0068 3.85833 22.8894C3.78727 22.7719 3.7498 22.6373 3.75 22.5V4.35C3.75099 3.39553 4.1306 2.48043 4.80551 1.80551C5.48043 1.1306 6.39553 0.750993 7.35 0.75H16.65C17.6045 0.750993 18.5196 1.1306 19.1945 1.80551C19.8694 2.48043 20.249 3.39553 20.25 4.35V22.5C20.25 22.6989 20.171 22.8897 20.0303 23.0303C19.8897 23.171 19.6989 23.25 19.5 23.25ZM12 16.5C12.1538 16.5001 12.3038 16.5475 12.4298 16.6357L18.75 21.0592V4.35C18.75 3.79305 18.5288 3.2589 18.1349 2.86508C17.7411 2.47125 17.207 2.25 16.65 2.25H7.35C6.79305 2.25 6.2589 2.47125 5.86508 2.86508C5.47125 3.2589 5.25 3.79305 5.25 4.35V21.0592L11.5703 16.6343C11.6964 16.5465 11.8464 16.4997 12 16.5Z" fill="#E18700"/>
</svg>
