<svg width="24" height="24" viewBox="0 0 24 24" fill="none" xmlns="http://www.w3.org/2000/svg">
<path d="M2.25 18.75L2.25 5.25001C2.25 3.59315 3.59315 2.25 5.25001 2.25001L18.75 2.25004C20.4069 2.25004 21.75 3.59318 21.75 5.25004L21.75 18.75C21.75 20.4069 20.4069 21.75 18.75 21.75L5.25 21.75C3.59315 21.75 2.25 20.4069 2.25 18.75Z" fill="#1BC5AC"/>
<path d="M18.75 21.75L18.75 21L18.75 21L18.75 21.75ZM5.25 21.75L5.25 22.5L5.25 21.75ZM18.75 2.25004L18.75 3.00004L18.75 2.25004ZM5.25001 2.25001L5.25 3.00001L5.25001 2.25001ZM1.5 5.25001L1.5 18.75L3 18.75L3 5.25001L1.5 5.25001ZM18.75 21L5.25 21L5.25 22.5L18.75 22.5L18.75 21ZM21 5.25004L21 18.75L22.5 18.75L22.5 5.25004L21 5.25004ZM18.75 1.50004L5.25001 1.50001L5.25 3.00001L18.75 3.00004L18.75 1.50004ZM22.5 5.25004C22.5 3.17897 20.8211 1.50004 18.75 1.50004L18.75 3.00004C19.9926 3.00004 21 4.0074 21 5.25004L22.5 5.25004ZM3 5.25001C3 4.00736 4.00736 3 5.25 3.00001L5.25001 1.50001C3.17894 1.5 1.5 3.17894 1.5 5.25001L3 5.25001ZM1.5 18.75C1.5 20.8211 3.17893 22.5 5.25 22.5L5.25 21C4.00736 21 3 19.9926 3 18.75L1.5 18.75ZM18.75 22.5C20.8211 22.5 22.5 20.8211 22.5 18.75L21 18.75C21 19.9926 19.9926 21 18.75 21L18.75 22.5Z" fill="#1BC5AC"/>
<path d="M11.5 12.75L11.5 11.25C11.5 9.59315 12.8431 8.25 14.5 8.25L20.75 8.25002L20.75 15.75L14.5 15.75C12.8431 15.75 11.5 14.4069 11.5 12.75Z" fill="white"/>
<circle cx="15.75" cy="12" r="0.75" stroke="#1BC5AC" stroke-width="1.5"/>
</svg>
