<svg width="32" height="32" viewBox="0 0 32 32" fill="none" xmlns="http://www.w3.org/2000/svg">
<path fill-rule="evenodd" clip-rule="evenodd" d="M28.6646 3.34343C25.6457 0.336 21.3046 0 16 0C10.6886 0 6.34114 0.34 3.32343 3.35543C0.306286 6.36971 0 10.7103 0 16.0154C0 21.3217 0.306286 25.6634 3.32457 28.6789C6.34229 31.6949 10.6891 32 16 32C21.3109 32 25.6571 31.6949 28.6749 28.6789C31.6931 25.6629 32 21.3217 32 16.0154C32 10.7034 31.6897 6.35829 28.6646 3.34343Z" fill="#D3F6F1"/>
<rect x="9.57617" y="20.9082" width="12.1212" height="2.27272" fill="#040C22"/>
<path d="M11.56 14.8183C11.6533 12.231 13.7778 10.1816 16.3668 10.1816C18.9532 10.1816 21.0765 12.2269 21.1734 14.8114L21.3862 20.4847L22.5453 21.0907V22.5453H10.1816V21.0907L11.3408 20.8968L11.56 14.8183Z" fill="white"/>
<path d="M15.3127 9.0069C15.3377 8.44372 15.8015 8 16.3652 8C16.9282 8 17.3918 8.44263 17.4177 9.00503L17.4553 9.81818L17.3713 10.1818H15.3574L15.2734 9.89091L15.3127 9.0069Z" fill="white"/>
<path d="M17.1185 23.2995C17.0721 24.0845 16.4219 24.6973 15.6355 24.6973C14.8505 24.6973 14.201 24.0865 14.1528 23.303L14.122 22.8033L14.2386 22.4245L17.0358 22.4245L17.1523 22.7276L17.1185 23.2995Z" fill="white"/>
<path d="M9.58846 8.21901C9.81236 8.02837 9.8393 7.69239 9.64866 7.46849C9.45806 7.24466 9.12204 7.21765 8.89814 7.40829C7.34879 8.72757 6.26072 10.5417 5.83436 12.5166C5.77232 12.804 5.95501 13.0873 6.24244 13.1493C6.28031 13.1575 6.31808 13.1614 6.35531 13.1614C6.60065 13.1614 6.82135 12.9908 6.87519 12.7413C7.25253 10.9937 8.21609 9.38762 9.58846 8.21901Z" fill="#1BC5AC"/>
<path d="M25.4374 12.5166C25.011 10.5417 23.923 8.72759 22.3737 7.40834C22.1497 7.21764 21.8138 7.24465 21.6232 7.46854C21.4325 7.6924 21.4595 8.02843 21.6834 8.21906C23.0557 9.3876 24.0193 10.9936 24.3966 12.7413C24.4504 12.9908 24.6711 13.1614 24.9164 13.1614C24.9536 13.1614 24.9915 13.1575 25.0293 13.1493C25.3167 13.0873 25.4995 12.804 25.4374 12.5166Z" fill="#1BC5AC"/>
<path d="M8.92487 13.3506C9.17347 12.0279 9.87124 10.8054 10.8896 9.9085C11.1103 9.71413 11.1316 9.37772 10.9372 9.15709C10.7429 8.93646 10.4065 8.91506 10.1858 9.10946C8.99007 10.1626 8.17062 11.5989 7.8784 13.1539C7.82409 13.4429 8.01434 13.7212 8.30329 13.7755C8.33652 13.7818 8.3696 13.7848 8.40222 13.7848C8.6533 13.7848 8.87681 13.6064 8.92487 13.3506Z" fill="#1BC5AC"/>
<path d="M21.0875 9.10944C20.8668 8.91511 20.5304 8.93641 20.336 9.15707C20.1417 9.37774 20.163 9.71415 20.3837 9.90852C21.402 10.8055 22.0997 12.0279 22.3483 13.3506C22.3964 13.6064 22.6199 13.7848 22.871 13.7848C22.9036 13.7848 22.9367 13.7817 22.9699 13.7755C23.2589 13.7212 23.4491 13.4429 23.3948 13.1539C23.1026 11.5989 22.2832 10.1626 21.0875 9.10944Z" fill="#1BC5AC"/>
<path d="M20.9917 17.929V14.478C20.9917 12.266 19.4596 10.3834 17.3385 9.71454V8.87067C17.3385 7.98996 16.5746 7.27344 15.6357 7.27344C14.6967 7.27344 13.9328 7.98996 13.9328 8.87067V9.71454C11.8117 10.3834 10.2796 12.266 10.2796 14.478V17.929C10.2796 18.4998 10.0555 19.0481 9.64856 19.4726C9.054 20.093 8.72656 20.894 8.72656 21.7281V22.4897C8.72656 22.9506 9.12632 23.3256 9.61772 23.3256H13.3289C13.3489 24.5031 14.3756 25.4553 15.6355 25.4553C16.8955 25.4553 17.9224 24.5031 17.9424 23.3256H21.6536C22.145 23.3256 22.5447 22.9506 22.5447 22.4897V21.7281C22.5447 20.894 22.2173 20.0929 21.6227 19.4726C21.2158 19.0481 20.9917 18.4998 20.9917 17.929ZM15.068 8.87067C15.068 8.5771 15.3227 8.33826 15.6357 8.33826C15.9486 8.33826 16.2033 8.5771 16.2033 8.87067V9.48237C16.0167 9.46388 15.8274 9.45416 15.6357 9.45416C15.444 9.45416 15.2546 9.46385 15.068 9.48237V8.87067ZM11.4148 14.478C11.4148 12.295 13.3083 10.519 15.6357 10.519C17.963 10.519 19.8565 12.295 19.8565 14.478V17.929C19.8565 18.7396 20.1665 19.5185 20.7297 20.1312H10.5416C11.1048 19.5185 11.4148 18.7397 11.4148 17.929V14.478ZM15.6358 24.3904C15.0017 24.3904 14.4834 23.9159 14.4638 23.3256H16.8075C16.7879 23.9159 16.2698 24.3904 15.6358 24.3904ZM21.4095 22.2608H17.3757H13.8956H9.8618V21.7281C9.8618 21.5474 9.88443 21.369 9.92802 21.196H21.3433C21.3869 21.369 21.4095 21.5474 21.4095 21.7281V22.2608Z" fill="#040C22"/>
</svg>
