<svg width="40" height="40" viewBox="0 0 40 40" fill="none" xmlns="http://www.w3.org/2000/svg">
<path d="M4.50767 4.54801L4.50771 4.54797C8.11498 0.943426 13.3372 0.5 20 0.5C26.6544 0.5 31.869 0.938432 35.4778 4.53344C39.0927 8.1361 39.5 13.3523 39.5 20.0193C39.5 26.6793 39.097 31.8908 35.4902 35.4949L35.4901 35.4949C31.8839 39.0991 26.6661 39.5 20 39.5C13.3339 39.5 8.11535 39.0991 4.50917 35.4949L4.5091 35.4949C0.902337 31.8915 0.5 26.6794 0.5 20.0193C0.5 13.3606 0.90234 8.14992 4.50767 4.54801Z" fill="#F0FCFA" stroke="url(#paint0_linear_131_14346)"/>
<path d="M26.9771 27.3576C26.7082 28.6821 25.5372 29.679 24.1334 29.679H13.6869C12.0843 29.679 10.7852 28.3798 10.7852 26.7772V18.6522C10.7852 17.2483 11.7821 16.0773 13.1066 15.8085V14.5897C13.1066 11.3845 15.7049 8.78613 18.9102 8.78613C22.1154 8.78613 24.7137 11.3845 24.7137 14.5897V15.8085C26.0382 16.0773 27.0352 17.2483 27.0352 18.6522V20.3933H28.7762C30.3788 20.3933 31.678 21.6924 31.678 23.2951V24.4558C31.678 26.0584 30.3788 27.3576 28.7762 27.3576H26.9771Z" fill="black"/>
<path d="M26.9771 27.3576V27.2076H26.8545L26.8301 27.3277L26.9771 27.3576ZM13.1066 15.8085L13.1364 15.9555L13.2566 15.9311V15.8085H13.1066ZM24.7137 15.8085H24.5637V15.9311L24.6839 15.9555L24.7137 15.8085ZM27.0352 20.3933H26.8852V20.5433H27.0352V20.3933ZM26.8301 27.3277C26.5752 28.5837 25.4645 29.529 24.1334 29.529V29.829C25.61 29.829 26.8413 28.7804 27.1241 27.3874L26.8301 27.3277ZM24.1334 29.529H13.6869V29.829H24.1334V29.529ZM13.6869 29.529C12.1672 29.529 10.9352 28.297 10.9352 26.7772H10.6352C10.6352 28.4627 12.0015 29.829 13.6869 29.829V29.529ZM10.9352 26.7772V18.6522H10.6352V26.7772H10.9352ZM10.9352 18.6522C10.9352 17.3211 11.8804 16.2104 13.1364 15.9555L13.0767 15.6615C11.6837 15.9442 10.6352 17.1756 10.6352 18.6522H10.9352ZM13.2566 15.8085V14.5897H12.9566V15.8085H13.2566ZM13.2566 14.5897C13.2566 11.4673 15.7878 8.93613 18.9102 8.93613V8.63613C15.6221 8.63613 12.9566 11.3016 12.9566 14.5897H13.2566ZM18.9102 8.93613C22.0325 8.93613 24.5637 11.4673 24.5637 14.5897H24.8637C24.8637 11.3016 22.1982 8.63613 18.9102 8.63613V8.93613ZM24.5637 14.5897V15.8085H24.8637V14.5897H24.5637ZM24.6839 15.9555C25.9399 16.2104 26.8852 17.3211 26.8852 18.6522H27.1852C27.1852 17.1756 26.1366 15.9442 24.7436 15.6615L24.6839 15.9555ZM26.8852 18.6522V20.3933H27.1852V18.6522H26.8852ZM27.0352 20.5433H28.7762V20.2433H27.0352V20.5433ZM28.7762 20.5433C30.296 20.5433 31.528 21.7753 31.528 23.2951H31.828C31.828 21.6096 30.4617 20.2433 28.7762 20.2433V20.5433ZM31.528 23.2951V24.4558H31.828V23.2951H31.528ZM31.528 24.4558C31.528 25.9755 30.296 27.2076 28.7762 27.2076V27.5076C30.4617 27.5076 31.828 26.1412 31.828 24.4558H31.528ZM28.7762 27.2076H26.9771V27.5076H28.7762V27.2076Z" fill="black"/>
<path d="M14.2656 15.7508H23.5513V14.5901C23.5513 12.0259 21.4727 9.94727 18.9085 9.94727C16.3443 9.94727 14.2656 12.0259 14.2656 14.5901L14.2656 15.7508Z" fill="white"/>
<path d="M25.7748 27.3576H20.6507C19.0481 27.3576 17.7489 26.0584 17.7489 24.4558V23.2951C17.7489 21.6924 19.0481 20.3933 20.6507 20.3933H25.8739V18.6522C25.8739 17.7358 25.1659 16.9848 24.267 16.9162C24.224 16.9264 24.179 16.9318 24.1328 16.9318C24.0794 16.9318 24.0277 16.9246 23.9786 16.9111L13.6864 16.9111C12.7248 16.9111 11.9453 17.6906 11.9453 18.6522V26.7772C11.9453 27.7388 12.7248 28.5183 13.6864 28.5183H24.1328C24.8909 28.5183 25.5358 28.0338 25.7748 27.3576Z" fill="white"/>
<path d="M30.5173 24.4555V23.2948C30.5173 22.3332 29.7378 21.5537 28.7762 21.5537H20.6512C19.6897 21.5537 18.9102 22.3332 18.9102 23.2948V24.4555C18.9102 25.4171 19.6897 26.1966 20.6512 26.1966H28.7762C29.7378 26.1966 30.5173 25.4171 30.5173 24.4555Z" fill="white"/>
<path d="M20.6507 22.7148H21.8114C22.1319 22.7148 22.3917 22.9747 22.3917 23.2952V24.4559C22.3917 24.7764 22.1319 25.0363 21.8114 25.0363H20.6507C20.3301 25.0363 20.0703 24.7764 20.0703 24.4559V23.2952C20.0703 22.9747 20.3301 22.7148 20.6507 22.7148Z" fill="#1BC5AC"/>
<path d="M24.135 22.7148H25.2958C25.6163 22.7148 25.8761 22.9747 25.8761 23.2952V24.4559C25.8761 24.7764 25.6163 25.0363 25.2958 25.0363H24.135C23.8145 25.0363 23.5547 24.7764 23.5547 24.4559V23.2952C23.5547 22.9747 23.8145 22.7148 24.135 22.7148Z" fill="#1BC5AC"/>
<path d="M27.6155 22.7148H28.7762C29.0968 22.7148 29.3566 22.9747 29.3566 23.2952V24.4559C29.3566 24.7764 29.0968 25.0363 28.7762 25.0363H27.6155C27.295 25.0363 27.0352 24.7764 27.0352 24.4559V23.2952C27.0352 22.9747 27.295 22.7148 27.6155 22.7148Z" fill="#1BC5AC"/>
<defs>
<linearGradient id="paint0_linear_131_14346" x1="20" y1="26.6667" x2="20" y2="-13.75" gradientUnits="userSpaceOnUse">
<stop stop-color="#C0F3EB"/>
<stop offset="1" stop-color="#FBFFFE"/>
</linearGradient>
</defs>
</svg>
