<svg width="30" height="30" viewBox="0 0 30 30" fill="none" xmlns="http://www.w3.org/2000/svg">
<path fill-rule="evenodd" clip-rule="evenodd" d="M26.0815 3.9255C23.44 1.294 19.6415 1 15 1C10.3525 1 6.5485 1.2975 3.908 3.936C1.268 6.5735 1 10.3715 1 15.0135C1 19.6565 1.268 23.4555 3.909 26.094C6.5495 28.733 10.353 29 15 29C19.647 29 23.45 28.733 26.0905 26.094C28.7315 23.455 29 19.6565 29 15.0135C29 10.3655 28.7285 6.5635 26.0815 3.9255Z" fill="#D3F6F1" stroke="url(#paint0_linear_5917_29081)" stroke-width="0.583333"/>
<rect x="7.56" y="7.56" width="15.7922" height="14.101" rx="3.36" fill="white" stroke="#040C22" stroke-width="1.12"/>
<g clip-path="url(#clip0_5917_29081)">
<path d="M15.4351 18.2L14.2798 16.4281H14.8444V11.48H16.0257V16.4281H16.5904L15.4351 18.2Z" fill="#1BC5AC"/>
<path d="M13.1948 16.5861L12.0396 14.8531H12.6042V11.48H13.7855V14.8531H14.3501L13.1948 16.5861Z" fill="#1BC5AC"/>
<path d="M11.1909 15.0111L10.0356 13.2781H10.6003V11.48H11.7816V13.2781H12.3462L11.1909 15.0111Z" fill="#1BC5AC"/>
</g>
<mask id="path-6-inside-1_5917_29081" fill="white">
<path fill-rule="evenodd" clip-rule="evenodd" d="M23.9121 11.6426V16.8637H21.4675C20.0257 16.8637 18.8569 15.6949 18.8569 14.2531C18.8569 12.8114 20.0257 11.6426 21.4675 11.6426H23.9121Z"/>
</mask>
<path fill-rule="evenodd" clip-rule="evenodd" d="M23.9121 11.6426V16.8637H21.4675C20.0257 16.8637 18.8569 15.6949 18.8569 14.2531C18.8569 12.8114 20.0257 11.6426 21.4675 11.6426H23.9121Z" fill="white"/>
<path d="M23.9121 11.6426H24.7521V10.8026H23.9121V11.6426ZM23.9121 16.8637V17.7037H24.7521V16.8637H23.9121ZM23.0721 11.6426V16.8637H24.7521V11.6426H23.0721ZM23.9121 16.0237H21.4675V17.7037H23.9121V16.0237ZM21.4675 16.0237C20.4896 16.0237 19.6969 15.231 19.6969 14.2531H18.0169C18.0169 16.1588 19.5618 17.7037 21.4675 17.7037V16.0237ZM19.6969 14.2531C19.6969 13.2753 20.4896 12.4826 21.4675 12.4826V10.8026C19.5618 10.8026 18.0169 12.3474 18.0169 14.2531H19.6969ZM21.4675 12.4826H23.9121V10.8026H21.4675V12.4826Z" fill="black" mask="url(#path-6-inside-1_5917_29081)"/>
<rect x="20.8467" y="13.6322" width="1.32645" height="1.32645" rx="0.56" fill="#1BC5AC"/>
<defs>
<linearGradient id="paint0_linear_5917_29081" x1="15" y1="31.3333" x2="28.3881" y2="-3.47573" gradientUnits="userSpaceOnUse">
<stop stop-color="#C0F3EB"/>
<stop offset="1" stop-color="#FBFFFE"/>
</linearGradient>
<clipPath id="clip0_5917_29081">
<rect width="7.28" height="6.72" fill="white" transform="translate(9.7998 11.48)"/>
</clipPath>
</defs>
</svg>
