<svg width="42" height="42" viewBox="0 0 42 42" fill="none" xmlns="http://www.w3.org/2000/svg">
<path d="M4.71539 4.75772L4.71542 4.75769C8.51131 0.964676 14.0052 0.5 21 0.5C27.9859 0.5 33.4719 0.959432 37.2693 4.7424C41.0733 8.53349 41.5 14.0213 41.5 21.0203C41.5 28.0119 41.0778 33.4947 37.2823 37.2873L37.2823 37.2873C33.4875 41.08 27.998 41.5 21 41.5C14.002 41.5 8.51174 41.08 4.71695 37.2873L4.71689 37.2873C0.92148 33.4955 0.5 28.012 0.5 21.0203C0.5 14.03 0.921483 8.54803 4.71539 4.75772Z" fill="#D3F6F1" stroke="url(#paint0_linear_1_11695)"/>
<path d="M9.625 28.875L9.625 14.875C9.625 12.942 11.192 11.375 13.125 11.375L28.875 11.375C30.808 11.375 32.375 12.942 32.375 14.875V28.875C32.375 30.808 30.808 32.375 28.875 32.375L13.125 32.375C11.192 32.375 9.625 30.808 9.625 28.875Z" fill="white"/>
<path d="M9.625 14.875H10.2813H9.625ZM9.625 28.875H8.96875H9.625ZM28.875 32.375V31.7187V32.375ZM13.125 32.375V33.0312V32.375ZM32.375 14.875H31.7187H32.375ZM32.375 28.875H33.0312H32.375ZM28.875 11.375L28.875 10.7188L28.875 11.375ZM13.125 11.375L13.125 12.0313L13.125 11.375ZM32.375 17.1562C32.7374 17.1562 33.0312 16.8624 33.0312 16.5C33.0312 16.1376 32.7374 15.8437 32.375 15.8437V17.1562ZM9.625 15.8437C9.26256 15.8437 8.96875 16.1376 8.96875 16.5C8.96875 16.8624 9.26256 17.1562 9.625 17.1562V15.8437ZM15.0937 13.125C15.0937 13.4874 15.3876 13.7812 15.75 13.7812C16.1124 13.7812 16.4062 13.4874 16.4062 13.125H15.0937ZM16.4062 9.625C16.4062 9.26256 16.1124 8.96875 15.75 8.96875C15.3876 8.96875 15.0937 9.26256 15.0937 9.625H16.4062ZM25.5938 13.125C25.5938 13.4874 25.8876 13.7812 26.25 13.7812C26.6124 13.7812 26.9062 13.4874 26.9062 13.125L25.5938 13.125ZM26.9062 9.625C26.9062 9.26256 26.6124 8.96875 26.25 8.96875C25.8876 8.96875 25.5937 9.26256 25.5937 9.625L26.9062 9.625ZM8.96875 14.875L8.96875 28.875H10.2812L10.2813 14.875H8.96875ZM28.875 31.7187L13.125 31.7188V33.0312L28.875 33.0312V31.7187ZM31.7187 14.875V28.875H33.0312V14.875H31.7187ZM28.875 10.7188L13.125 10.7188L13.125 12.0313L28.875 12.0313L28.875 10.7188ZM33.0312 14.875C33.0312 12.5796 31.1704 10.7188 28.875 10.7188L28.875 12.0313C30.4456 12.0313 31.7187 13.3045 31.7187 14.875H33.0312ZM10.2813 14.875C10.2813 13.3044 11.5544 12.0313 13.125 12.0313L13.125 10.7188C10.8296 10.7188 8.96875 12.5796 8.96875 14.875H10.2813ZM8.96875 28.875C8.96875 31.1704 10.8296 33.0312 13.125 33.0312V31.7188C11.5544 31.7188 10.2812 30.4456 10.2812 28.875H8.96875ZM28.875 33.0312C31.1704 33.0312 33.0312 31.1704 33.0312 28.875H31.7187C31.7187 30.4456 30.4456 31.7187 28.875 31.7187V33.0312ZM32.375 15.8437H9.625V17.1562H32.375V15.8437ZM16.4062 13.125V9.625H15.0937V13.125H16.4062ZM26.9062 13.125L26.9062 9.625L25.5937 9.625L25.5938 13.125L26.9062 13.125Z" fill="black"/>
<path d="M14 20C13.4477 20 13 20.4477 13 21C13 21.5523 13.4477 22 14 22V20ZM16 22C16.5523 22 17 21.5523 17 21C17 20.4477 16.5523 20 16 20V22ZM20 20C19.4477 20 19 20.4477 19 21C19 21.5523 19.4477 22 20 22V20ZM22 22C22.5523 22 23 21.5523 23 21C23 20.4477 22.5523 20 22 20V22ZM26 20C25.4477 20 25 20.4477 25 21C25 21.5523 25.4477 22 26 22V20ZM28 22C28.5523 22 29 21.5523 29 21C29 20.4477 28.5523 20 28 20V22ZM14 25C13.4477 25 13 25.4477 13 26C13 26.5523 13.4477 27 14 27V25ZM16 27C16.5523 27 17 26.5523 17 26C17 25.4477 16.5523 25 16 25V27ZM14 22H16V20H14V22ZM20 22H22V20H20V22ZM26 22H28V20H26V22ZM14 27H16V25H14V27Z" fill="black"/>
<circle cx="21" cy="26" r="3" fill="#006253" stroke="#1BC5AC" stroke-width="0.8"/>
<path d="M20.6033 27.0768C20.9353 27.0768 21.1079 26.907 21.1869 26.755H21.211V27.0471H21.7731V25.0985H22.1373V24.8005H21.7731V24.6152H21.2043V24.8005H20.784V25.0985H21.2043V25.5296H21.1869C21.1106 25.3811 20.946 25.1994 20.602 25.1994C20.151 25.1994 19.7695 25.5106 19.7695 26.1375C19.7695 26.7479 20.1349 27.0768 20.6033 27.0768ZM20.784 26.6742C20.5043 26.6742 20.3517 26.4534 20.3517 26.1351C20.3517 25.8193 20.5016 25.602 20.784 25.602C21.0611 25.602 21.2163 25.8098 21.2163 26.1351C21.2163 26.4605 21.0584 26.6742 20.784 26.6742Z" fill="white"/>
<defs>
<linearGradient id="paint0_linear_1_11695" x1="21" y1="45.5" x2="41.0822" y2="-6.71359" gradientUnits="userSpaceOnUse">
<stop stop-color="#C0F3EB"/>
<stop offset="1" stop-color="#FBFFFE"/>
</linearGradient>
</defs>
</svg>
