<svg width="30" height="30" viewBox="0 0 30 30" fill="none" xmlns="http://www.w3.org/2000/svg">
<path d="M3.70186 3.72966C0.964968 6.46396 0.708333 10.3874 0.708333 15.0135C0.708333 19.6406 0.964967 23.565 3.70282 26.3003C6.44013 29.0361 10.369 29.2917 15 29.2917C19.631 29.2917 23.5594 29.0361 26.2967 26.3003C29.0345 23.5645 29.2917 19.6406 29.2917 15.0135C29.2917 10.3812 29.0315 6.45369 26.2874 3.71891L26.2873 3.71887C23.5497 0.991578 19.6277 0.708333 15 0.708333C10.3662 0.708333 6.43853 0.995066 3.70186 3.72966ZM3.70186 3.72966L3.908 3.936M3.70186 3.72966L3.908 3.936M3.908 3.936C6.5485 1.2975 10.3525 1 15 1C19.6415 1 23.44 1.294 26.0815 3.9255C28.7285 6.5635 29 10.3655 29 15.0135C29 19.6565 28.7315 23.455 26.0905 26.094C23.45 28.733 19.647 29 15 29C10.353 29 6.5495 28.733 3.909 26.094C1.268 23.4555 1 19.6565 1 15.0135C1 10.3715 1.268 6.5735 3.908 3.936Z" fill="#D3F6F1" stroke="url(#paint0_linear_84_17221)" stroke-width="0.583333"/>
<path d="M19.9047 9.16324L19.9042 9.16312C18.3179 8.79927 16.3858 8.10202 15 6.76668C13.6137 8.10252 11.6815 8.7993 10.0957 9.16268L10.0951 9.16282C9.43242 9.31395 8.76136 9.42503 8.0855 9.49546L19.9047 9.16324ZM19.9047 9.16324C20.6987 9.34463 21.4061 9.44289 21.9146 9.49594L21.9151 9.49599M19.9047 9.16324L21.9151 9.49599M21.9151 9.49599C22.1803 9.5234 22.4462 9.54317 22.7125 9.55528L22.7257 9.55588M21.9151 9.49599L22.7257 9.55588M22.7257 9.55588H22.7292M22.7257 9.55588H22.7292M22.7292 9.55588V14.0931C22.7292 18.2847 20.5344 22.4713 15 24.2158C12.2329 23.3433 10.3008 21.8613 9.06021 20.0586C7.81999 18.2546 7.27083 16.1303 7.27083 13.9767V9.55588H7.27208L7.2831 9.55546L7.32004 9.55406L7.32005 9.5541L7.32675 9.55377C7.58009 9.54127 7.83305 9.52183 8.08534 9.49548L22.7292 9.55588Z" fill="white" stroke="#040C22" stroke-width="1.16667"/>
<path d="M14.194 16.8732C13.9661 17.1015 13.5961 17.1015 13.3682 16.8732L12.1845 15.6872C11.9566 15.4589 11.5867 15.4589 11.3588 15.6872L11.089 15.9575C10.8617 16.1852 10.8617 16.554 11.089 16.7817L13.3682 19.0654C13.5961 19.2937 13.9661 19.2937 14.194 19.0654L19.5765 13.6722C19.8037 13.4445 19.8037 13.0758 19.5765 12.8481L19.3067 12.5778C19.0788 12.3494 18.7088 12.3494 18.4809 12.5778L14.194 16.8732Z" fill="#1BC5AC"/>
<defs>
<linearGradient id="paint0_linear_84_17221" x1="15" y1="31.3333" x2="28.3881" y2="-3.47573" gradientUnits="userSpaceOnUse">
<stop stop-color="#C0F3EB"/>
<stop offset="1" stop-color="#FBFFFE"/>
</linearGradient>
</defs>
</svg>
