<svg width="28" height="28" viewBox="0 0 28 28" fill="none" xmlns="http://www.w3.org/2000/svg">
<circle cx="14" cy="14" r="14" fill="white"/>
<circle cx="14.0002" cy="13.9993" r="11.7297" fill="#040C22"/>
<path d="M12.295 18.1353C13.6371 18.1353 14.3352 17.3614 14.6545 16.6687H14.7519V18H17.0248V9.11947H17.9719V7.76114H17.0248V6.91692H14.7249V7.76114H12.571V9.11947H14.7249V11.0839H14.6545C14.346 10.4074 13.6804 9.57946 12.2896 9.57946C10.4659 9.57946 8.92356 10.9973 8.92356 13.8547C8.92356 16.6363 10.4009 18.1353 12.295 18.1353ZM13.0256 16.3007C11.8946 16.3007 11.2776 15.2942 11.2776 13.8438C11.2776 12.4043 11.8837 11.414 13.0256 11.414C14.1458 11.414 14.7736 12.3611 14.7736 13.8438C14.7736 15.3266 14.135 16.3007 13.0256 16.3007Z" fill="white"/>
<rect x="8.83789" y="20.4316" width="9.08108" height="1.51351" rx="0.756757" fill="white"/>
</svg>
