<svg width="38" height="38" viewBox="0 0 38 38" fill="none" xmlns="http://www.w3.org/2000/svg">
<rect x="1" y="1" width="36" height="36" rx="8" stroke="#1BC5AC" stroke-width="2"/>
<path d="M27.563 17.4904H20.5211V10.1651C20.5211 9.61987 19.8126 9 19.0211 9C18.2296 9 17.5243 9.61106 17.5243 10.1563V17.4816L10.3541 17.4904C9.8086 17.4904 9 18.0517 9 18.9467C9 19.8418 9.8086 20.4938 10.3541 20.4938L17.5243 20.485C17.5243 20.485 17.5243 22.6299 17.5243 23.993C17.5243 25.3561 17.5243 27.6299 17.5243 27.6299C17.5243 28.1752 17.8614 29 19.0211 29C20.1809 29 20.5211 28.184 20.5211 27.6387V20.4938H27.563C28.1085 20.4938 29 19.9936 29 18.9467C29 17.8999 28.1085 17.4904 27.563 17.4904Z" fill="#040C22"/>
</svg>
