<svg width="50" height="50" viewBox="0 0 50 50" fill="none" xmlns="http://www.w3.org/2000/svg">
<path d="M44.3498 5.66099L44.3497 5.66092C39.6566 0.985562 32.9331 0.5 25 0.5C17.0564 0.5 10.3232 0.991574 5.63172 5.67946C0.939943 10.3668 0.5 17.0927 0.5 25.0231C0.5 32.9553 0.939943 39.6829 5.6334 44.3719C10.3259 49.0618 17.0612 49.5 25 49.5C32.9388 49.5 39.6732 49.0618 44.3657 44.372C49.0592 39.6821 49.5 32.9554 49.5 25.0231C49.5 17.0821 49.054 10.3492 44.3498 5.66099Z" fill="#D3F6F1" stroke="url(#paint0_linear_84_17118)"/>
<mask id="mask0_84_17118" style="mask-type:alpha" maskUnits="userSpaceOnUse" x="1" y="1" width="48" height="48">
<path fill-rule="evenodd" clip-rule="evenodd" d="M43.9969 6.01514C39.4686 1.504 32.9569 1 25 1C17.0329 1 10.5117 1.51 5.98514 6.03314C1.45943 10.5546 1 17.0654 1 25.0231C1 32.9826 1.45943 39.4951 5.98686 44.0183C10.5134 48.5423 17.0337 49 25 49C32.9663 49 39.4857 48.5423 44.0123 44.0183C48.5397 39.4943 49 32.9826 49 25.0231C49 17.0551 48.5346 10.5374 43.9969 6.01514Z" fill="#D3F6F1"/>
</mask>
<g mask="url(#mask0_84_17118)">
<rect x="10" y="10" width="30" height="50" rx="4" fill="#040C22"/>
<rect x="12" y="13" width="26" height="40" rx="2" fill="white"/>
<rect x="23" y="11" width="4" height="1" rx="0.5" fill="white"/>
<rect x="17" y="34" width="16" height="2" rx="1" fill="#040C22"/>
<rect x="17" y="38.5" width="16" height="2" rx="1" fill="#040C22"/>
<rect x="17" y="43" width="16" height="2" rx="1" fill="#040C22"/>
<rect width="16" height="16" transform="translate(17 16)" fill="white"/>
<path d="M28.5 24L21.5 24" stroke="#1BC5AC" stroke-width="1.5" stroke-linecap="round" stroke-linejoin="round"/>
<path d="M25 27.5L25 20.5" stroke="#1BC5AC" stroke-width="1.5" stroke-linecap="round" stroke-linejoin="round"/>
<circle cx="25" cy="24" r="6.5" stroke="#1BC5AC" stroke-width="1.5"/>
</g>
<defs>
<linearGradient id="paint0_linear_84_17118" x1="25" y1="53" x2="47.951" y2="-6.67268" gradientUnits="userSpaceOnUse">
<stop stop-color="#C0F3EB"/>
<stop offset="1" stop-color="#FBFFFE"/>
</linearGradient>
</defs>
</svg>
