<svg width="16" height="16" viewBox="0 0 16 16" fill="none" xmlns="http://www.w3.org/2000/svg">
<circle cx="7.99998" cy="7.99986" r="7.42857" fill="#040C22"/>
<circle cx="7.99999" cy="7.99963" r="6.16662" stroke="white"/>
<path d="M7.42572 10.3562C8.12281 10.3562 8.48541 9.95423 8.65125 9.59444H8.70184V10.2859H9.8824V5.67331H10.3743V4.96779H9.8824V4.5293H8.68779V4.96779H7.56907V5.67331H8.68779V6.69365H8.65125C8.49103 6.34229 8.14529 5.91223 7.42291 5.91223C6.47565 5.91223 5.67456 6.64868 5.67456 8.1328C5.67456 9.57758 6.44192 10.3562 7.42572 10.3562ZM7.80518 9.4033C7.21772 9.4033 6.89728 8.88049 6.89728 8.12718C6.89728 7.3795 7.21209 6.86511 7.80518 6.86511C8.38703 6.86511 8.71309 7.35701 8.71309 8.12718C8.71309 8.89735 8.38141 9.4033 7.80518 9.4033Z" fill="white"/>
<rect x="5.71423" y="11.3809" width="4.66406" height="0.777344" rx="0.388672" fill="white"/>
</svg>
