<svg width="32" height="32" viewBox="0 0 32 32" fill="none" xmlns="http://www.w3.org/2000/svg">
<path d="M3.67685 3.70912L3.67681 3.70915C0.825768 6.5575 0.5 10.683 0.5 16.0154C0.5 21.349 0.825766 25.4756 3.67796 28.3251L3.67802 28.3252C6.52978 31.1753 10.6616 31.5 16 31.5C21.3383 31.5 25.4696 31.1753 28.3214 28.3252L28.3214 28.3252C31.1737 25.4751 31.5 21.3489 31.5 16.0154C31.5 10.6765 31.1703 6.54659 28.3117 3.69765L3.67685 3.70912ZM3.67685 3.70912C6.5297 0.858426 10.6651 0.5 16 0.5C21.3282 0.5 25.4576 0.854432 28.3116 3.69758L3.67685 3.70912Z" fill="#F0FCFA" stroke="url(#paint0_linear_131_13148)"/>
<path d="M10.25 23L21.75 23C23.9591 23 25.75 21.2091 25.75 19L25.75 12C25.75 9.79086 23.9591 8 21.75 8L10.25 8.00002C8.04086 8.00002 6.25 9.79088 6.25 12L6.25 19C6.25 21.2091 8.04086 23 10.25 23Z" fill="white"/>
<path d="M21.75 23L21.75 23.75L21.75 23.75L21.75 23ZM10.25 23L10.25 23.75L10.25 23ZM6.25 19L5.5 19L5.5 19L6.25 19ZM21.75 8L21.75 8.75L21.75 8.75L21.75 8ZM10.25 8.00002L10.25 8.75002L10.25 8.00002ZM21.75 22.25L10.25 22.25L10.25 23.75L21.75 23.75L21.75 22.25ZM25 12L25 19L26.5 19L26.5 12L25 12ZM5.5 12L5.5 19L7 19L7 12L5.5 12ZM21.75 7.25L10.25 7.25002L10.25 8.75002L21.75 8.75L21.75 7.25ZM26.5 12C26.5 9.37665 24.3733 7.25 21.75 7.25L21.75 8.75C23.5449 8.75 25 10.2051 25 12L26.5 12ZM7 12C7 10.2051 8.45507 8.75002 10.25 8.75002L10.25 7.25002C7.62665 7.25002 5.5 9.37666 5.5 12L7 12ZM10.25 22.25C8.45508 22.25 7 20.7949 7 19L5.5 19C5.5 21.6233 7.62665 23.75 10.25 23.75L10.25 22.25ZM21.75 23.75C24.3734 23.75 26.5 21.6234 26.5 19L25 19C25 20.7949 23.5449 22.25 21.75 22.25L21.75 23.75Z" fill="black"/>
<path d="M9.25 12.25L13.7812 15.2708C15.1248 16.1665 16.8752 16.1665 18.2188 15.2708L22.75 12.25" stroke="#1BC5AC" stroke-width="1.5" stroke-linecap="round" stroke-linejoin="round"/>
<defs>
<linearGradient id="paint0_linear_131_13148" x1="16" y1="21.3333" x2="16" y2="-11" gradientUnits="userSpaceOnUse">
<stop stop-color="#C0F3EB"/>
<stop offset="1" stop-color="#FBFFFE"/>
</linearGradient>
</defs>
</svg>
