<svg width="24" height="24" viewBox="0 0 24 24" fill="none" xmlns="http://www.w3.org/2000/svg">
<path d="M12 7.54688V13.0014H17.4545" stroke="#212121" stroke-width="1.5" stroke-miterlimit="10" stroke-linecap="round"/>
<path d="M3 21L2.52751 16.2751C2.51396 16.1396 2.63692 16.0304 2.76991 16.06L7 17" stroke="#212121" stroke-width="1.5" stroke-miterlimit="10" stroke-linecap="round"/>
<path d="M3.12454 16.6131C4.25108 18.7833 6.13371 20.4655 8.41649 21.3417C10.6993 22.218 13.224 22.2274 15.5133 21.3684C17.8026 20.5093 19.6978 18.8413 20.8406 16.6796C21.9834 14.5179 22.2946 12.0124 21.7153 9.63688C21.1361 7.26132 19.7065 5.18031 17.6969 3.78732C15.6873 2.39432 13.237 1.78588 10.8093 2.07703C8.38149 2.36818 6.14453 3.53875 4.52131 5.36741C2.8981 7.19607 2.00113 9.55609 2 12.0013" stroke="#212121" stroke-width="1.5" stroke-miterlimit="10" stroke-linecap="round"/>
</svg>
