<svg width="30" height="30" viewBox="0 0 30 30" fill="none" xmlns="http://www.w3.org/2000/svg">
<path fill-rule="evenodd" clip-rule="evenodd" d="M26.0815 3.9255C23.44 1.294 19.6415 1 15 1C10.3525 1 6.5485 1.2975 3.908 3.936C1.268 6.5735 1 10.3715 1 15.0135C1 19.6565 1.268 23.4555 3.909 26.094C6.5495 28.733 10.353 29 15 29C19.647 29 23.45 28.733 26.0905 26.094C28.7315 23.455 29 19.6565 29 15.0135C29 10.3655 28.7285 6.5635 26.0815 3.9255Z" fill="#D3F6F1" stroke="url(#paint0_linear_5372_27708)" stroke-width="0.583333"/>
<mask id="path-2-inside-1_5372_27708" fill="white">
<path d="M14.9186 7.14149C15.0126 7.05069 15.1377 7 15.2679 7C15.398 7 15.5232 7.05069 15.6171 7.14149C16.7307 8.2172 18.3159 8.80084 19.6698 9.11139C20.3396 9.26442 20.9372 9.34745 21.3664 9.39222C21.5885 9.41518 21.8112 9.43174 22.0342 9.44187H22.0431C22.1749 9.44506 22.3001 9.50007 22.3922 9.59513C22.4842 9.6902 22.5358 9.81779 22.5357 9.95063V13.9189C22.5357 15.0261 22.3681 16.1339 22.0096 17.1888C21.4693 18.7791 20.4952 20.2491 19.0079 21.4148C18.0373 22.1754 16.8482 22.8065 15.4185 23.2568C15.3204 23.2877 15.2153 23.2877 15.1173 23.2568C13.8798 22.8669 12.8186 22.3403 11.9221 21.7062C10.9938 21.0496 10.2421 20.2779 9.65425 19.4237C9.02365 18.5064 8.58774 17.5033 8.32233 16.4602C8.10289 15.5978 8 14.7082 8 13.8172V9.95063C7.99996 9.81779 8.05147 9.6902 8.14352 9.59513C8.23557 9.50007 8.36085 9.44506 8.4926 9.44187H8.50148L8.53378 9.44065C8.74603 9.43018 8.95795 9.4139 9.16932 9.39181C9.73991 9.33236 10.3065 9.23858 10.866 9.11098C12.2194 8.80084 13.8046 8.21761 14.9186 7.14149Z"/>
</mask>
<path d="M14.9186 7.14149C15.0126 7.05069 15.1377 7 15.2679 7C15.398 7 15.5232 7.05069 15.6171 7.14149C16.7307 8.2172 18.3159 8.80084 19.6698 9.11139C20.3396 9.26442 20.9372 9.34745 21.3664 9.39222C21.5885 9.41518 21.8112 9.43174 22.0342 9.44187H22.0431C22.1749 9.44506 22.3001 9.50007 22.3922 9.59513C22.4842 9.6902 22.5358 9.81779 22.5357 9.95063V13.9189C22.5357 15.0261 22.3681 16.1339 22.0096 17.1888C21.4693 18.7791 20.4952 20.2491 19.0079 21.4148C18.0373 22.1754 16.8482 22.8065 15.4185 23.2568C15.3204 23.2877 15.2153 23.2877 15.1173 23.2568C13.8798 22.8669 12.8186 22.3403 11.9221 21.7062C10.9938 21.0496 10.2421 20.2779 9.65425 19.4237C9.02365 18.5064 8.58774 17.5033 8.32233 16.4602C8.10289 15.5978 8 14.7082 8 13.8172V9.95063C7.99996 9.81779 8.05147 9.6902 8.14352 9.59513C8.23557 9.50007 8.36085 9.44506 8.4926 9.44187H8.50148L8.53378 9.44065C8.74603 9.43018 8.95795 9.4139 9.16932 9.39181C9.73991 9.33236 10.3065 9.23858 10.866 9.11098C12.2194 8.80084 13.8046 8.21761 14.9186 7.14149Z" fill="white"/>
<path d="M14.9186 7.14149L15.7285 7.97994L15.7287 7.97983L14.9186 7.14149ZM15.6171 7.14149L14.8071 7.97983L14.8072 7.97995L15.6171 7.14149ZM19.6698 9.11139L19.4091 10.2476L19.4101 10.2479L19.6698 9.11139ZM21.3664 9.39222L21.2455 10.5517L21.2465 10.5518L21.3664 9.39222ZM22.0342 9.44187L21.9813 10.6064L22.0078 10.6076H22.0342V9.44187ZM22.0431 9.44187L22.0713 8.27644L22.0572 8.2761H22.0431V9.44187ZM22.5357 9.95063L21.3699 9.9503V9.95063H22.5357ZM15.4185 23.2568L15.0682 22.1449L15.0681 22.145L15.4185 23.2568ZM15.1173 23.2568L15.4677 22.145L15.4676 22.1449L15.1173 23.2568ZM9.65425 19.4237L8.69359 20.0841L8.69389 20.0845L9.65425 19.4237ZM8 9.95063L9.16577 9.95063L9.16577 9.9503L8 9.95063ZM8.4926 9.44187V8.2761H8.4785L8.4644 8.27644L8.4926 9.44187ZM8.50148 9.44187V10.6076H8.52351L8.54553 10.6068L8.50148 9.44187ZM8.53378 9.44065L8.57783 10.6057L8.59123 10.605L8.53378 9.44065ZM9.16932 9.39181L9.0485 8.23232L9.04818 8.23235L9.16932 9.39181ZM10.866 9.11098L11.1252 10.2476L11.1263 10.2473L10.866 9.11098ZM22.0096 17.1888L23.1134 17.5639L22.0096 17.1888ZM19.0079 21.4148L19.727 22.3323L19.727 22.3323L19.0079 21.4148ZM11.9221 21.7062L12.5953 20.7544L12.5953 20.7544L11.9221 21.7062ZM8.32233 16.4602L9.4521 16.1727L8.32233 16.4602ZM15.7287 7.97983C15.6062 8.09816 15.4412 8.16577 15.2679 8.16577V5.83423C14.8341 5.83423 14.4189 6.00322 14.1085 6.30314L15.7287 7.97983ZM15.2679 8.16577C15.0945 8.16577 14.9295 8.09816 14.8071 7.97983L16.4272 6.30314C16.1168 6.00322 15.7016 5.83423 15.2679 5.83423V8.16577ZM14.8072 7.97995C16.1456 9.27284 17.9753 9.91875 19.4091 10.2476L19.9304 7.97512C18.6566 7.68293 17.3158 7.16155 16.4271 6.30302L14.8072 7.97995ZM19.4101 10.2479C20.1357 10.4136 20.781 10.5033 21.2455 10.5517L21.4873 8.23274C21.0934 8.19164 20.5435 8.1152 19.9294 7.9749L19.4101 10.2479ZM21.2465 10.5518C21.4909 10.5771 21.7359 10.5953 21.9813 10.6064L22.0872 8.2773C21.8865 8.26818 21.6861 8.25329 21.4863 8.23263L21.2465 10.5518ZM22.0342 10.6076H22.0431V8.2761H22.0342V10.6076ZM22.0149 10.6073C21.8394 10.6031 21.6745 10.5298 21.5547 10.4061L23.2297 8.78421C22.9258 8.47038 22.5103 8.28707 22.0713 8.27644L22.0149 10.6073ZM21.5547 10.4061C21.4352 10.2826 21.3699 10.1189 21.3699 9.9503L23.7015 9.95096C23.7016 9.51666 23.5333 9.09776 23.2297 8.78421L21.5547 10.4061ZM21.3699 9.95063V13.9189H23.7015V9.95063H21.3699ZM15.0681 22.145C15.1981 22.104 15.3376 22.104 15.4677 22.145L14.7668 24.3687C15.093 24.4715 15.4427 24.4715 15.7689 24.3687L15.0681 22.145ZM9.16577 13.8172V9.95063H6.83423V13.8172H9.16577ZM9.16577 9.9503C9.16582 10.1189 9.10052 10.2826 8.98103 10.4061L7.306 8.78421C7.00242 9.09775 6.8341 9.51665 6.83423 9.95096L9.16577 9.9503ZM8.98103 10.4061C8.86126 10.5298 8.6963 10.6031 8.5208 10.6073L8.4644 8.27644C8.0254 8.28707 7.60987 8.47038 7.306 8.78421L8.98103 10.4061ZM8.4926 10.6076H8.50148V8.2761H8.4926V10.6076ZM8.54553 10.6068L8.57783 10.6056L8.48974 8.27571L8.45744 8.27693L8.54553 10.6068ZM8.59123 10.605C8.82475 10.5935 9.05791 10.5756 9.29046 10.5513L9.04818 8.23235C8.85799 8.25222 8.66731 8.26688 8.47634 8.2763L8.59123 10.605ZM9.29014 10.5513C9.90729 10.487 10.5201 10.3856 11.1252 10.2476L10.6067 7.97439C10.0929 8.09159 9.57253 8.17771 9.0485 8.23232L9.29014 10.5513ZM11.1263 10.2473C12.5599 9.91881 14.3896 9.27333 15.7285 7.97994L14.1087 6.30303C13.2196 7.16188 11.8789 7.68287 10.6056 7.97466L11.1263 10.2473ZM21.3699 13.9189C21.3699 14.9091 21.22 15.8893 20.9059 16.8138L23.1134 17.5639C23.5162 16.3785 23.7015 15.143 23.7015 13.9189H21.3699ZM20.9059 16.8138C20.4344 18.2013 19.5886 19.4785 18.2888 20.4972L19.727 22.3323C21.4018 21.0197 22.5041 19.357 23.1134 17.5639L20.9059 16.8138ZM18.2888 20.4972C17.4375 21.1644 16.3757 21.7331 15.0682 22.1449L15.7687 24.3687C17.3208 23.8798 18.6372 23.1864 19.727 22.3323L18.2888 20.4972ZM15.4676 22.1449C14.3357 21.7883 13.3851 21.313 12.5953 20.7544L11.249 22.658C12.2522 23.3675 13.424 23.9455 14.7669 24.3687L15.4676 22.1449ZM12.5953 20.7544C11.7782 20.1765 11.124 19.503 10.6146 18.7628L8.69389 20.0845C9.36025 21.0529 10.2095 21.9228 11.249 22.658L12.5953 20.7544ZM10.6149 18.7632C10.0679 17.9676 9.68614 17.0925 9.4521 16.1727L7.19256 16.7477C7.48933 17.914 7.97939 19.0452 8.69359 20.0841L10.6149 18.7632ZM9.4521 16.1727C9.25838 15.4115 9.16577 14.6189 9.16577 13.8172H6.83423C6.83423 14.7975 6.94739 15.7842 7.19256 16.7477L9.4521 16.1727Z" fill="#040C22" mask="url(#path-2-inside-1_5372_27708)"/>
<path d="M14.2946 16.1729C14.0773 16.3907 13.7244 16.3907 13.507 16.1729L12.5378 15.2018C12.3204 14.984 11.9675 14.984 11.7501 15.2018L11.5798 15.3725C11.363 15.5897 11.363 15.9414 11.5798 16.1586L13.507 18.0896C13.7244 18.3074 14.0773 18.3074 14.2946 18.0896L18.9352 13.4399C19.152 13.2227 19.152 12.871 18.9352 12.6538L18.7649 12.4831C18.5475 12.2653 18.1946 12.2653 17.9772 12.4831L14.2946 16.1729Z" fill="#1BC5AC"/>
<defs>
<linearGradient id="paint0_linear_5372_27708" x1="15" y1="31.3333" x2="28.3881" y2="-3.47573" gradientUnits="userSpaceOnUse">
<stop stop-color="#C0F3EB"/>
<stop offset="1" stop-color="#FBFFFE"/>
</linearGradient>
</defs>
</svg>
