<svg width="76" height="75" viewBox="0 0 76 75" fill="none" xmlns="http://www.w3.org/2000/svg">
<g filter="url(#filter0_d_1_11798)">
<path fill-rule="evenodd" clip-rule="evenodd" d="M60.9545 11.06C55.4829 5.609 47.6145 5 38 5C28.373 5 20.4933 5.61625 15.0237 11.0817C9.55514 16.5451 9 24.4124 9 34.028C9 43.6456 9.55514 51.515 15.0258 56.9804C20.4954 62.4469 28.3741 63 38 63C47.6259 63 55.5036 62.4469 60.9732 56.9804C66.4438 51.5139 67 43.6456 67 34.028C67 24.4 66.4376 16.5244 60.9545 11.06Z" fill="#D3F6F1"/>
<path d="M61.4002 57.4078C67.0715 51.7408 67.6042 43.6128 67.6042 34.028C67.6042 24.4326 67.0653 16.2969 61.381 10.632L61.3809 10.6319C55.7101 4.98255 47.5859 4.39583 38 4.39583C28.4015 4.39583 20.2655 4.98978 14.5967 10.6543M61.4002 57.4078L60.9732 56.9804M61.4002 57.4078L60.9732 56.9804M61.4002 57.4078C55.7301 63.0747 47.5927 63.6042 38 63.6042C28.4073 63.6042 20.2689 63.0747 14.5988 57.4078C8.92744 51.7419 8.39583 43.6126 8.39583 34.028C8.39583 24.4454 8.92743 16.3182 14.5967 10.6543M60.9732 56.9804C66.4438 51.5139 67 43.6456 67 34.028C67 24.4 66.4376 16.5244 60.9545 11.06C55.4829 5.609 47.6145 5 38 5C28.373 5 20.4933 5.61625 15.0237 11.0817M60.9732 56.9804C55.5036 62.4469 47.6259 63 38 63C28.3741 63 20.4954 62.4469 15.0258 56.9804C9.55514 51.515 9 43.6456 9 34.028C9 24.4124 9.55514 16.5451 15.0237 11.0817M14.5967 10.6543L15.0237 11.0817M14.5967 10.6543L15.0237 11.0817" stroke="url(#paint0_linear_1_11798)" stroke-width="1.20833"/>
</g>
<mask id="path-3-inside-1_1_11798" fill="white">
<path d="M37.1725 16.0652C37.3952 15.8501 37.6916 15.73 38 15.73C38.3084 15.73 38.6048 15.8501 38.8275 16.0652C41.4658 18.6137 45.2214 19.9965 48.4288 20.7322C50.0158 21.0948 51.4316 21.2915 52.4484 21.3975C52.9746 21.4519 53.5022 21.4912 54.0307 21.5152H54.0517C54.3638 21.5227 54.6607 21.6531 54.8787 21.8783C55.0968 22.1035 55.2188 22.4058 55.2188 22.7205V32.122C55.2188 34.745 54.8216 37.3697 53.9724 39.869C52.6922 43.6367 50.3844 47.1193 46.8607 49.8809C44.5613 51.683 41.7442 53.1781 38.3568 54.2451C38.1245 54.3183 37.8755 54.3183 37.6432 54.2451C34.7116 53.3213 32.1974 52.0736 30.0734 50.5714C27.8741 49.0159 26.0932 47.1876 24.7004 45.1637C23.2065 42.9905 22.1737 40.614 21.5449 38.1428C21.025 36.0997 20.7813 33.9919 20.7813 31.881V22.7205C20.7812 22.4058 20.9032 22.1035 21.1213 21.8783C21.3393 21.6531 21.6362 21.5227 21.9483 21.5152H21.9693L22.0459 21.5123C22.5487 21.4875 23.0508 21.4489 23.5516 21.3966C24.9034 21.2557 26.2456 21.0335 27.5712 20.7312C30.7777 19.9965 34.5333 18.6147 37.1725 16.0652Z"/>
</mask>
<path d="M37.1725 16.0652C37.3952 15.8501 37.6916 15.73 38 15.73C38.3084 15.73 38.6048 15.8501 38.8275 16.0652C41.4658 18.6137 45.2214 19.9965 48.4288 20.7322C50.0158 21.0948 51.4316 21.2915 52.4484 21.3975C52.9746 21.4519 53.5022 21.4912 54.0307 21.5152H54.0517C54.3638 21.5227 54.6607 21.6531 54.8787 21.8783C55.0968 22.1035 55.2188 22.4058 55.2188 22.7205V32.122C55.2188 34.745 54.8216 37.3697 53.9724 39.869C52.6922 43.6367 50.3844 47.1193 46.8607 49.8809C44.5613 51.683 41.7442 53.1781 38.3568 54.2451C38.1245 54.3183 37.8755 54.3183 37.6432 54.2451C34.7116 53.3213 32.1974 52.0736 30.0734 50.5714C27.8741 49.0159 26.0932 47.1876 24.7004 45.1637C23.2065 42.9905 22.1737 40.614 21.5449 38.1428C21.025 36.0997 20.7813 33.9919 20.7813 31.881V22.7205C20.7812 22.4058 20.9032 22.1035 21.1213 21.8783C21.3393 21.6531 21.6362 21.5227 21.9483 21.5152H21.9693L22.0459 21.5123C22.5487 21.4875 23.0508 21.4489 23.5516 21.3966C24.9034 21.2557 26.2456 21.0335 27.5712 20.7312C30.7777 19.9965 34.5333 18.6147 37.1725 16.0652Z" fill="white"/>
<path d="M37.1725 16.0652L39.0914 18.0516L39.0917 18.0514L37.1725 16.0652ZM38.8275 16.0652L36.9083 18.0514L36.9086 18.0516L38.8275 16.0652ZM48.4288 20.7322L47.8113 23.4242L47.8137 23.4247L48.4288 20.7322ZM52.4484 21.3975L52.1619 24.1445L52.1644 24.1448L52.4484 21.3975ZM54.0307 21.5152L53.9053 24.2742L53.9679 24.2771H54.0307V21.5152ZM54.0517 21.5152L54.1185 18.7541L54.0851 18.7533H54.0517V21.5152ZM55.2188 22.7205L52.4568 22.7197V22.7205H55.2188ZM38.3568 54.2451L37.527 51.6107L37.5266 51.6109L38.3568 54.2451ZM37.6432 54.2451L38.4734 51.6109L38.4732 51.6108L37.6432 54.2451ZM24.7004 45.1637L22.4245 46.7283L22.4252 46.7293L24.7004 45.1637ZM20.7813 22.7205H23.5432L23.5432 22.7197L20.7813 22.7205ZM21.9483 21.5152V18.7533H21.9149L21.8815 18.7541L21.9483 21.5152ZM21.9693 21.5152V24.2771H22.0215L22.0737 24.2751L21.9693 21.5152ZM22.0459 21.5123L22.1502 24.2722L22.1661 24.2716L22.182 24.2708L22.0459 21.5123ZM23.5516 21.3966L23.2653 18.6495L23.2646 18.6496L23.5516 21.3966ZM27.5712 20.7312L28.1853 23.424L28.1881 23.4234L27.5712 20.7312ZM53.9724 39.869L56.5875 40.7576L53.9724 39.869ZM46.8607 49.8809L48.5644 52.0547L46.8607 49.8809ZM30.0734 50.5714L31.6682 48.3165L30.0734 50.5714ZM21.5449 38.1428L24.2215 37.4617L21.5449 38.1428ZM39.0917 18.0514C38.8016 18.3317 38.4108 18.4919 38 18.4919V12.9681C36.9724 12.9681 35.9887 13.3684 35.2534 14.079L39.0917 18.0514ZM38 18.4919C37.5892 18.4919 37.1984 18.3317 36.9083 18.0514L40.7466 14.079C40.0113 13.3684 39.0276 12.9681 38 12.9681V18.4919ZM36.9086 18.0516C40.0795 21.1147 44.4143 22.645 47.8113 23.4242L49.0463 18.0402C46.0284 17.348 42.852 16.1127 40.7463 14.0787L36.9086 18.0516ZM47.8137 23.4247C49.5327 23.8175 51.0616 24.0298 52.1619 24.1445L52.735 18.6505C51.8016 18.5532 50.499 18.3721 49.044 18.0397L47.8137 23.4247ZM52.1644 24.1448C52.7434 24.2047 53.3239 24.2478 53.9053 24.2742L54.1561 18.7561C53.6806 18.7345 53.2059 18.6992 52.7324 18.6503L52.1644 24.1448ZM54.0307 24.2771H54.0517V18.7533H54.0307V24.2771ZM53.9849 24.2763C53.5691 24.2662 53.1783 24.0926 52.8945 23.7995L56.8629 19.9571C56.143 19.2135 55.1586 18.7793 54.1185 18.7541L53.9849 24.2763ZM52.8945 23.7995C52.6114 23.5071 52.4567 23.1192 52.4568 22.7197L57.9807 22.7213C57.9809 21.6924 57.5822 20.6999 56.8629 19.9571L52.8945 23.7995ZM52.4568 22.7205V32.122H57.9807V22.7205H52.4568ZM37.5266 51.6109C37.8347 51.5138 38.1653 51.5138 38.4734 51.6109L36.813 56.8792C37.5857 57.1228 38.4143 57.1228 39.187 56.8792L37.5266 51.6109ZM23.5432 31.881V22.7205H18.0193V31.881H23.5432ZM23.5432 22.7197C23.5433 23.1192 23.3886 23.5071 23.1055 23.7995L19.1371 19.9571C18.4178 20.6999 18.0191 21.6923 18.0193 22.7213L23.5432 22.7197ZM23.1055 23.7995C22.8217 24.0926 22.4309 24.2662 22.0151 24.2763L21.8815 18.7541C20.8414 18.7793 19.857 19.2135 19.1371 19.9571L23.1055 23.7995ZM21.9483 24.2771H21.9693V18.7533H21.9483V24.2771ZM22.0737 24.2751L22.1502 24.2722L21.9415 18.7524L21.865 18.7552L22.0737 24.2751ZM22.182 24.2708C22.7352 24.2435 23.2876 24.2011 23.8386 24.1435L23.2646 18.6496C22.814 18.6967 22.3622 18.7314 21.9098 18.7537L22.182 24.2708ZM23.8378 24.1436C25.2999 23.9913 26.7517 23.751 28.1853 23.424L26.9571 18.0385C25.7396 18.3161 24.5068 18.5202 23.2653 18.6495L23.8378 24.1436ZM28.1881 23.4234C31.5843 22.6451 35.9193 21.1159 39.0914 18.0516L35.2536 14.0787C33.1473 16.1135 29.9711 17.3478 26.9543 18.0391L28.1881 23.4234ZM52.4568 32.122C52.4568 34.468 52.1015 36.7903 51.3574 38.9804L56.5875 40.7576C57.5417 37.9492 57.9807 35.022 57.9807 32.122H52.4568ZM51.3574 38.9804C50.2404 42.2676 48.2365 45.2936 45.1571 47.7071L48.5644 52.0547C52.5324 48.945 55.144 45.0058 56.5875 40.7576L51.3574 38.9804ZM45.1571 47.7071C43.1402 49.2878 40.6246 50.6351 37.527 51.6107L39.1866 56.8794C42.8637 55.7211 45.9825 54.0782 48.5644 52.0547L45.1571 47.7071ZM38.4732 51.6108C35.7915 50.7658 33.5395 49.6399 31.6682 48.3165L28.4786 52.8263C30.8553 54.5072 33.6316 55.8768 36.8131 56.8793L38.4732 51.6108ZM31.6682 48.3165C29.7323 46.9473 28.1825 45.3517 26.9757 43.598L22.4252 46.7293C24.0039 49.0235 26.0159 51.0845 28.4786 52.8263L31.6682 48.3165ZM26.9764 43.599C25.6805 41.714 24.776 39.6409 24.2215 37.4617L18.8683 38.8239C19.5714 41.5871 20.7324 44.2671 22.4245 46.7283L26.9764 43.599ZM24.2215 37.4617C23.7626 35.6581 23.5432 33.7804 23.5432 31.881H18.0193C18.0193 34.2035 18.2875 36.5413 18.8683 38.8239L24.2215 37.4617Z" fill="#040C22" mask="url(#path-3-inside-1_1_11798)"/>
<path d="M35.6948 37.4624C35.1799 37.9784 34.3438 37.9784 33.8288 37.4624L31.5325 35.1615C31.0175 34.6455 30.1815 34.6455 29.6665 35.1615L29.2628 35.5659C28.7493 36.0805 28.7493 36.9137 29.2628 37.4283L33.8288 42.0033C34.3438 42.5193 35.1799 42.5193 35.6948 42.0033L46.6892 30.9873C47.2027 30.4727 47.2027 29.6395 46.6892 29.1249L46.2855 28.7205C45.7705 28.2045 44.9345 28.2045 44.4195 28.7205L35.6948 37.4624Z" fill="#1BC5AC"/>
<defs>
<filter id="filter0_d_1_11798" x="0.886742" y="0.339123" width="74.2265" height="74.2265" filterUnits="userSpaceOnUse" color-interpolation-filters="sRGB">
<feFlood flood-opacity="0" result="BackgroundImageFix"/>
<feColorMatrix in="SourceAlpha" type="matrix" values="0 0 0 0 0 0 0 0 0 0 0 0 0 0 0 0 0 0 127 0" result="hardAlpha"/>
<feOffset dy="3.45238"/>
<feGaussianBlur stdDeviation="3.45238"/>
<feColorMatrix type="matrix" values="0 0 0 0 0.840451 0 0 0 0 0.979167 0 0 0 0 0.958767 0 0 0 1 0"/>
<feBlend mode="normal" in2="BackgroundImageFix" result="effect1_dropShadow_1_11798"/>
<feBlend mode="normal" in="SourceGraphic" in2="effect1_dropShadow_1_11798" result="shape"/>
</filter>
<linearGradient id="paint0_linear_1_11798" x1="39.7262" y1="68.869" x2="61.1256" y2="13.2305" gradientUnits="userSpaceOnUse">
<stop stop-color="#1BC5AC"/>
<stop offset="1" stop-color="#B8FAF0" stop-opacity="0.3"/>
</linearGradient>
</defs>
</svg>
