<svg width="44" height="44" viewBox="0 0 44 44" fill="none" xmlns="http://www.w3.org/2000/svg">
<path d="M4.4231 4.96743L4.42313 4.9674C8.40763 0.985926 14.1733 0.5 21.5 0.5C28.8175 0.5 34.5747 0.980432 38.5608 4.95137C42.5539 8.93088 43 14.6902 43 22.0212C43 29.3445 42.5586 35.0986 38.5745 39.0797L38.5745 39.0798C34.5911 43.0609 28.8299 43.5 21.5 43.5C14.1701 43.5 8.40814 43.0609 4.42474 39.0798L4.42467 39.0797C0.440623 35.0994 0 29.3446 0 22.0212C0 14.6994 0.440625 8.94614 4.4231 4.96743Z" fill="#D3F6F1" stroke="url(#paint0_linear_1_11678)"/>
<path d="M13.4482 22.0239H30.5529V27.7261C30.5529 30.0733 28.6501 31.9761 26.3029 31.9761H17.6982C15.351 31.9761 13.4482 30.0733 13.4482 27.7261V22.0239Z" fill="white" stroke="black" stroke-width="1.5" stroke-linecap="round"/>
<path d="M9.77002 16.9728L20.2447 11.8573C21.3524 11.3163 22.6476 11.3163 23.7553 11.8573L34.23 16.9728C35.7423 17.7113 35.7218 19.8736 34.1958 20.5834L23.6869 25.4712C22.6173 25.9687 21.3827 25.9687 20.3131 25.4712L9.80422 20.5834C8.27824 19.8736 8.25775 17.7113 9.77002 16.9728Z" fill="white" stroke="black" stroke-width="1.5" stroke-linecap="round"/>
<path d="M26.8374 18.4419H30.393" stroke="#1BC5AC" stroke-width="2" stroke-linecap="round"/>
<path d="M33.1113 21.6665V26.1109" stroke="black" stroke-width="1.5" stroke-linecap="round"/>
<defs>
<linearGradient id="paint0_linear_1_11678" x1="21.5" y1="47.6667" x2="42.5384" y2="-7.03329" gradientUnits="userSpaceOnUse">
<stop stop-color="#C0F3EB"/>
<stop offset="1" stop-color="#FBFFFE"/>
</linearGradient>
</defs>
</svg>
