<svg width="81" height="121" viewBox="0 0 81 121" fill="none" xmlns="http://www.w3.org/2000/svg">
<path d="M67.135 119.779C67.1568 119.838 67.1568 119.902 67.135 119.961C67.1142 120.018 67.079 120.068 67.033 120.107C66.7212 120.317 66.3759 120.473 66.0119 120.567C65.5375 120.702 65.0467 120.771 64.5533 120.771C63.4562 120.841 62.3758 120.474 61.5486 119.75C61.1788 119.354 60.8926 118.888 60.7072 118.379C60.5217 117.871 60.4408 117.33 60.4693 116.789V111.086H58.7992C58.7256 111.085 58.655 111.057 58.6023 111.005C58.5517 110.952 58.523 110.882 58.522 110.809V109.146C58.5214 109.109 58.5281 109.073 58.5419 109.039C58.5557 109.005 58.5762 108.975 58.6023 108.949C58.627 108.921 58.6574 108.899 58.6913 108.884C58.7252 108.869 58.762 108.861 58.7992 108.861H60.4693V106.433C60.4617 106.399 60.4617 106.364 60.4693 106.331C60.4826 106.298 60.5024 106.268 60.5276 106.243C60.5542 106.215 60.5865 106.193 60.6224 106.178C60.656 106.17 60.6909 106.17 60.7245 106.178H62.9124C62.946 106.17 62.9809 106.17 63.0145 106.178C63.0791 106.213 63.1322 106.266 63.1677 106.331C63.1752 106.364 63.1752 106.399 63.1677 106.433V108.861H64.9617C64.9989 108.861 65.0356 108.869 65.0696 108.884C65.1035 108.899 65.1339 108.921 65.1586 108.949C65.1841 108.973 65.2043 109.003 65.2181 109.035C65.2319 109.068 65.239 109.103 65.2389 109.138V110.809C65.2389 110.882 65.2097 110.953 65.1577 111.005C65.1057 111.057 65.0352 111.086 64.9617 111.086H63.1677V116.716C63.132 117.193 63.2808 117.665 63.5834 118.036C63.7429 118.196 63.9347 118.32 64.1459 118.401C64.3571 118.481 64.583 118.516 64.8086 118.503C65.2578 118.507 65.7004 118.394 66.0922 118.175C66.1283 118.168 66.1654 118.168 66.2015 118.175C66.2401 118.167 66.2797 118.167 66.3182 118.175C66.3563 118.189 66.391 118.212 66.4203 118.24C66.4465 118.267 66.4664 118.299 66.4787 118.335L67.135 119.779Z" fill="black"/>
<path d="M63.3192 74.5743V77.1049C63.3283 79.3745 62.8768 81.6224 61.9919 83.7124C61.2885 83.692 60.5871 83.6287 59.8915 83.5228C58.7611 83.3623 55.6689 81.8016 55.6689 81.8016L53.4299 80.6274L42.33 74.793L24.6663 64.1088C19.6342 59.9518 16.8336 56.6554 16.8336 50.697V15.8583C16.8249 13.785 17.2084 11.7286 17.9641 9.79785C20.2944 10.0106 22.5522 10.7193 24.5861 11.8764L26.4969 12.9484C26.0969 13.8815 25.8933 14.8869 25.8988 15.9021V48.0715C25.8988 52.2796 27.8534 54.6352 31.3832 57.5524C31.4512 57.6122 31.5244 57.6659 31.602 57.7128L44.0001 65.2246L44.0949 65.283L53.2257 70.6433L54.203 71.1611C55.5595 71.8904 57.9443 73.1375 58.8194 73.5532C60.2281 74.2144 61.7632 74.5627 63.3192 74.5743V74.5743Z" fill="white"/>
<path d="M71.0354 68.1708V68.2729V75.493C71.047 78.1393 70.4322 80.7508 69.2413 83.1141C72.4412 81.9067 75.1955 79.7501 77.135 76.9333C79.0746 74.1164 80.1068 70.774 80.0933 67.354V58.3398C80.0919 58.1646 80.0448 57.9927 79.9566 57.8412C79.8684 57.6897 79.7421 57.5639 79.5903 57.4762C79.4386 57.3886 79.2665 57.342 79.0912 57.3413C78.9159 57.3405 78.7435 57.3856 78.591 57.472L72.0273 61.2497C71.7259 61.4212 71.4753 61.6694 71.3011 61.9692C71.1269 62.269 71.0352 62.6096 71.0354 62.9563V68.1708ZM30.377 6.27513L63.6111 24.9598C65.8636 26.2293 67.7382 28.0748 69.0427 30.3072C70.3473 32.5396 71.035 35.0786 71.0354 37.6642V51.448C71.0351 51.6246 71.0816 51.7981 71.1702 51.9509C71.2588 52.1036 71.3863 52.2302 71.5398 52.3177C71.6932 52.4051 71.867 52.4504 72.0436 52.4488C72.2202 52.4472 72.3933 52.3988 72.5451 52.3085L79.1088 48.4432C79.41 48.2668 79.6596 48.0142 79.8324 47.7108C80.0052 47.4074 80.0952 47.0639 80.0933 46.7148V34.3167C80.0931 31.1502 79.2508 28.0408 77.6527 25.3072C76.0546 22.5736 73.7582 20.3142 70.999 18.7607L41.4404 2.12542C38.4646 0.441798 35.0368 -0.269308 31.6368 0.0916152C28.2368 0.452539 25.0347 1.86743 22.4786 4.13828C25.2723 4.15819 28.0142 4.89389 30.4426 6.27513" fill="white"/>
<path d="M62.3276 58.3236C62.6278 58.1477 62.8766 57.8963 63.0494 57.5943C63.2221 57.2923 63.3127 56.9503 63.3122 56.6024V44.0876C63.3074 40.925 62.4629 37.8204 60.865 35.0911C59.2672 32.3619 56.9733 30.1058 54.2178 28.5536L24.6155 11.8964C22.1106 10.4849 19.2797 9.75412 16.4045 9.77688C13.5294 9.79965 10.7104 10.5751 8.22815 12.0261C5.74591 13.4771 3.68703 15.553 2.25651 18.0471C0.825983 20.5412 0.0737099 23.3665 0.0745857 26.2417V61.0803C0.0745857 67.0095 2.84593 70.306 7.84892 74.4411C7.88536 74.4766 7.92721 74.5062 7.9729 74.5286L25.4761 85.1472H25.5271L38.8369 92.1558C38.8369 92.1558 41.9291 93.7092 43.0595 93.8769C53.7073 95.4303 63.2757 87.7873 63.2757 77.103V67.9722C63.2765 67.7961 63.2308 67.6228 63.1431 67.4701C63.0554 67.3173 62.9289 67.1904 62.7763 67.1023C62.6238 67.0142 62.4507 66.968 62.2746 66.9684C62.0984 66.9687 61.9255 67.0156 61.7733 67.1043L55.2097 70.8748C54.9083 71.0462 54.6577 71.2945 54.4835 71.5943C54.3092 71.894 54.2176 72.2346 54.2178 72.5814V77.825C54.2254 77.888 54.2254 77.9517 54.2178 78.0147C52.7592 85.738 46.0351 85.789 42.0677 83.9074C40.8206 83.3167 36.4666 80.9902 36.4666 80.9902L27.3431 75.6299L27.2483 75.5788L14.8502 68.067L14.6241 67.8993C11.1016 64.9821 9.14708 62.6337 9.14708 58.4184V26.2636C9.14409 24.9571 9.48422 23.6728 10.1334 22.5391C10.7826 21.4053 11.7182 20.462 12.8464 19.8033C13.9747 19.1447 15.2562 18.7938 16.5626 18.7859C17.869 18.778 19.1546 19.1133 20.2908 19.7582L46.8519 34.7088C49.1033 35.9778 50.9771 37.8221 52.2816 40.0531C53.5861 42.2841 54.2744 44.8216 54.2761 47.406V60.5334C54.2777 60.7886 54.3462 61.0391 54.4748 61.2596C54.6035 61.4801 54.7878 61.663 55.0092 61.7899C55.2307 61.9169 55.4816 61.9836 55.7369 61.9832C55.9922 61.9828 56.243 61.9154 56.464 61.7877L62.3276 58.3236Z" fill="#040C22"/>
<path d="M4.81475 119.164C3.58067 118.509 2.5549 117.521 1.8538 116.312C1.14145 115.062 0.766846 113.648 0.766846 112.21C0.766846 110.771 1.14145 109.357 1.8538 108.108C2.56929 106.903 3.60081 105.917 4.83663 105.256C6.14103 104.558 7.60189 104.204 9.08115 104.228C10.2736 104.213 11.4567 104.438 12.5599 104.891C13.4993 105.282 14.3447 105.869 15.0395 106.612C15.0652 106.64 15.0849 106.672 15.0974 106.707C15.11 106.742 15.1151 106.779 15.1125 106.817C15.1116 106.853 15.1034 106.888 15.0884 106.921C15.0733 106.953 15.0517 106.982 15.0249 107.006L13.5663 108.399C13.511 108.445 13.4415 108.471 13.3694 108.472C13.2998 108.47 13.2329 108.444 13.1798 108.399C12.6652 107.873 12.0484 107.458 11.3673 107.18C10.6862 106.902 9.95536 106.765 9.21972 106.78C8.2195 106.77 7.23399 107.021 6.36087 107.51C5.53591 107.962 4.85194 108.633 4.38447 109.449C3.92037 110.315 3.67751 111.282 3.67751 112.265C3.67751 113.247 3.92037 114.214 4.38447 115.08C4.84747 115.901 5.53238 116.576 6.36087 117.027C7.24004 117.495 8.22356 117.734 9.21972 117.72C9.9699 117.734 10.7148 117.592 11.4076 117.304C12.0898 117.02 12.7057 116.598 13.2163 116.064C13.2432 116.038 13.2756 116.018 13.3111 116.006C13.3432 115.991 13.378 115.984 13.4132 115.984C13.4484 115.984 13.4832 115.991 13.5153 116.006C13.5496 116.016 13.58 116.037 13.6028 116.064L15.0614 117.45C15.1122 117.503 15.1406 117.573 15.1406 117.647C15.1406 117.72 15.1122 117.791 15.0614 117.844C14.3616 118.59 13.5115 119.179 12.5672 119.572C11.4588 120.024 10.2709 120.25 9.07386 120.236C7.59397 120.257 6.13307 119.901 4.82934 119.2L4.81475 119.164Z" fill="black"/>
<path d="M23.4923 108.216V110.856C23.2801 110.819 23.0657 110.797 22.8505 110.79C22.3876 110.763 21.9242 110.833 21.4898 110.995C21.0554 111.157 20.6594 111.408 20.3271 111.731C20.0037 112.102 19.7566 112.534 19.6002 113C19.4438 113.467 19.381 113.96 19.4155 114.451V120.198H16.6442V108.354H19.2842V110.083C20.0792 108.843 21.4867 108.223 23.4923 108.216Z" fill="black"/>
<path d="M37.0645 115.006H27.7368C27.8713 115.84 28.3301 116.587 29.0131 117.084C29.7603 117.611 30.659 117.88 31.5729 117.85C32.6809 117.848 33.7469 117.426 34.5558 116.669C34.5846 116.645 34.6165 116.625 34.6506 116.61H34.76C34.7932 116.6 34.8289 116.6 34.8621 116.61C34.8968 116.624 34.9272 116.646 34.9496 116.676L36.0873 117.981C36.1325 118.032 36.1583 118.096 36.1602 118.164C36.1594 118.234 36.1335 118.301 36.0873 118.353C35.5834 118.93 34.9583 119.388 34.2567 119.695C33.2589 120.063 32.1973 120.227 31.1349 120.177C30.0726 120.127 29.0311 119.864 28.0723 119.404C27.1087 118.915 26.3099 118.154 25.775 117.216C25.2267 116.263 24.9469 115.179 24.9655 114.08C24.9499 112.988 25.2216 111.912 25.7531 110.958C26.2612 110.037 27.0198 109.279 27.941 108.77C28.9103 108.266 29.9922 108.018 31.0843 108.048C32.1638 108.033 33.2289 108.297 34.1765 108.814C35.0878 109.309 35.8373 110.056 36.3352 110.966C36.8469 111.956 37.0979 113.06 37.0645 114.175C37.0645 114.374 37.0645 114.651 37.0645 115.006ZM28.8672 111.075C28.2462 111.608 27.848 112.355 27.7514 113.168H34.4682C34.3806 112.363 33.9925 111.621 33.3816 111.09C32.7537 110.551 31.9478 110.265 31.1208 110.287C30.3 110.267 29.4995 110.544 28.8672 111.068V111.075Z" fill="black"/>
<path d="M51.1764 103.853V119.752C51.1764 119.825 51.1472 119.896 51.0952 119.948C51.0432 120 50.9728 120.029 50.8993 120.029H48.7916C48.7181 120.029 48.6476 120 48.5956 119.948C48.5436 119.896 48.5144 119.825 48.5144 119.752V118.512C48.0625 119.068 47.4783 119.502 46.8152 119.773C46.1096 120.062 45.3531 120.206 44.5908 120.196C43.5161 120.211 42.4559 119.947 41.5132 119.431C40.6124 118.933 39.8714 118.189 39.3763 117.287C38.8638 116.306 38.5962 115.217 38.5962 114.11C38.5962 113.004 38.8638 111.915 39.3763 110.934C39.8699 110.027 40.6109 109.278 41.5132 108.776C42.4591 108.271 43.5192 108.02 44.5908 108.046C45.3396 108.032 46.0837 108.168 46.7787 108.447C47.4212 108.706 47.9916 109.117 48.4415 109.643V103.846C48.4346 103.809 48.4346 103.772 48.4415 103.736C48.4519 103.702 48.4722 103.671 48.4999 103.649C48.5238 103.621 48.5537 103.598 48.5874 103.583H48.6968H50.8847C50.9582 103.583 51.0287 103.612 51.0806 103.664C51.1326 103.716 51.1618 103.787 51.1618 103.86L51.1764 103.853ZM46.7204 117.352C47.2606 117.054 47.7056 116.609 48.0039 116.069C48.3108 115.464 48.4707 114.796 48.4707 114.118C48.4707 113.44 48.3108 112.771 48.0039 112.167C47.7137 111.624 47.2764 111.174 46.7422 110.869C46.1891 110.569 45.5701 110.411 44.9409 110.409C44.3138 110.41 43.697 110.568 43.1468 110.869C42.6104 111.174 42.1707 111.624 41.8778 112.167C41.576 112.773 41.4189 113.441 41.4189 114.118C41.4189 114.795 41.576 115.463 41.8778 116.069C42.1687 116.613 42.6089 117.064 43.1468 117.367C43.6975 117.665 44.3144 117.821 44.9409 117.819C45.5634 117.812 46.1745 117.651 46.7204 117.352Z" fill="black"/>
<path d="M55.2972 107.533C55.674 107.534 56.0427 107.424 56.3567 107.215C56.6707 107.007 56.9158 106.71 57.061 106.363C57.2061 106.015 57.2449 105.632 57.1723 105.262C57.0996 104.892 56.9189 104.553 56.653 104.286C56.3871 104.019 56.048 103.837 55.6785 103.763C55.3091 103.689 54.926 103.726 54.5777 103.87C54.2295 104.014 53.9318 104.258 53.7223 104.571C53.5128 104.884 53.401 105.252 53.401 105.629C53.401 106.133 53.6005 106.616 53.9559 106.972C54.3113 107.329 54.7936 107.531 55.2972 107.533V107.533Z" fill="white"/>
<path d="M55.297 108.909C54.7822 108.911 54.2863 108.715 53.9114 108.362V119.922C53.9114 119.995 53.9406 120.066 53.9925 120.118C54.0445 120.17 54.115 120.199 54.1885 120.199H56.3764C56.4499 120.199 56.5204 120.17 56.5724 120.118C56.6243 120.066 56.6535 119.995 56.6535 119.922V108.362C56.2798 108.717 55.7831 108.913 55.2679 108.909H55.297Z" fill="black"/>
<path d="M78.0147 109.303C78.5045 109.798 78.8823 110.392 79.1227 111.045C79.363 111.698 79.4602 112.395 79.4077 113.089V119.754C79.4079 119.791 79.4002 119.828 79.3851 119.862C79.37 119.896 79.3479 119.926 79.3202 119.951C79.2956 119.977 79.2661 119.997 79.2336 120.011C79.201 120.025 79.1659 120.032 79.1306 120.031H77.0666C76.9931 120.031 76.9227 120.002 76.8707 119.95C76.8187 119.898 76.7895 119.828 76.7895 119.754V118.602C76.4313 119.132 75.9235 119.543 75.3309 119.784C74.6119 120.078 73.8395 120.22 73.0628 120.199C72.2627 120.214 71.4689 120.055 70.7363 119.732C70.1103 119.469 69.5735 119.031 69.1902 118.471C68.8254 117.931 68.6368 117.292 68.6505 116.64C68.631 116.15 68.7285 115.663 68.935 115.218C69.1422 114.775 69.4492 114.385 69.832 114.08C70.6269 113.439 71.8667 113.118 73.5733 113.11H76.6364V112.935C76.6611 112.583 76.6086 112.23 76.4827 111.899C76.3567 111.569 76.1603 111.271 75.9071 111.025C75.2821 110.546 74.5047 110.31 73.7192 110.361C73.0529 110.362 72.3909 110.468 71.7573 110.675C71.2667 110.828 70.802 111.054 70.379 111.346C70.3486 111.367 70.3137 111.382 70.2769 111.389C70.2393 111.404 70.1977 111.404 70.1602 111.389C70.1207 111.384 70.0832 111.369 70.0508 111.346C70.0187 111.322 69.9915 111.292 69.9706 111.258L69.1537 109.726C69.1282 109.663 69.1282 109.593 69.1537 109.53C69.1687 109.462 69.2075 109.403 69.2631 109.362C69.8889 108.941 70.5784 108.623 71.3052 108.421C72.2095 108.167 73.1446 108.04 74.0838 108.042C75.5041 107.969 76.902 108.418 78.0147 109.303V109.303ZM75.4184 117.734C75.9185 117.412 76.272 116.907 76.403 116.327C76.488 115.976 76.5513 115.62 76.5926 115.262C76.5996 115.223 76.5996 115.184 76.5926 115.145C76.5775 115.109 76.5579 115.074 76.5343 115.043C76.5076 115.015 76.4753 114.992 76.4395 114.977C76.4009 114.97 76.3613 114.97 76.3228 114.977H73.7848C72.2095 114.977 71.4073 115.488 71.3854 116.502C71.3704 116.893 71.5091 117.276 71.7719 117.566C72.0257 117.792 72.3229 117.963 72.6451 118.07C72.9674 118.176 73.3081 118.216 73.6462 118.186C74.2681 118.213 74.8849 118.064 75.4257 117.756L75.4184 117.734Z" fill="black"/>
</svg>
