<svg width="44" height="44" viewBox="0 0 44 44" fill="none" xmlns="http://www.w3.org/2000/svg">
<path fill-rule="evenodd" clip-rule="evenodd" d="M39.4138 4.59721C35.2629 0.462 29.2938 0 22 0C14.6968 0 8.71907 0.4675 4.56971 4.61371C0.421143 8.75836 0 14.7266 0 22.0212C0 29.3174 0.421143 35.2872 4.57129 39.4334C8.72064 43.5804 14.6976 44 22 44C29.3024 44 35.2786 43.5804 39.4279 39.4334C43.5781 35.2864 44 29.3174 44 22.0212C44 14.7172 43.5734 8.74264 39.4138 4.59721Z" fill="#2D2B63"/>
<path d="M22.4088 24.0463V33.6664C22.4088 33.9133 22.3599 34.1577 22.2651 34.3856C22.1702 34.6136 22.0312 34.8206 21.856 34.9949C21.6808 35.1692 21.4729 35.3072 21.2441 35.4011C21.0153 35.4951 20.7702 35.543 20.5228 35.5423H20.2813C20.8877 34.2684 21.1611 32.8621 21.0761 31.4544C20.9911 30.0467 20.5504 28.6833 19.7952 27.4912C19.0399 26.2991 17.9946 25.3171 16.7566 24.6365C15.5185 23.9559 14.128 23.5989 12.7144 23.5988C11.4238 23.6027 10.1519 23.9072 9 24.488V24.0692C9 23.5717 9.1981 23.0946 9.5507 22.7428C9.90331 22.391 10.3815 22.1934 10.8802 22.1934H20.5228C21.018 22.1933 21.4934 22.3876 21.8463 22.7343C22.1992 23.081 22.4012 23.5522 22.4088 24.0463V24.0463Z" fill="#FECC0D"/>
<path d="M22.2872 20.4731V10.8759C22.2872 10.629 22.3361 10.3846 22.4309 10.1567C22.5258 9.92871 22.6648 9.72166 22.84 9.5474C23.0152 9.37314 23.2232 9.23508 23.4519 9.14115C23.6807 9.04722 23.9258 8.99925 24.1732 9.00001H24.4147C23.8103 10.2744 23.5384 11.6806 23.6242 13.0879C23.71 14.4952 24.1508 15.858 24.9056 17.05C25.6604 18.2419 26.7048 19.2243 27.9418 19.906C29.1788 20.5876 30.5684 20.9465 31.9816 20.9492C33.2726 20.9498 34.5461 20.6514 35.7018 20.0773V20.4731C35.7048 20.7211 35.6586 20.9673 35.5659 21.1975C35.4732 21.4277 35.3358 21.6374 35.1616 21.8144C34.9874 21.9914 34.7798 22.1323 34.5508 22.2289C34.3218 22.3256 34.0759 22.3761 33.8273 22.3776H24.1732C23.9236 22.3776 23.6765 22.3282 23.4461 22.2322C23.2158 22.1362 23.0069 21.9956 22.8314 21.8184C22.656 21.6413 22.5176 21.4311 22.4242 21.2002C22.3307 20.9692 22.2842 20.7221 22.2872 20.4731Z" fill="#FECC0D"/>
</svg>
