<svg width="120" height="34" viewBox="0 0 120 34" fill="none" xmlns="http://www.w3.org/2000/svg">
<path d="M21.8684 26.2826V27.1587C21.8689 27.9588 21.7126 28.7511 21.4087 29.4889C21.1699 29.4889 20.9251 29.4889 20.6803 29.422C20.1778 29.2644 19.6902 29.0607 19.2236 28.8135L18.4475 28.3998L14.6087 26.3373L8.51318 22.5956C6.7699 21.1293 5.80274 19.9673 5.80274 17.8683V5.59059C5.80143 4.85986 5.93508 4.13541 6.19676 3.45508C7.00167 3.52766 7.78169 3.77671 8.48334 4.18517L9.14601 4.56847C9.00762 4.89716 8.93654 5.25117 8.93707 5.60884V16.9435C8.93707 18.428 9.61767 19.2554 10.8356 20.2837C10.8574 20.3073 10.8838 20.3259 10.9132 20.3384L15.2057 22.9911H15.2356L18.3938 24.8771L18.7341 25.0597C19.1997 25.3152 20.0296 25.7593 20.3281 25.9054C20.8088 26.1431 21.3342 26.2718 21.8684 26.2826Z" fill="#1BC5AC"/>
<path d="M24.5375 24.0251C24.5375 24.0251 24.5375 24.0251 24.5375 24.0616V26.6047C24.5483 27.5364 24.3438 28.4576 23.9405 29.2939C25.0485 28.8694 26.0027 28.1098 26.675 27.117C27.3473 26.1241 27.7055 24.9454 27.7017 23.7391V20.5632C27.7014 20.5014 27.6853 20.4407 27.6548 20.3873C27.6243 20.3338 27.5806 20.2895 27.528 20.2587C27.4754 20.2279 27.4157 20.2117 27.3551 20.2117C27.2944 20.2118 27.2348 20.2281 27.1823 20.259L24.9136 21.5854C24.8084 21.6466 24.7208 21.7351 24.66 21.842C24.5992 21.9489 24.5672 22.0702 24.5674 22.1938L24.5375 24.0251ZM10.4778 2.21362L21.9704 8.7966C22.7497 9.24367 23.3982 9.89406 23.8494 10.681C24.3006 11.4679 24.5381 12.3631 24.5375 13.2745V18.1418C24.5389 18.2038 24.5561 18.2643 24.5873 18.3176C24.6185 18.3708 24.6628 18.4149 24.7157 18.4455C24.7686 18.4761 24.8284 18.4923 24.8892 18.4924C24.9501 18.4924 25.0099 18.4765 25.0629 18.446L27.3315 17.0831C27.4357 17.0211 27.522 16.9322 27.5818 16.8254C27.6415 16.7186 27.6726 16.5977 27.6718 16.4747V12.1063C27.6718 10.9911 27.3804 9.89604 26.8274 8.93367C26.2744 7.9713 25.4799 7.17639 24.5256 6.63067L14.2928 0.753442C13.2628 0.157627 12.0757 -0.0946922 10.898 0.0318781C9.7202 0.158448 8.61089 0.657558 7.72559 1.4592C8.69116 1.46703 9.63867 1.72676 10.4778 2.21362Z" fill="#1BC5AC"/>
<path d="M21.5284 20.5578C21.6317 20.4949 21.7174 20.4058 21.777 20.2992C21.8366 20.1926 21.8682 20.0721 21.8686 19.9494V15.5385C21.8662 14.4237 21.5737 13.3296 21.021 12.3677C20.4682 11.4058 19.6751 10.6104 18.7224 10.0628L8.48356 4.19164C7.61751 3.69409 6.63866 3.4365 5.6445 3.44452C4.65034 3.45254 3.67556 3.7259 2.81735 4.23736C1.95914 4.74882 1.24744 5.48053 0.753121 6.35958C0.2588 7.23863 -0.000862195 8.23434 2.15085e-06 9.24751V21.5191C2.15085e-06 23.612 0.961196 24.7741 2.68657 26.2282L2.72833 26.2586L8.79402 30.0003L13.397 32.4705C13.8652 32.7186 14.3548 32.9222 14.8597 33.0789C15.7125 33.2325 16.588 33.1952 17.4253 32.9695C18.2626 32.7439 19.0417 32.3353 19.7086 31.772C20.3754 31.2088 20.914 30.5045 21.287 29.7079C21.66 28.9114 21.8585 28.0416 21.8686 27.1591V23.9588C21.8694 23.8965 21.8541 23.835 21.824 23.7807C21.7939 23.7264 21.7503 23.6812 21.6975 23.6497C21.6447 23.6182 21.5847 23.6014 21.5236 23.6012C21.4624 23.601 21.4022 23.6174 21.3492 23.6485L18.9075 25.0783C18.855 25.1092 18.8114 25.1535 18.7811 25.2069C18.7507 25.2602 18.7345 25.3208 18.7343 25.3825V27.4268C18.7343 27.4268 18.7343 27.4754 18.7343 27.4998C18.2268 30.2194 15.8985 30.2376 14.5552 29.5744C14.1194 29.3676 12.6149 28.5462 12.6149 28.5462L9.46268 26.6602H9.42686L5.13432 24.0136L5.0567 23.9527C3.86267 22.9245 3.16418 22.0971 3.16418 20.6126V9.25968C3.16355 8.80038 3.28105 8.34893 3.50495 7.95032C3.72886 7.55171 4.05135 7.21985 4.4403 6.98781C4.82926 6.75577 5.27107 6.63165 5.72175 6.62782C6.17243 6.62399 6.61626 6.74058 7.00895 6.96598L16.197 12.2348C16.9755 12.6828 17.6234 13.3334 18.0744 14.1202C18.5255 14.9069 18.7635 15.8015 18.7642 16.7127V21.6165C18.7644 21.6783 18.7806 21.739 18.8111 21.7924C18.8416 21.8459 18.8853 21.8902 18.9379 21.921C18.9905 21.9518 19.0501 21.968 19.1108 21.9679C19.1715 21.9679 19.231 21.9516 19.2836 21.9207L21.5284 20.5578Z" fill="#040C22"/>
<g clip-path="url(#clip0_2_528)">
<path d="M40.1511 24.1959C38.8324 23.4858 37.734 22.4233 36.9766 21.1253C36.2193 19.7763 35.8213 18.2532 35.8213 16.7037C35.8213 15.1543 36.2193 13.6311 36.9766 12.2822C37.7435 10.9848 38.848 9.923 40.1709 9.21158C41.5691 8.46137 43.1344 8.08252 44.7186 8.11086C45.9961 8.09323 47.2639 8.33725 48.4448 8.82807C49.4519 9.24602 50.3569 9.87903 51.0972 10.6834C51.1239 10.7125 51.1447 10.7466 51.1582 10.7838C51.1718 10.8209 51.178 10.8604 51.1764 10.9C51.175 10.9396 51.1658 10.9785 51.1492 11.0145C51.1326 11.0504 51.1091 11.0826 51.0799 11.1092L49.5087 12.6034C49.4532 12.6562 49.3797 12.6856 49.3034 12.6856C49.2271 12.6851 49.1538 12.6557 49.098 12.6034C48.5469 12.0374 47.8867 11.5907 47.1578 11.291C46.4289 10.9912 45.6468 10.8446 44.8596 10.8602C43.7893 10.8355 42.7308 11.0894 41.7866 11.5973C40.9022 12.0826 40.1702 12.8072 39.6736 13.6892C39.175 14.6219 38.9141 15.6645 38.9141 16.7237C38.9141 17.7828 39.175 18.8254 39.6736 19.7581C40.171 20.6396 40.9027 21.364 41.7866 21.85C42.7273 22.3588 43.782 22.6161 44.8497 22.5971C45.6421 22.6095 46.4286 22.4574 47.16 22.1502C47.8914 21.8429 48.5519 21.3873 49.1005 20.8115C49.1279 20.7836 49.1608 20.7615 49.197 20.7468C49.2322 20.7317 49.2701 20.7241 49.3083 20.7244C49.3465 20.7244 49.3844 20.732 49.4197 20.7468C49.4548 20.7622 49.4867 20.7841 49.5137 20.8115L51.0848 22.3057C51.1419 22.3601 51.1757 22.4348 51.1789 22.5139C51.1822 22.5929 51.1546 22.6702 51.1022 22.7291C50.3559 23.5345 49.4462 24.1689 48.4349 24.5894C47.2489 25.0777 45.9776 25.3216 44.6963 25.3066C43.1121 25.3286 41.5482 24.9456 40.1511 24.1934V24.1959Z" fill="#040C22"/>
<path d="M60.1477 12.4014V15.2453C59.921 15.2008 59.6908 15.1775 59.4598 15.1756C58.3052 15.1756 57.4029 15.5135 56.753 16.1892C56.1031 16.8649 55.779 17.8411 55.7806 19.1178V25.3088H52.8115V12.5458H55.6421V14.4086C56.4949 13.0704 57.9967 12.4014 60.1477 12.4014Z" fill="#040C22"/>
<path d="M74.6377 19.7111H64.6888C64.8332 20.61 65.3239 21.4154 66.0546 21.9524C66.8543 22.5214 67.8173 22.8109 68.796 22.7767C69.9823 22.7789 71.1247 22.3256 71.9903 21.5091C72.0188 21.4819 72.0524 21.4607 72.0893 21.4469C72.1266 21.4336 72.166 21.4277 72.2056 21.4295C72.2451 21.4299 72.2839 21.4393 72.3194 21.4569C72.3547 21.4741 72.3866 21.4977 72.4134 21.5266L73.6283 22.9336C73.6763 22.9897 73.7028 23.0613 73.7028 23.1353C73.7028 23.2094 73.6763 23.281 73.6283 23.3371C73.091 23.9599 72.4223 24.4542 71.6711 24.7839C70.6016 25.178 69.4647 25.3535 68.3269 25.3C67.1892 25.2466 66.0735 24.9653 65.0451 24.4726C64.0192 23.9504 63.1652 23.141 62.5857 22.1417C61.9992 21.1146 61.7 19.9468 61.7197 18.7623C61.7051 17.5867 61.9987 16.4279 62.5708 15.4029C63.1182 14.4238 63.9274 13.6188 64.9065 13.0794C65.9408 12.5144 67.1022 12.2271 68.2789 12.2451C69.4357 12.2253 70.5776 12.5094 71.5919 13.0694C72.554 13.61 73.3441 14.4139 73.8707 15.3879C74.4343 16.4485 74.718 17.637 74.6947 18.8395C74.6947 19.0363 74.6699 19.3301 74.6377 19.7111ZM65.864 15.4776C65.1988 16.054 64.7709 16.8594 64.664 17.7363H71.8592C71.7634 16.8582 71.3399 16.0494 70.6744 15.4734C70.0089 14.8974 69.1509 14.5971 68.274 14.6333C67.3958 14.605 66.538 14.9028 65.864 15.4701V15.4776Z" fill="#040C22"/>
<path d="M89.7877 7.69728V24.8332C89.7879 24.8725 89.7804 24.9115 89.7655 24.9478C89.7507 24.9842 89.7288 25.0172 89.7011 25.0449C89.6451 25.1007 89.5696 25.132 89.4908 25.1321H87.2343C87.1557 25.1314 87.0806 25.0997 87.025 25.0438C86.9695 24.9879 86.938 24.9123 86.9374 24.8332V23.4909C86.4551 24.0917 85.8306 24.561 85.1213 24.8556C84.364 25.1648 83.5532 25.3189 82.7361 25.3089C81.5881 25.3232 80.4557 25.0402 79.4478 24.4871C78.4816 23.9516 77.6862 23.151 77.1542 22.1785C76.6095 21.1208 76.3252 19.9469 76.3252 18.7556C76.3252 17.5642 76.6095 16.3903 77.1542 15.3326C77.6875 14.3649 78.4829 13.5695 79.4478 13.039C80.4562 12.4878 81.5887 12.2074 82.7361 12.2247C83.5246 12.2149 84.3072 12.3613 85.0396 12.6555C85.7273 12.936 86.3382 13.3784 86.8211 13.9455V7.69728C86.8208 7.65798 86.8284 7.61902 86.8433 7.58272C86.858 7.54628 86.8799 7.51322 86.9077 7.48559C86.9349 7.45734 86.9678 7.43527 87.0042 7.42084C87.0404 7.40621 87.079 7.39862 87.118 7.39844H89.4908C89.5695 7.39844 89.6451 7.42991 89.7007 7.48596C89.7564 7.542 89.7877 7.61802 89.7877 7.69728ZM85.0149 22.2458C85.5884 21.9186 86.0578 21.4341 86.3683 20.8487C86.6969 20.197 86.8682 19.4765 86.8682 18.7456C86.8682 18.0148 86.6969 17.2943 86.3683 16.6425C86.0579 16.0564 85.5886 15.5711 85.0149 15.243C84.4241 14.921 83.7629 14.7525 83.0911 14.7525C82.4193 14.7525 81.7582 14.921 81.1674 15.243C80.5953 15.5732 80.1265 16.058 79.814 16.6425C79.4871 17.2948 79.3168 18.0151 79.3168 18.7456C79.3168 19.4761 79.4871 20.1965 79.814 20.8487C80.128 21.4314 80.5966 21.9151 81.1674 22.2458C81.7582 22.5677 82.4193 22.7363 83.0911 22.7363C83.7629 22.7363 84.4241 22.5677 85.0149 22.2458Z" fill="#040C22"/>
<path d="M94.1862 11.6566C94.5884 11.6566 94.9817 11.5365 95.3161 11.3116C95.6506 11.0867 95.9113 10.767 96.0652 10.3929C96.2191 10.0189 96.2594 9.60729 96.1809 9.2102C96.1024 8.81311 95.9087 8.44835 95.6243 8.16207C95.3399 7.87578 94.9775 7.68082 94.583 7.60183C94.1884 7.52285 93.7795 7.56339 93.4079 7.71832C93.0362 7.87326 92.7186 8.13563 92.4951 8.47226C92.2716 8.8089 92.1523 9.20469 92.1523 9.60956C92.1523 9.87838 92.2049 10.1446 92.3072 10.3929C92.4094 10.6413 92.5592 10.8669 92.748 11.057C92.9369 11.2471 93.1611 11.3979 93.4079 11.5008C93.6546 11.6037 93.9191 11.6566 94.1862 11.6566Z" fill="#1BC5AC"/>
<path d="M94.1867 13.1487C93.7231 13.1477 93.2717 12.9986 92.8976 12.7229C92.8796 12.7088 92.8581 12.7002 92.8355 12.6979C92.8129 12.6956 92.7901 12.6998 92.7697 12.7099C92.7493 12.72 92.7322 12.7357 92.7202 12.7552C92.7083 12.7746 92.702 12.7971 92.7022 12.82V25.0226C92.7028 25.1016 92.7343 25.1773 92.7898 25.2332C92.8454 25.2891 92.9205 25.3208 92.9991 25.3214H95.3743C95.4531 25.3213 95.5287 25.29 95.5847 25.2343C95.6123 25.2065 95.6342 25.1735 95.6491 25.1372C95.6639 25.1008 95.6715 25.0619 95.6713 25.0226V12.8225C95.6719 12.7994 95.6659 12.7766 95.6542 12.7568C95.6424 12.7369 95.6253 12.7209 95.6048 12.7104C95.5844 12.7 95.5614 12.6956 95.5385 12.6978C95.5157 12.7 95.4939 12.7087 95.4758 12.7229C95.102 12.9992 94.6505 13.1484 94.1867 13.1487Z" fill="#040C22"/>
<path d="M107.315 24.2402C107.341 24.3017 107.345 24.3702 107.327 24.4345C107.309 24.4988 107.27 24.5549 107.216 24.5938C106.884 24.821 106.516 24.9895 106.127 25.0919C105.614 25.2386 105.082 25.3115 104.549 25.3085C103.158 25.3085 102.086 24.9416 101.332 24.2078C100.578 23.474 100.194 22.4106 100.179 21.0177V14.8716H98.3877C98.3092 14.8709 98.234 14.8392 98.1785 14.7833C98.123 14.7274 98.0915 14.6518 98.0908 14.5727V12.7797C98.0915 12.7006 98.123 12.625 98.1785 12.5691C98.234 12.5132 98.3092 12.4815 98.3877 12.4808H100.179V9.85354C100.179 9.81397 100.187 9.77481 100.204 9.73898C100.217 9.70193 100.239 9.66865 100.268 9.64186C100.295 9.61447 100.327 9.59249 100.362 9.57711C100.398 9.56249 100.437 9.55487 100.476 9.55469H102.851C102.89 9.55443 102.929 9.56206 102.965 9.57711C103.001 9.59213 103.034 9.61415 103.062 9.64193C103.089 9.6697 103.111 9.70268 103.126 9.73898C103.141 9.77535 103.148 9.81426 103.148 9.85354V12.4709H105.076C105.154 12.4715 105.23 12.5027 105.286 12.558C105.313 12.5856 105.334 12.6183 105.349 12.6542C105.363 12.6901 105.37 12.7285 105.37 12.7672V14.5852C105.37 14.6239 105.363 14.6623 105.349 14.6982C105.334 14.7341 105.313 14.7668 105.286 14.7944C105.23 14.8497 105.154 14.8809 105.076 14.8815H103.148V20.9529C103.113 21.4673 103.274 21.9758 103.599 22.3749C103.769 22.5465 103.973 22.6796 104.198 22.7655C104.424 22.8514 104.665 22.888 104.905 22.873C105.386 22.8792 105.86 22.7581 106.281 22.5218C106.319 22.5027 106.361 22.4917 106.404 22.4895C106.447 22.4869 106.489 22.4946 106.528 22.5119C106.567 22.5274 106.603 22.5512 106.632 22.5816C106.661 22.6122 106.684 22.6486 106.699 22.6887L107.315 24.2402Z" fill="#040C22"/>
<path d="M118.516 13.5718C119.506 14.4733 120.001 15.8321 120.001 17.6484V24.8306C120.001 24.9098 119.97 24.9858 119.914 25.0419C119.858 25.0979 119.783 25.1294 119.704 25.1294H117.499C117.421 25.1294 117.345 25.0979 117.289 25.0419C117.234 24.9858 117.202 24.9098 117.202 24.8306V23.5854C116.821 24.1575 116.28 24.6023 115.646 24.8629C114.056 25.4725 112.296 25.4529 110.72 24.8081C110.053 24.5198 109.481 24.0476 109.07 23.4459C108.681 22.8633 108.478 22.1752 108.488 21.4736C108.471 20.9458 108.577 20.4214 108.797 19.9423C109.018 19.4631 109.347 19.0426 109.757 18.7143C110.604 18.022 111.937 17.675 113.758 17.6733H117.037V17.4841C117.037 16.59 116.772 15.9027 116.24 15.4271C115.708 14.9514 114.921 14.7123 113.877 14.7098C113.164 14.7104 112.455 14.8239 111.776 15.046C111.248 15.2091 110.747 15.4527 110.292 15.7682C110.258 15.7931 110.219 15.8109 110.178 15.8205C110.137 15.828 110.095 15.828 110.054 15.8205C110.013 15.8114 109.974 15.7935 109.941 15.7682C109.906 15.7436 109.877 15.7112 109.856 15.6736L108.978 14.025C108.943 13.9605 108.932 13.8852 108.948 13.8133C108.963 13.741 109.005 13.6769 109.065 13.634C109.734 13.1782 110.473 12.835 111.252 12.618C112.218 12.3439 113.217 12.2072 114.221 12.212C116.093 12.2203 117.525 12.6736 118.516 13.5718ZM115.73 22.6515C116.307 22.3103 116.594 21.7899 116.787 21.1374C116.879 20.7604 116.947 20.3777 116.99 19.9918C116.998 19.9508 116.998 19.9084 116.99 19.8673C116.978 19.8256 116.957 19.7872 116.928 19.7553C116.9 19.7242 116.866 19.6988 116.829 19.6805C116.79 19.6637 116.748 19.6552 116.705 19.6556H113.983C112.299 19.6556 111.444 20.2052 111.418 21.3042C111.403 21.7248 111.554 22.1343 111.836 22.4448C112.269 22.8956 112.937 23.1222 113.84 23.1197C114.505 23.1474 115.163 22.9851 115.74 22.6515H115.73Z" fill="#040C22"/>
</g>
<defs>
<clipPath id="clip0_2_528">
<rect width="84.1791" height="18.2523" fill="white" transform="translate(35.8213 7.90918)"/>
</clipPath>
</defs>
</svg>
