<svg width="44" height="44" viewBox="0 0 44 44" fill="none" xmlns="http://www.w3.org/2000/svg">
<path fill-rule="evenodd" clip-rule="evenodd" d="M39.4138 4.59721C35.2629 0.462 29.2938 0 22 0C14.6968 0 8.71907 0.4675 4.56971 4.61371C0.421143 8.75836 0 14.7266 0 22.0212C0 29.3174 0.421143 35.2872 4.57129 39.4334C8.72064 43.5804 14.6976 44 22 44C29.3024 44 35.2786 43.5804 39.4279 39.4334C43.5781 35.2864 44 29.3174 44 22.0212C44 14.7172 43.5734 8.74264 39.4138 4.59721Z" fill="#EF4E23"/>
<path d="M23.0162 10C23.6862 10.1367 24.3792 10.2278 25.0492 10.4101C27.6042 11.1246 29.8315 12.6855 31.356 14.8301C32.1415 15.8553 32.7652 17.1084 33.4814 18.1337C33.5374 18.2722 33.6339 18.3911 33.7586 18.4754C33.7586 17.7236 33.7586 16.9717 33.9203 16.1971H34.0589C34.2669 16.9261 34.521 17.6552 34.6827 18.4754C35.4073 21.7579 34.881 25.1886 33.2042 28.1128C32.329 29.6449 31.1061 30.9564 29.6312 31.9446C28.1562 32.9327 26.4694 33.5707 24.7027 33.8086C22.9823 34.1419 21.2042 34.0387 19.5353 33.5086C17.8665 32.9786 16.3615 32.0392 15.1616 30.7784C13.5371 29.0757 12.6136 26.8376 12.5709 24.5C12.5282 22.1625 13.3694 19.893 14.9306 18.1337C15.7599 17.1329 16.8253 16.348 18.0335 15.8475C19.2418 15.347 20.556 15.1463 21.8611 15.263C23.5541 15.4413 25.1434 16.1542 26.3923 17.2955C27.6411 18.4368 28.4827 19.9455 28.7917 21.5967C29.0152 22.8748 28.8088 24.19 28.204 25.3417C27.5993 26.4934 26.6293 27.4185 25.4419 27.9761C24.6794 28.3313 23.8426 28.5041 22.9996 28.4803C22.1567 28.4566 21.3313 28.237 20.5905 27.8394C19.7594 27.3579 19.1275 26.6024 18.8062 25.7062C18.485 24.8099 18.4951 23.8306 18.8348 22.9409C19.1908 21.8251 19.9683 20.8869 21.0064 20.3209C21.0533 20.3001 21.0946 20.2686 21.1267 20.229C21.1589 20.1894 21.181 20.1428 21.1912 20.093C20.8568 20.1239 20.5249 20.1772 20.1978 20.2525C19.1287 20.5078 18.1939 21.1457 17.5749 22.0425C16.9559 22.9392 16.6968 24.0308 16.848 25.1054C17.0044 26.4865 17.6838 27.7585 18.7504 28.6668C19.817 29.575 21.1921 30.0526 22.6004 30.0038C24.3785 30.0458 26.1153 29.4714 27.5083 28.3807C28.9013 27.29 29.8623 25.752 30.224 24.0345C30.7562 21.9474 30.5043 19.7408 29.5148 17.8227C28.5254 15.9045 26.8652 14.4044 24.8413 13.5998C22.5117 12.5478 19.8743 12.3652 17.4186 13.0859C14.9629 13.8066 12.8557 15.3816 11.4884 17.5185C10.1573 19.5944 9.28361 21.9231 8.92408 24.3535C8.76236 25.4016 8.69306 26.4724 8.57755 27.5204C8.57755 27.6571 8.57755 27.771 8.57755 27.9077H8.39273C8.39273 27.0875 8.18482 26.2673 8.09241 25.4471C8.09241 25.2421 8.09241 25.037 8.09241 24.832V23.8978C8.06758 23.8197 8.03669 23.7435 8 23.67C8.15146 22.4623 8.3908 21.2669 8.71616 20.093C9.37411 17.7283 10.6649 15.5816 12.4533 13.878C14.2417 12.1744 16.4618 10.9766 18.881 10.4101C19.551 10.2278 20.3826 10.1367 21.145 10H23.0162Z" fill="white"/>
</svg>
