<svg width="28" height="20" viewBox="0 0 28 20" fill="none" xmlns="http://www.w3.org/2000/svg">
<path d="M25.9105 0.827148H2.09494C0.940809 0.827148 0 1.76249 0 2.92209V17.078C0 18.2376 0.940809 19.1729 2.09494 19.1729H25.9051C27.0647 19.1729 28 18.2321 28 17.078V2.92209C28.0055 1.76249 27.0647 0.827148 25.9105 0.827148Z" fill="#FF4B55"/>
<path d="M14.2271 4.53021L15.518 8.40284L19.5984 8.43566C19.8282 8.43566 19.9212 8.73103 19.7352 8.86231L16.4533 11.2854L17.684 15.1745C17.7551 15.3933 17.5035 15.5738 17.3175 15.437L14.0028 13.0686L10.6826 15.4425C10.4967 15.5738 10.2505 15.3933 10.3162 15.1799L11.5469 11.2909L8.26499 8.86778C8.07902 8.73103 8.17747 8.44113 8.40173 8.44113L12.4822 8.40832L13.7731 4.53568C13.8497 4.31142 14.156 4.31142 14.2271 4.53021Z" fill="#FFE15A"/>
</svg>
